<svg viewBox="0 0 14 14" fill="none" xmlns="http://www.w3.org/2000/svg">
  <path d="M12.625 0.25H1.375C1.07663 0.25 0.790483 0.368526 0.579505 0.579505C0.368526 0.790483 0.25 1.07663 0.25 1.375V12.625C0.25 12.9234 0.368526 13.2095 0.579505 13.4205C0.790483 13.6315 1.07663 13.75 1.375 13.75H12.625C12.9234 13.75 13.2095 13.6315 13.4205 13.4205C13.6315 13.2095 13.75 12.9234 13.75 12.625V1.375C13.75 1.07663 13.6315 0.790483 13.4205 0.579505C13.2095 0.368526 12.9234 0.25 12.625 0.25ZM10.2105 5.71047L6.27297 9.64797C6.22073 9.70027 6.15869 9.74176 6.0904 9.77007C6.02212 9.79837 5.94892 9.81294 5.875 9.81294C5.80108 9.81294 5.72788 9.79837 5.6596 9.77007C5.59131 9.74176 5.52927 9.70027 5.47703 9.64797L3.78953 7.96047C3.68398 7.85492 3.62469 7.71177 3.62469 7.5625C3.62469 7.41323 3.68398 7.27008 3.78953 7.16453C3.89508 7.05898 4.03823 6.99969 4.1875 6.99969C4.33677 6.99969 4.47992 7.05898 4.58547 7.16453L5.875 8.45477L9.41453 4.91453C9.46679 4.86227 9.52884 4.82081 9.59712 4.79253C9.6654 4.76424 9.73859 4.74969 9.8125 4.74969C9.88641 4.74969 9.9596 4.76424 10.0279 4.79253C10.0962 4.82081 10.1582 4.86227 10.2105 4.91453C10.2627 4.96679 10.3042 5.02884 10.3325 5.09712C10.3608 5.1654 10.3753 5.23859 10.3753 5.3125C10.3753 5.38641 10.3608 5.4596 10.3325 5.52788C10.3042 5.59616 10.2627 5.65821 10.2105 5.71047Z" fill="#34D399"/>
</svg>