<svg preserveAspectRatio="none" width="100%" height="100%" overflow="visible" style="display: block;" viewBox="0 0 14 14" fill="none" xmlns="http://www.w3.org/2000/svg">
<g id="01 align center">
<path id="Vector" d="M12.9411 12.9411C13.1577 12.7244 13.1577 12.3732 12.9411 12.1566L9.85908 9.07457C10.7616 7.97082 11.2053 6.56241 11.0985 5.14068C10.9916 3.71895 10.3424 2.39266 9.28517 1.43616C8.2279 0.479649 6.84343 -0.0338988 5.41813 0.00173801C3.99284 0.0373748 2.63577 0.619469 1.62762 1.62762C0.619469 2.63577 0.0373748 3.99284 0.00173801 5.41813C-0.0338988 6.84343 0.479649 8.2279 1.43616 9.28517C2.39266 10.3424 3.71895 10.9916 5.14068 11.0985C6.56241 11.2053 7.97082 10.7616 9.07457 9.85908L12.1566 12.9411C12.3732 13.1577 12.7244 13.1577 12.9411 12.9411V12.9411ZM5.56591 10.0044C4.68806 10.0044 3.82991 9.74413 3.1 9.25641C2.37009 8.7687 1.80119 8.0755 1.46525 7.26446C1.12931 6.45343 1.04141 5.56099 1.21267 4.7C1.38394 3.83901 1.80666 3.04814 2.4274 2.4274C3.04814 1.80666 3.83901 1.38394 4.7 1.21267C5.56099 1.04141 6.45343 1.12931 7.26446 1.46525C8.0755 1.80119 8.7687 2.37009 9.25641 3.1C9.74413 3.82991 10.0044 4.68806 10.0044 5.56591C10.0031 6.74268 9.53506 7.87087 8.70297 8.70297C7.87087 9.53506 6.74268 10.0031 5.56591 10.0044Z" fill="var(--fill-0, #7D8497)"/>
</g>
</svg>
