<svg preserveAspectRatio="none" width="100%" height="100%" overflow="visible" style="display: block;" viewBox="0 0 10 10" fill="none" xmlns="http://www.w3.org/2000/svg">
<path id="Vector" d="M4.875 0C3.91082 0 2.96829 0.285914 2.1666 0.821586C1.36491 1.35726 0.740067 2.11863 0.371089 3.00942C0.00211226 3.90021 -0.094429 4.88041 0.093674 5.82607C0.281777 6.77172 0.746076 7.64036 1.42786 8.32215C2.10964 9.00393 2.97828 9.46823 3.92394 9.65633C4.86959 9.84443 5.84979 9.74789 6.74058 9.37891C7.63137 9.00994 8.39274 8.38509 8.92842 7.5834C9.46409 6.78171 9.75 5.83918 9.75 4.875C9.74851 3.58253 9.23442 2.34342 8.3205 1.4295C7.40659 0.515581 6.16748 0.00148874 4.875 0ZM9 4.875C9.00033 5.25542 8.94779 5.63404 8.84391 6H7.03875C7.15375 5.25441 7.15375 4.49559 7.03875 3.75H8.84391C8.94779 4.11596 9.00033 4.49458 9 4.875ZM3.65625 6.75H6.09375C5.85362 7.53684 5.43674 8.25835 4.875 8.85938C4.31348 8.25819 3.89663 7.53673 3.65625 6.75ZM3.47344 6C3.34469 5.25553 3.34469 4.49447 3.47344 3.75H6.28031C6.40906 4.49447 6.40906 5.25553 6.28031 6H3.47344ZM0.750002 4.875C0.749676 4.49458 0.80221 4.11596 0.906096 3.75H2.71125C2.59625 4.49559 2.59625 5.25441 2.71125 6H0.906096C0.80221 5.63404 0.749676 5.25542 0.750002 4.875ZM6.09375 3H3.65625C3.89639 2.21316 4.31326 1.49165 4.875 0.890625C5.43653 1.49181 5.85337 2.21327 6.09375 3ZM8.54672 3H6.87703C6.66659 2.22793 6.31191 1.50266 5.83172 0.8625C6.4119 1.00187 6.95508 1.26505 7.42402 1.63399C7.89297 2.00294 8.27659 2.46892 8.5486 3H8.54672ZM3.91828 0.8625C3.43809 1.50266 3.08342 2.22793 2.87297 3H1.20141C1.47341 2.46892 1.85703 2.00294 2.32598 1.63399C2.79493 1.26505 3.33811 1.00187 3.91828 0.8625ZM1.20141 6.75H2.87297C3.08342 7.52207 3.43809 8.24734 3.91828 8.8875C3.33811 8.74813 2.79493 8.48495 2.32598 8.11601C1.85703 7.74706 1.47341 7.28108 1.20141 6.75ZM5.83172 8.8875C6.31191 8.24734 6.66659 7.52207 6.87703 6.75H8.5486C8.27659 7.28108 7.89297 7.74706 7.42402 8.11601C6.95508 8.48495 6.4119 8.74813 5.83172 8.8875Z" fill="var(--fill-0, #C4C7CF)"/>
</svg>
