<svg preserveAspectRatio="none" width="100%" height="100%" overflow="visible" style="display: block;" viewBox="0 0 8 10" fill="none" xmlns="http://www.w3.org/2000/svg">
<path id="Vector" d="M1.43856 9.71988H0V4.89594H4.7952C5.24886 4.8909 5.68236 4.70742 6.0018 4.38528C6.3213 4.06314 6.50106 3.62814 6.50232 3.17442C6.5049 2.95008 6.46158 2.7276 6.375 2.5206C6.28842 2.3136 6.16038 2.12652 5.9988 1.97082C5.84244 1.81014 5.65524 1.68276 5.44842 1.59624C5.2416 1.50972 5.01942 1.46586 4.7952 1.46736H0V0H4.8C5.64036 0.00504 6.4449 0.3411 7.03908 0.93534C7.63332 1.52958 7.96938 2.33406 7.97442 3.17442C7.97958 3.81768 7.78338 4.44642 7.41342 4.97262C7.07286 5.47608 6.59292 5.86938 6.0324 6.10434C5.47734 6.28032 4.89798 6.36774 4.31568 6.36324H1.43856V9.71988Z" fill="url(#paint0_linear_40000003_324354)"/>
<defs>
<linearGradient id="paint0_linear_40000003_324354" x1="13.4288" y1="-0.7851" x2="-6.92849" y2="7.35576" gradientUnits="userSpaceOnUse">
<stop stop-color="#C200FB"/>
<stop offset="0.489658" stop-color="#3772FF"/>
<stop offset="1" stop-color="#5AC4BE"/>
</linearGradient>
</defs>
</svg>
