<svg preserveAspectRatio="none" width="100%" height="100%" overflow="visible" style="display: block;" viewBox="0 0 11 15" fill="none" xmlns="http://www.w3.org/2000/svg">
<path id="Vector" d="M10.125 3.63094V1.125C10.125 0.826631 10.0065 0.540483 9.79549 0.329505C9.58452 0.118526 9.29837 0 9 0H1.125C0.826631 0 0.540483 0.118526 0.329505 0.329505C0.118526 0.540483 0 0.826631 0 1.125V3.65625C0.000380032 3.83083 0.0412101 4.00295 0.119286 4.15911C0.197363 4.31526 0.310561 4.4512 0.45 4.55625L4.12523 7.3125L0.45 10.0687C0.310561 10.1738 0.197363 10.3097 0.119286 10.4659C0.0412101 10.622 0.000380032 10.7942 0 10.9688V13.5C0 13.7984 0.118526 14.0845 0.329505 14.2955C0.540483 14.5065 0.826631 14.625 1.125 14.625H9C9.29837 14.625 9.58452 14.5065 9.79549 14.2955C10.0065 14.0845 10.125 13.7984 10.125 13.5V10.9941C10.1246 10.8201 10.0841 10.6487 10.0067 10.4929C9.92924 10.3372 9.81694 10.2014 9.67852 10.0962L5.99555 7.3125L9.67852 4.52813C9.81701 4.42307 9.92936 4.28744 10.0068 4.13181C10.0843 3.97618 10.1247 3.80477 10.125 3.63094ZM9 13.5H1.125V10.9688L5.0625 8.01562L9 10.9934V13.5ZM9 3.63094L5.0625 6.60938L1.125 3.65625V1.125H9V3.63094Z" fill="var(--fill-0, #7D8497)"/>
</svg>
