<svg preserveAspectRatio="none" width="100%" height="100%" overflow="visible" style="display: block;" viewBox="0 0 10 10" fill="none" xmlns="http://www.w3.org/2000/svg">
<g id="Frame 233">
<path id="Union" fill-rule="evenodd" clip-rule="evenodd" d="M5 0C7.76142 0 10 2.23858 10 5C10 7.76142 7.76142 10 5 10C2.23858 10 0 7.76142 0 5C0 2.23858 2.23858 0 5 0ZM5 9.25C5.25323 9.25 5.6844 9.02522 6.09695 8.20012C6.28186 7.8303 6.4382 7.38181 6.55151 6.875H3.44849C3.5618 7.38181 3.71814 7.8303 3.90305 8.20012C4.3156 9.02522 4.74677 9.25 5 9.25ZM3.31889 6.125C3.27423 5.76823 3.25 5.39145 3.25 5C3.25 4.60855 3.27423 4.23177 3.31889 3.875H6.68111C6.72577 4.23177 6.75 4.60855 6.75 5C6.75 5.39145 6.72577 5.76823 6.68111 6.125H3.31889ZM7.31828 6.875C7.14952 7.70879 6.87157 8.43082 6.5199 8.97016C7.52336 8.58576 8.34393 7.83188 8.8151 6.875H7.31828ZM9.09951 6.125H7.43646C7.47803 5.7634 7.5 5.38683 7.5 5C7.5 4.61317 7.47804 4.2366 7.43646 3.875H9.09951C9.19762 4.23332 9.25 4.61054 9.25 5C9.25 5.38946 9.19762 5.76668 9.09951 6.125ZM2.56354 6.125H0.900492C0.802384 5.76668 0.75 5.38946 0.75 5C0.75 4.61054 0.802384 4.23332 0.900492 3.875H2.56354C2.52196 4.2366 2.5 4.61317 2.5 5C2.5 5.38683 2.52196 5.7634 2.56354 6.125ZM1.1849 6.875H2.68172C2.85048 7.70879 3.12843 8.43082 3.4801 8.97016C2.47664 8.58576 1.65607 7.83188 1.1849 6.875ZM3.44849 3.125H6.55151C6.4382 2.61819 6.28186 2.1697 6.09695 1.79988C5.6844 0.974783 5.25323 0.75 5 0.75C4.74677 0.75 4.3156 0.974783 3.90305 1.79988C3.71814 2.1697 3.5618 2.61819 3.44849 3.125ZM7.31828 3.125H8.8151C8.34393 2.16812 7.52336 1.41423 6.5199 1.02984C6.87157 1.56918 7.14952 2.29121 7.31828 3.125ZM3.4801 1.02984C3.12842 1.56918 2.85048 2.29121 2.68172 3.125H1.1849C1.65607 2.16812 2.47664 1.41423 3.4801 1.02984Z" fill="var(--fill-0, #CAD0DD)"/>
</g>
</svg>
