<svg preserveAspectRatio="none" width="100%" height="100%" overflow="visible" style="display: block;" viewBox="0 0 68 68" fill="none" xmlns="http://www.w3.org/2000/svg">
<g id="Group 74">
<path id="Ellipse 1" d="M68 34C68 52.7777 52.7777 68 34 68C15.2223 68 0 52.7777 0 34C0 15.2223 15.2223 0 34 0C52.7777 0 68 15.2223 68 34ZM2.99796 34C2.99796 51.122 16.878 65.002 34 65.002C51.122 65.002 65.002 51.122 65.002 34C65.002 16.878 51.122 2.99796 34 2.99796C16.878 2.99796 2.99796 16.878 2.99796 34Z" fill="var(--fill-0, #252B39)"/>
<path id="Ellipse 2" d="M34 0C40.7246 8.01896e-08 47.2981 1.99407 52.8894 5.73003C58.4807 9.466 62.8385 14.7761 65.4119 20.9888C67.9853 27.2015 68.6586 34.0377 67.3467 40.6331C66.0348 47.2284 62.7966 53.2866 58.0416 58.0416L55.9212 55.9212C60.2568 51.5856 63.2093 46.0617 64.4055 40.048C65.6017 34.0344 64.9878 27.8011 62.6414 22.1364C60.295 16.4716 56.3215 11.6299 51.2233 8.22344C46.1252 4.81699 40.1315 2.9988 34 2.9988L34 0Z" fill="var(--fill-0, #34D399)"/>
</g>
</svg>
