<svg preserveAspectRatio="none" width="100%" height="100%" overflow="visible" style="display: block;" viewBox="0 0 13 13" fill="none" xmlns="http://www.w3.org/2000/svg">
<path id="Vector" d="M12.9326 12.2517C12.8887 12.3277 12.8256 12.3909 12.7496 12.4347C12.6735 12.4786 12.5873 12.5017 12.4995 12.5017H0.499487C0.411763 12.5016 0.325605 12.4784 0.249667 12.4345C0.173729 12.3906 0.110683 12.3275 0.0668591 12.2515C0.0230357 12.1755 -2.25052e-05 12.0893 1.64824e-08 12.0016C2.25381e-05 11.9138 0.0231249 11.8277 0.0669874 11.7517C1.01886 10.1061 2.48574 8.92608 4.19761 8.3667C3.35084 7.86261 2.69295 7.0945 2.32498 6.18032C1.95701 5.26614 1.89929 4.25645 2.1607 3.3063C2.42211 2.35615 2.98819 1.51807 3.772 0.920778C4.55582 0.323485 5.51403 0 6.49949 0C7.48495 0 8.44316 0.323485 9.22697 0.920778C10.0108 1.51807 10.5769 2.35615 10.8383 3.3063C11.0997 4.25645 11.042 5.26614 10.674 6.18032C10.306 7.0945 9.64813 7.86261 8.80136 8.3667C10.5132 8.92608 11.9801 10.1061 12.932 11.7517C12.976 11.8277 12.9992 11.9138 12.9993 12.0016C12.9994 12.0894 12.9764 12.1756 12.9326 12.2517Z" fill="var(--fill-0, #7D8497)"/>
</svg>
