<svg preserveAspectRatio="none" width="100%" height="100%" overflow="visible" style="display: block;" viewBox="0 0 14 14" fill="none" xmlns="http://www.w3.org/2000/svg">
<path id="Vector" d="M13.5 1.125V12.375C13.5 12.6734 13.3815 12.9595 13.1705 13.1705C12.9595 13.3815 12.6734 13.5 12.375 13.5H1.125C0.826631 13.5 0.540483 13.3815 0.329505 13.1705C0.118526 12.9595 0 12.6734 0 12.375V1.125C0 0.826631 0.118526 0.540483 0.329505 0.329505C0.540483 0.118526 0.826631 0 1.125 0H12.375C12.6734 0 12.9595 0.118526 13.1705 0.329505C13.3815 0.540483 13.5 0.826631 13.5 1.125ZM12.375 12.375V1.125H1.125V12.375H12.375Z" fill="var(--fill-0, #7D8497)"/>
</svg>
