<svg preserveAspectRatio="none" width="100%" height="100%" overflow="visible" style="display: block;" viewBox="0 0 15 12" fill="none" xmlns="http://www.w3.org/2000/svg">
<path id="Subtract" fill-rule="evenodd" clip-rule="evenodd" d="M0.704382 0.457134C0.704382 0.204666 0.916184 0 1.17745 0C1.99906 0 2.78415 0.258667 3.34962 0.682924C3.91185 1.10475 4.31437 1.74443 4.17902 2.47905C3.98135 3.5518 3.06088 4.07921 2.37192 4.47397L2.31084 4.50895C1.95936 4.71021 1.65849 4.88248 1.41706 5.08538C1.17487 5.28893 1.02465 5.49814 0.967139 5.75596C0.916041 5.98504 0.960048 6.12196 1.06382 6.24363C1.16464 6.36185 1.34405 6.48954 1.64123 6.6229C1.80516 6.33812 2.00652 6.06975 2.25948 5.81785C2.89887 5.18106 3.65796 4.676 4.49338 4.33137C5.32886 3.98683 6.22424 3.80945 7.12849 3.80945C7.71172 3.80945 8.29126 3.88326 8.85344 4.0281C9.20953 3.64448 9.72644 3.40311 10.3017 3.40311C11.3758 3.40311 12.2466 4.24456 12.2466 5.28244C12.2466 5.42371 12.2304 5.56131 12.1999 5.69364C12.2458 5.73452 12.29 5.77598 12.3323 5.81805C12.9717 6.45474 13.4789 7.21068 13.825 8.04261L14.2142 9.33333C14.5475 10.6667 13.1723 12 11.7208 12H3.20548C1.75397 12 0.880859 10.9548 0.880859 9.66667C0.880859 9.44476 1.00003 8.45425 1.1016 8.04261C1.15063 7.84386 1.20524 7.65086 1.26838 7.46363C0.885461 7.29461 0.560229 7.09073 0.33367 6.82508C0.0234266 6.46131 -0.0619389 6.03035 0.0422355 5.56332C0.155691 5.05468 0.453212 4.68374 0.79616 4.39552C1.10516 4.13583 1.47658 3.92354 1.80633 3.73506L1.87946 3.69322C2.63062 3.2628 3.1356 2.92621 3.24752 2.31878C3.30085 2.02933 3.15997 1.69813 2.76938 1.40508C2.38202 1.11446 1.80486 0.914269 1.17745 0.914269C0.916184 0.914269 0.704382 0.709603 0.704382 0.457134ZM11.6163 10.4252C12.0227 10.4252 12.3521 10.1069 12.3521 9.71413C12.3521 9.3214 12.0227 9.00303 11.6163 9.00303C11.2098 9.00303 10.8804 9.3214 10.8804 9.71413C10.8804 10.1069 11.2098 10.4252 11.6163 10.4252Z" fill="var(--fill-0, #7D8497)"/>
</svg>
