<svg preserveAspectRatio="none" width="100%" height="100%" overflow="visible" style="display: block;" viewBox="0 0 9 8" fill="none" xmlns="http://www.w3.org/2000/svg">
<path id="Vector" d="M8.29042 5.72456L6.91475 7.16183C6.88485 7.19306 6.84866 7.21795 6.80845 7.23496C6.76825 7.25197 6.72487 7.26074 6.68104 7.26072H0.159705C0.128588 7.26072 0.0981493 7.25186 0.0721288 7.23524C0.046108 7.21862 0.0256386 7.19495 0.0132356 7.16715C0.000832698 7.13935 -0.00296354 7.10862 0.00231338 7.07875C0.00759029 7.04887 0.0217105 7.02115 0.0429391 6.99899L1.41964 5.56171C1.44947 5.53057 1.48554 5.50573 1.52561 5.48872C1.56569 5.47171 1.60893 5.4629 1.65265 5.46283H8.17362C8.20474 5.46283 8.23518 5.47169 8.26122 5.4883C8.28721 5.50493 8.30767 5.5286 8.32013 5.5564C8.3325 5.5842 8.3363 5.61492 8.33102 5.6448C8.32574 5.67467 8.31163 5.7024 8.29042 5.72456ZM6.91475 2.83029C6.88485 2.79907 6.84866 2.77418 6.80845 2.75717C6.76825 2.74016 6.72487 2.73139 6.68104 2.73142H0.159705C0.128588 2.73142 0.0981493 2.74027 0.0721288 2.7569C0.046108 2.77352 0.0256386 2.79718 0.0132356 2.82498C0.000832698 2.85279 -0.00296354 2.88351 0.00231338 2.91339C0.00759029 2.94326 0.0217105 2.97098 0.0429391 2.99315L1.41964 4.43043C1.44947 4.46156 1.48554 4.4864 1.52561 4.50341C1.56569 4.52042 1.60893 4.52924 1.65265 4.5293H8.17362C8.20474 4.5293 8.23518 4.52045 8.26122 4.50382C8.28721 4.4872 8.30767 4.46354 8.32013 4.43574C8.3325 4.40793 8.3363 4.37721 8.33102 4.34733C8.32574 4.31746 8.31163 4.28974 8.29042 4.26757L6.91475 2.83029ZM0.159705 1.79789H6.68104C6.72487 1.79791 6.76825 1.78915 6.80845 1.77214C6.84866 1.75512 6.88485 1.73023 6.91475 1.69901L8.29042 0.261732C8.31163 0.239568 8.32574 0.211846 8.33102 0.181972C8.3363 0.152097 8.3325 0.121372 8.32013 0.0935709C8.30767 0.0657698 8.28721 0.0421036 8.26122 0.0254804C8.23518 0.00885717 8.20474 1.02371e-06 8.17362 0H1.65265C1.60893 7.24749e-05 1.56569 0.00888605 1.52561 0.025895C1.48554 0.0429041 1.44947 0.0677464 1.41964 0.0988844L0.0432939 1.53616C0.0220859 1.5583 0.00797192 1.586 0.00268304 1.61583C-0.00260585 1.64568 0.00116026 1.67638 0.0135195 1.70417C0.0258787 1.73195 0.0462938 1.75562 0.072261 1.77227C0.0982285 1.78892 0.128619 1.79782 0.159705 1.79789Z" fill="var(--fill-0, white)"/>
</svg>
