<svg preserveAspectRatio="none" width="100%" height="100%" overflow="visible" style="display: block;" viewBox="0 0 14 17" fill="none" xmlns="http://www.w3.org/2000/svg">
<path id="Vector" d="M11.2414 10.7296C11.0793 11.6348 10.6438 12.4687 9.99347 13.1189C9.34313 13.7691 8.50918 14.2044 7.60391 14.3663C7.56954 14.3718 7.5348 14.3747 7.5 14.3749C7.34322 14.3748 7.19219 14.3159 7.07685 14.2097C6.96151 14.1035 6.89029 13.9579 6.87731 13.8016C6.86433 13.6454 6.91054 13.49 7.00678 13.3662C7.10302 13.2424 7.24225 13.1594 7.39687 13.1335C8.69141 12.9155 9.78984 11.8171 10.0094 10.5202C10.0371 10.3567 10.1287 10.2109 10.2639 10.115C10.3992 10.019 10.567 9.9807 10.7305 10.0085C10.894 10.0362 11.0397 10.1278 11.1357 10.263C11.2316 10.3983 11.27 10.5661 11.2422 10.7296H11.2414ZM13.75 9.99987C13.75 11.8232 13.0257 13.5719 11.7364 14.8612C10.447 16.1505 8.69836 16.8749 6.875 16.8749C5.05164 16.8749 3.30295 16.1505 2.01364 14.8612C0.724328 13.5719 0 11.8232 0 9.99987C0 7.81862 0.859375 5.58815 2.55156 3.37097C2.60513 3.30076 2.67296 3.2427 2.75059 3.20062C2.82823 3.15853 2.9139 3.13338 3.00196 3.12681C3.09002 3.12024 3.17847 3.13241 3.26149 3.16251C3.34451 3.1926 3.42021 3.23996 3.48359 3.30144L5.36797 5.13034L7.08672 0.410811C7.12106 0.316681 7.17752 0.232187 7.25136 0.164451C7.32519 0.0967148 7.41423 0.047723 7.51096 0.0216057C7.60769 -0.00451168 7.70929 -0.00698906 7.80718 0.0143825C7.90507 0.035754 7.99639 0.080348 8.07344 0.144405C9.78203 1.56237 13.75 5.35534 13.75 9.99987ZM12.5 9.99987C12.5 6.39909 9.70391 3.28737 7.95234 1.69284L6.2125 6.46394C6.17679 6.56193 6.11713 6.64943 6.03895 6.71846C5.96077 6.78749 5.86655 6.83586 5.76489 6.85916C5.66323 6.88246 5.55736 6.87994 5.45692 6.85185C5.35648 6.82376 5.26466 6.77097 5.18984 6.69831L3.12969 4.69987C1.88203 6.50066 1.25 8.28112 1.25 9.99987C1.25 11.4917 1.84263 12.9225 2.89752 13.9773C3.95242 15.0322 5.38316 15.6249 6.875 15.6249C8.36684 15.6249 9.79758 15.0322 10.8525 13.9773C11.9074 12.9225 12.5 11.4917 12.5 9.99987Z" fill="var(--fill-0, white)"/>
</svg>
