<svg preserveAspectRatio="none" width="100%" height="100%" overflow="visible" style="display: block;" viewBox="0 0 8 8" fill="none" xmlns="http://www.w3.org/2000/svg">
<path id="Vector" d="M7.1875 0H2.1875C2.10462 0 2.02513 0.0329241 1.96653 0.0915292C1.90792 0.150134 1.875 0.22962 1.875 0.3125V1.875H0.3125C0.22962 1.875 0.150134 1.90792 0.0915292 1.96653C0.0329241 2.02513 0 2.10462 0 2.1875V7.1875C0 7.27038 0.0329241 7.34987 0.0915292 7.40847C0.150134 7.46708 0.22962 7.5 0.3125 7.5H5.3125C5.39538 7.5 5.47487 7.46708 5.53347 7.40847C5.59208 7.34987 5.625 7.27038 5.625 7.1875V5.625H7.1875C7.27038 5.625 7.34987 5.59208 7.40847 5.53347C7.46708 5.47487 7.5 5.39538 7.5 5.3125V0.3125C7.5 0.22962 7.46708 0.150134 7.40847 0.0915292C7.34987 0.0329241 7.27038 0 7.1875 0ZM6.875 5H5.625V2.1875C5.625 2.10462 5.59208 2.02513 5.53347 1.96653C5.47487 1.90792 5.39538 1.875 5.3125 1.875H2.5V0.625H6.875V5Z" fill="var(--fill-0, #7D8497)"/>
</svg>
