<svg preserveAspectRatio="none" width="100%" height="100%" overflow="visible" style="display: block;" viewBox="0 0 68 68" fill="none" xmlns="http://www.w3.org/2000/svg">
<g id="Group 77">
<path id="Ellipse 1" d="M68 34C68 52.7777 52.7777 68 34 68C15.2223 68 0 52.7777 0 34C0 15.2223 15.2223 0 34 0C52.7777 0 68 15.2223 68 34ZM2.99796 34C2.99796 51.122 16.878 65.002 34 65.002C51.122 65.002 65.002 51.122 65.002 34C65.002 16.878 51.122 2.99796 34 2.99796C16.878 2.99796 2.99796 16.878 2.99796 34Z" fill="var(--fill-0, #252B39)"/>
<path id="Ellipse 2" d="M68 34C68 52.7777 52.7777 68 34 68C15.2223 68 0 52.7777 0 34C0 15.2223 15.2223 0 34 0C52.7777 0 68 15.2223 68 34ZM2.9988 34C2.9988 51.1215 16.8785 65.0012 34 65.0012C51.1215 65.0012 65.0012 51.1215 65.0012 34C65.0012 16.8785 51.1215 2.9988 34 2.9988C16.8785 2.9988 2.9988 16.8785 2.9988 34Z" fill="var(--fill-0, #FBBF24)"/>
</g>
</svg>
