<svg preserveAspectRatio="none" width="100%" height="100%" overflow="visible" style="display: block;" viewBox="0 0 10 10" fill="none" xmlns="http://www.w3.org/2000/svg">
<path id="Subtract" fill-rule="evenodd" clip-rule="evenodd" d="M2.48082 5.3101L0.176621 4.40307C-0.0574028 4.31056 -0.0594341 3.9621 0.173925 3.86718L9.63044 0.0197053C9.83091 -0.0620735 10.0378 0.123175 9.99411 0.345214L8.29708 8.95459C8.25708 9.15786 8.0311 9.25004 7.87161 9.12777L5.555 7.35391C5.4143 7.24617 5.22252 7.25194 5.08789 7.36765L3.8035 8.47197C3.6544 8.60053 3.42977 8.52891 3.3727 8.33517L2.48082 5.3101ZM7.73188 1.90182L3.22862 4.82703C3.05602 4.93939 2.97475 5.15921 3.03051 5.36504L3.51741 7.16942C3.55198 7.29728 3.72795 7.28418 3.74471 7.15206L3.87131 6.16255C3.89518 5.97626 3.97946 5.80462 4.11008 5.67637L7.82659 2.03281C7.89608 1.96481 7.81282 1.84939 7.73188 1.90182Z" fill="var(--fill-0, #C4C7CF)"/>
</svg>
