<svg preserveAspectRatio="none" width="100%" height="100%" overflow="visible" style="display: block;" viewBox="0 0 14 10" fill="none" xmlns="http://www.w3.org/2000/svg">
<path id="Vector" d="M7.77604 4.72376C7.77604 5.33506 7.27588 5.83521 6.66458 5.83521C6.05328 5.83521 5.55312 5.33506 5.55312 4.72376C5.55312 4.11245 6.05328 3.6123 6.66458 3.6123C7.27588 3.6123 7.77604 4.11245 7.77604 4.72376ZM11.7608 0.410821C11.5619 0.175846 11.2065 0.177563 10.9895 0.39602V0.39602C10.7737 0.613388 10.7769 0.962815 10.9711 1.19974C12.6425 3.23928 12.6425 6.19712 10.9711 8.23666C10.7771 8.47334 10.7746 8.82261 10.9909 9.03899V9.03899C11.2073 9.25537 11.5604 9.25646 11.7583 9.02302C13.8575 6.5461 13.8583 2.88869 11.7608 0.410821ZM9.02365 2.36469C8.80727 2.58106 8.81306 2.92954 8.98232 3.18448C9.28186 3.63564 9.44323 4.16729 9.44323 4.72376C9.44323 5.28134 9.28122 5.81088 8.98052 6.26339C8.81134 6.51798 8.80648 6.86565 9.02262 7.08179V7.08179C9.23957 7.29874 9.59514 7.3008 9.77945 7.05551C10.282 6.38674 10.5547 5.57579 10.5547 4.72376C10.5547 3.87122 10.2817 3.05983 9.77857 2.39083C9.59466 2.14626 9.24003 2.14831 9.02365 2.36469V2.36469ZM2.3412 0.405972C2.1237 0.185388 1.76579 0.183231 1.56608 0.420043C-0.523718 2.89814 -0.522026 6.5573 1.57116 9.03348C1.76875 9.26723 2.12201 9.26633 2.33844 9.0499V9.0499C2.5547 8.83364 2.55214 8.48455 2.35827 8.248C0.686596 6.20839 0.686593 3.25025 2.35826 1.21063C2.55254 0.973598 2.55638 0.624206 2.3412 0.405972V0.405972ZM4.3069 2.36886C4.08998 2.1504 3.73288 2.14785 3.54838 2.39429C2.51758 3.77112 2.51836 5.68035 3.55073 7.05636C3.73438 7.30113 4.08913 7.29921 4.30551 7.08283V7.08283C4.52189 6.86645 4.51605 6.51793 4.34671 6.26306C3.7305 5.33562 3.73049 4.11746 4.3467 3.19002C4.51622 2.93487 4.52273 2.58623 4.3069 2.36886V2.36886Z" fill="var(--fill-0, white)"/>
</svg>
