<svg preserveAspectRatio="none" width="100%" height="100%" overflow="visible" style="display: block;" viewBox="0 0 14 15" fill="none" xmlns="http://www.w3.org/2000/svg">
<path id="Vector" d="M0.194062 1.26499C0.133548 1.31744 0.0849322 1.38221 0.0514652 1.45497C0.0179981 1.52772 0.000451881 1.60678 0 1.68686V13.4994C0 13.6485 0.0592633 13.7916 0.164753 13.8971C0.270242 14.0026 0.413316 14.0619 0.5625 14.0619C0.711684 14.0619 0.854758 14.0026 0.960247 13.8971C1.06574 13.7916 1.125 13.6485 1.125 13.4994V10.3894C3.00867 8.90163 4.63148 9.70389 6.50039 10.6292C7.65352 11.1994 8.89523 11.814 10.227 11.814C11.2064 11.814 12.2337 11.48 13.308 10.5483C13.3686 10.4959 13.4172 10.4311 13.4506 10.3584C13.4841 10.2856 13.5017 10.2066 13.5021 10.1265V1.68686C13.5019 1.5789 13.4705 1.47328 13.4119 1.38263C13.3532 1.29198 13.2697 1.22013 13.1714 1.17565C13.073 1.13117 12.9639 1.11594 12.8571 1.13178C12.7503 1.14762 12.6503 1.19386 12.5691 1.26499C10.6003 2.96866 8.9325 2.14319 6.99961 1.18624C4.99711 0.193426 2.72672 -0.929465 0.194062 1.26499ZM12.375 9.86069C10.4913 11.3485 8.86852 10.5455 6.99961 9.62093C5.2418 8.75257 3.28641 7.78366 1.125 9.0303V1.95335C3.00867 0.465535 4.63148 1.2678 6.50039 2.19241C8.2582 3.06077 10.2143 4.02968 12.375 2.78303V9.86069Z" fill="var(--fill-0, #7D8497)"/>
</svg>
