<svg preserveAspectRatio="none" width="100%" height="100%" overflow="visible" style="display: block;" viewBox="0 0 14 12" fill="none" xmlns="http://www.w3.org/2000/svg">
<path id="Vector" d="M0.5625 2.81691H2.88281C3.00673 3.3009 3.28821 3.72987 3.68286 4.03621C4.07752 4.34255 4.5629 4.50882 5.0625 4.50882C5.5621 4.50882 6.04748 4.34255 6.44214 4.03621C6.83679 3.72987 7.11827 3.3009 7.24219 2.81691H12.9375C13.0867 2.81691 13.2298 2.75765 13.3352 2.65216C13.4407 2.54667 13.5 2.4036 13.5 2.25441C13.5 2.10523 13.4407 1.96215 13.3352 1.85666C13.2298 1.75118 13.0867 1.69191 12.9375 1.69191H7.24219C7.11827 1.20793 6.83679 0.778953 6.44214 0.472615C6.04748 0.166276 5.5621 0 5.0625 0C4.5629 0 4.07752 0.166276 3.68286 0.472615C3.28821 0.778953 3.00673 1.20793 2.88281 1.69191H0.5625C0.413316 1.69191 0.270242 1.75118 0.164753 1.85666C0.0592633 1.96215 0 2.10523 0 2.25441C0 2.4036 0.0592633 2.54667 0.164753 2.65216C0.270242 2.75765 0.413316 2.81691 0.5625 2.81691ZM5.0625 1.12941C5.285 1.12941 5.50251 1.19539 5.68752 1.31901C5.87252 1.44263 6.01672 1.61833 6.10186 1.82389C6.18701 2.02946 6.20929 2.25566 6.16588 2.47389C6.12248 2.69212 6.01533 2.89257 5.85799 3.04991C5.70066 3.20724 5.50021 3.31439 5.28198 3.3578C5.06375 3.4012 4.83755 3.37893 4.63198 3.29378C4.42641 3.20863 4.25071 3.06443 4.1271 2.87943C4.00348 2.69442 3.9375 2.47692 3.9375 2.25441C3.9375 1.95604 4.05603 1.6699 4.26701 1.45892C4.47798 1.24794 4.76413 1.12941 5.0625 1.12941ZM12.9375 8.44191H11.7422C11.6183 7.95793 11.3368 7.52895 10.9421 7.22261C10.5475 6.91628 10.0621 6.75 9.5625 6.75C9.0629 6.75 8.57752 6.91628 8.18286 7.22261C7.78821 7.52895 7.50673 7.95793 7.38281 8.44191H0.5625C0.413316 8.44191 0.270242 8.50117 0.164753 8.60666C0.0592633 8.71215 0 8.85523 0 9.00441C0 9.1536 0.0592633 9.29667 0.164753 9.40216C0.270242 9.50765 0.413316 9.56691 0.5625 9.56691H7.38281C7.50673 10.0509 7.78821 10.4799 8.18286 10.7862C8.57752 11.0925 9.0629 11.2588 9.5625 11.2588C10.0621 11.2588 10.5475 11.0925 10.9421 10.7862C11.3368 10.4799 11.6183 10.0509 11.7422 9.56691H12.9375C13.0867 9.56691 13.2298 9.50765 13.3352 9.40216C13.4407 9.29667 13.5 9.1536 13.5 9.00441C13.5 8.85523 13.4407 8.71215 13.3352 8.60666C13.2298 8.50117 13.0867 8.44191 12.9375 8.44191ZM9.5625 10.1294C9.34 10.1294 9.12249 10.0634 8.93748 9.93981C8.75248 9.8162 8.60828 9.6405 8.52314 9.43493C8.43799 9.22936 8.41571 9.00316 8.45912 8.78494C8.50252 8.56671 8.60967 8.36625 8.76701 8.20892C8.92434 8.05158 9.12479 7.94444 9.34302 7.90103C9.56125 7.85762 9.78745 7.8799 9.99302 7.96505C10.1986 8.0502 10.3743 8.19439 10.4979 8.37939C10.6215 8.5644 10.6875 8.78191 10.6875 9.00441C10.6875 9.30278 10.569 9.58893 10.358 9.79991C10.147 10.0109 9.86087 10.1294 9.5625 10.1294Z" fill="var(--fill-0, #7D8497)"/>
</svg>
