<svg preserveAspectRatio="none" width="100%" height="100%" overflow="visible" style="display: block;" viewBox="0 0 14 13" fill="none" xmlns="http://www.w3.org/2000/svg">
<path id="Vector" d="M13.9992 5.49881C13.9982 4.57085 13.6291 3.68119 12.9729 3.02503C12.3168 2.36887 11.4271 1.9998 10.4992 1.9988C10.3885 1.9988 10.2779 2.00505 10.1685 2.01505C9.88632 1.41273 9.43833 0.903294 8.87701 0.546417C8.3157 0.18954 7.66431 0 6.99916 0C6.334 0 5.68261 0.18954 5.1213 0.546417C4.55999 0.903294 4.11199 1.41273 3.82978 2.01505C3.72041 2.00505 3.60978 1.9988 3.49916 1.9988C2.70464 1.999 1.93384 2.26951 1.31345 2.76586C0.693063 3.26222 0.260012 3.95488 0.0854879 4.72999C-0.0890366 5.50509 0.0053508 6.31652 0.353134 7.03087C0.700917 7.74522 1.2814 8.31998 1.99916 8.66068V11.4988C1.99916 11.764 2.10451 12.0184 2.29205 12.2059C2.47958 12.3934 2.73394 12.4988 2.99916 12.4988H10.9992C11.2644 12.4988 11.5187 12.3934 11.7063 12.2059C11.8938 12.0184 11.9992 11.764 11.9992 11.4988V8.66068C12.5971 8.37631 13.1023 7.92842 13.4562 7.36885C13.8102 6.80928 13.9984 6.16092 13.9992 5.49881ZM8.51416 7.37755L9.01416 5.37755C9.04813 5.25091 9.1305 5.14268 9.24351 5.07618C9.35652 5.00969 9.49114 4.99024 9.61834 5.02205C9.74555 5.05385 9.85518 5.13435 9.9236 5.24621C9.99203 5.35806 10.0138 5.49232 9.98415 5.62006L9.48415 7.62006C9.45712 7.72822 9.3947 7.82425 9.30682 7.89288C9.21895 7.9615 9.11065 7.99879 8.99916 7.99881C8.95807 7.99875 8.91715 7.99371 8.87728 7.9838C8.74878 7.95149 8.63835 7.8695 8.57027 7.75582C8.50218 7.64215 8.482 7.5061 8.51416 7.37755ZM6.49916 5.49881C6.49916 5.3662 6.55183 5.23902 6.6456 5.14525C6.73937 5.05148 6.86655 4.99881 6.99916 4.99881C7.13176 4.99881 7.25894 5.05148 7.35271 5.14525C7.44648 5.23902 7.49916 5.3662 7.49916 5.49881V7.49881C7.49916 7.63141 7.44648 7.75859 7.35271 7.85236C7.25894 7.94613 7.13176 7.99881 6.99916 7.99881C6.86655 7.99881 6.73937 7.94613 6.6456 7.85236C6.55183 7.75859 6.49916 7.63141 6.49916 7.49881V5.49881ZM4.37791 5.0138C4.50653 4.98167 4.64266 5.00193 4.75635 5.07015C4.87004 5.13836 4.95198 5.24894 4.98416 5.37755L5.48416 7.37755C5.51629 7.50618 5.49603 7.64231 5.42781 7.756C5.3596 7.86969 5.24903 7.95163 5.12041 7.9838C5.07952 7.99397 5.03753 7.99901 4.99541 7.99881C4.88402 7.99865 4.77587 7.9613 4.68812 7.89269C4.60037 7.82407 4.53804 7.72812 4.51103 7.62006L4.01103 5.62006C3.99517 5.55615 3.99208 5.48975 4.00195 5.42465C4.01181 5.35955 4.03444 5.29705 4.06853 5.24072C4.10262 5.18439 4.1475 5.13535 4.20059 5.09641C4.25368 5.05747 4.31394 5.02939 4.37791 5.0138ZM10.9992 11.4988H2.99916V8.96255C3.16473 8.98668 3.33183 8.9988 3.49916 8.99881H10.4992C10.6665 8.9988 10.8336 8.98668 10.9992 8.96255V11.4988Z" fill="var(--fill-0, #7D8497)"/>
</svg>
