<svg preserveAspectRatio="none" width="100%" height="100%" overflow="visible" style="display: block;" viewBox="0 0 13 13" fill="none" xmlns="http://www.w3.org/2000/svg">
<path id="Vector" d="M13 6.49733C13.0002 7.61954 12.7099 8.7227 12.1574 9.69943C11.6048 10.6762 10.8087 11.4932 9.84669 12.071C8.88466 12.6488 7.78942 12.9677 6.66759 12.9966C5.54575 13.0255 4.43554 12.7635 3.445 12.2361L1.31687 12.9455C1.14068 13.0042 0.951599 13.0127 0.770829 12.9701C0.590059 12.9274 0.424742 12.8353 0.293407 12.7039C0.162072 12.5726 0.0699091 12.4073 0.0272484 12.2265C-0.0154122 12.0457 -0.00688479 11.8567 0.0518748 11.6805L0.76125 9.55233C0.297593 8.6806 0.0386232 7.7147 0.00399834 6.72794C-0.0306265 5.74118 0.160003 4.7595 0.561418 3.85742C0.962833 2.95533 1.56448 2.15655 2.3207 1.5217C3.07691 0.886857 3.96782 0.432632 4.92579 0.193506C5.88376 -0.0456203 6.88362 -0.0633622 7.84948 0.141627C8.81533 0.346615 9.72179 0.768947 10.5001 1.37657C11.2783 1.98418 11.9079 2.76112 12.3411 3.64839C12.7743 4.53567 12.9996 5.50997 13 6.49733Z" fill="var(--fill-0, #7D8497)"/>
</svg>
