<svg preserveAspectRatio="none" width="100%" height="100%" overflow="visible" style="display: block;" viewBox="0 0 14 14" fill="none" xmlns="http://www.w3.org/2000/svg">
<path id="Vector" d="M13.5 6.5H12.9788C12.8588 5.08715 12.243 3.76225 11.2404 2.75962C10.2377 1.75699 8.91285 1.14123 7.5 1.02125V0.5C7.5 0.367392 7.44732 0.240215 7.35355 0.146447C7.25979 0.0526784 7.13261 0 7 0C6.86739 0 6.74021 0.0526784 6.64645 0.146447C6.55268 0.240215 6.5 0.367392 6.5 0.5V1.02125C5.08715 1.14123 3.76225 1.75699 2.75962 2.75962C1.75699 3.76225 1.14123 5.08715 1.02125 6.5H0.5C0.367392 6.5 0.240215 6.55268 0.146447 6.64645C0.0526784 6.74021 0 6.86739 0 7C0 7.13261 0.0526784 7.25979 0.146447 7.35355C0.240215 7.44732 0.367392 7.5 0.5 7.5H1.02125C1.14123 8.91285 1.75699 10.2377 2.75962 11.2404C3.76225 12.243 5.08715 12.8588 6.5 12.9788V13.5C6.5 13.6326 6.55268 13.7598 6.64645 13.8536C6.74021 13.9473 6.86739 14 7 14C7.13261 14 7.25979 13.9473 7.35355 13.8536C7.44732 13.7598 7.5 13.6326 7.5 13.5V12.9788C8.91285 12.8588 10.2377 12.243 11.2404 11.2404C12.243 10.2377 12.8588 8.91285 12.9788 7.5H13.5C13.6326 7.5 13.7598 7.44732 13.8536 7.35355C13.9473 7.25979 14 7.13261 14 7C14 6.86739 13.9473 6.74021 13.8536 6.64645C13.7598 6.55268 13.6326 6.5 13.5 6.5ZM11.5 7.5H11.975C11.858 8.64695 11.3489 9.71843 10.5337 10.5337C9.71843 11.3489 8.64695 11.858 7.5 11.975V11.5C7.5 11.3674 7.44732 11.2402 7.35355 11.1464C7.25979 11.0527 7.13261 11 7 11C6.86739 11 6.74021 11.0527 6.64645 11.1464C6.55268 11.2402 6.5 11.3674 6.5 11.5V11.975C5.35305 11.858 4.28157 11.3489 3.46634 10.5337C2.65111 9.71843 2.14203 8.64695 2.025 7.5H2.5C2.63261 7.5 2.75979 7.44732 2.85355 7.35355C2.94732 7.25979 3 7.13261 3 7C3 6.86739 2.94732 6.74021 2.85355 6.64645C2.75979 6.55268 2.63261 6.5 2.5 6.5H2.025C2.14203 5.35305 2.65111 4.28157 3.46634 3.46634C4.28157 2.65111 5.35305 2.14203 6.5 2.025V2.5C6.5 2.63261 6.55268 2.75979 6.64645 2.85355C6.74021 2.94732 6.86739 3 7 3C7.13261 3 7.25979 2.94732 7.35355 2.85355C7.44732 2.75979 7.5 2.63261 7.5 2.5V2.025C8.64695 2.14203 9.71843 2.65111 10.5337 3.46634C11.3489 4.28157 11.858 5.35305 11.975 6.5H11.5C11.3674 6.5 11.2402 6.55268 11.1464 6.64645C11.0527 6.74021 11 6.86739 11 7C11 7.13261 11.0527 7.25979 11.1464 7.35355C11.2402 7.44732 11.3674 7.5 11.5 7.5ZM9.5 7C9.5 7.49445 9.35338 7.9778 9.07867 8.38893C8.80397 8.80005 8.41352 9.12048 7.95671 9.3097C7.49989 9.49892 6.99723 9.54843 6.51227 9.45196C6.02732 9.3555 5.58186 9.1174 5.23223 8.76777C4.8826 8.41814 4.6445 7.97268 4.54804 7.48773C4.45157 7.00277 4.50108 6.50011 4.6903 6.04329C4.87952 5.58648 5.19995 5.19603 5.61107 4.92133C6.0222 4.64662 6.50555 4.5 7 4.5C7.66304 4.5 8.29893 4.76339 8.76777 5.23223C9.23661 5.70107 9.5 6.33696 9.5 7Z" fill="var(--fill-0, #7D8497)"/>
</svg>
