<svg preserveAspectRatio="none" width="100%" height="100%" overflow="visible" style="display: block;" viewBox="0 0 24 24" fill="none" xmlns="http://www.w3.org/2000/svg">
<g id="Frame 187">
<rect width="24" height="24" rx="12" fill="var(--fill-0, #222835)"/>
<path id="Subtract" fill-rule="evenodd" clip-rule="evenodd" d="M9.25662 12.7827L6.74734 11.7949C6.49249 11.6942 6.49028 11.3147 6.74441 11.2114L17.0425 7.02146C17.2609 6.9324 17.4861 7.13414 17.4386 7.37594L15.5905 16.7515C15.547 16.9729 15.3009 17.0733 15.1272 16.9401L12.6044 15.0084C12.4512 14.8911 12.2423 14.8974 12.0957 15.0234L10.697 16.226C10.5346 16.366 10.29 16.288 10.2279 16.077L9.25662 12.7827ZM14.975 9.07108L10.071 12.2566C9.883 12.379 9.7945 12.6184 9.85523 12.8425L10.3855 14.8075C10.4231 14.9467 10.6147 14.9325 10.633 14.7886L10.7709 13.711C10.7968 13.5081 10.8886 13.3212 11.0309 13.1816L15.0782 9.21373C15.1538 9.13968 15.0632 9.01399 14.975 9.07108Z" fill="var(--fill-0, #CAD0DD)"/>
</g>
</svg>
