<svg preserveAspectRatio="none" width="100%" height="100%" overflow="visible" style="display: block;" viewBox="0 0 10 8" fill="none" xmlns="http://www.w3.org/2000/svg">
<g id="XMLID_184_">
<path id="Vector" d="M9.79083 1.1C9.67583 0.667083 9.33708 0.325833 8.90667 0.21C8.12708 7.45058e-08 5 0 5 0C5 0 1.87292 7.45058e-08 1.09292 0.21C0.662917 0.325833 0.324167 0.666667 0.209167 1.1C0 1.885 0 3.5225 0 3.5225C0 3.5225 0 5.16 0.209167 5.945C0.324167 6.37792 0.662917 6.71917 1.09333 6.835C1.87292 7.045 5 7.045 5 7.045C5 7.045 8.12708 7.045 8.90708 6.835C9.33708 6.71917 9.67583 6.37833 9.79125 5.945C10 5.16 10 3.5225 10 3.5225C10 3.5225 10 1.885 9.79083 1.1ZM3.9775 5.00958V2.03542L6.59083 3.5225L3.9775 5.00958Z" fill="var(--fill-0, #C3C7CF)"/>
</g>
</svg>
