<svg width="36" height="36" viewBox="0 0 36 36" fill="none" xmlns="http://www.w3.org/2000/svg">
    <g clip-path="url(#clip0_905_16682)">
        <path d="M17.4866 9.90046L11.7149 12.9326L9.0376 8.43238L12.4426 4.95897L15.7314 5.35116L17.4866 9.90046Z"
            fill="#FBBF24" />
        <path d="M3.83882 12.763L3.20557 9.29172L8.08165 5.82041L8.15359 8.31486L3.83882 12.763Z" fill="#FBBF24" />
        <path d="M6.80119 20.6727L11.2113 13.3573L8.54934 8.651L3.88745 13.5558L6.80119 20.6727Z" fill="#FCD56E" />
        <path
            d="M7.37329 20.7152L11.2536 20.5033C10.9263 18.2847 11.7149 16.9654 11.7149 16.9654L11.4961 14.0171L7.37329 20.7152Z"
            fill="#FBBF24" />
        <path
            d="M6.19682 20.7355L4.48535 20.9551C4.32184 17.9054 3.45874 16.6401 3.45874 16.6401L3.64935 14.2633L6.19682 20.7355Z"
            fill="#FBBF24" />
        <path d="M7.69995 25.8379L9.71462 31.2536L18.98 28.6856L7.69995 25.8379Z" fill="#FBBF24" />
        <path
            d="M19.2049 28.1778L16.8205 24.8651C16.8205 24.8651 12.7743 24.6635 11.3826 21.0752L7.06763 21.3256L7.56656 25.1781L19.2049 28.1778Z"
            fill="#FBBF24" />
        <path d="M14.3987 14.2907L12.1365 13.8534L12.3103 15.9688C12.3105 15.9685 12.819 14.9494 14.3987 14.2907Z"
            fill="#FBBF24" />
        <path d="M1.95093 14.8746L3.14408 14.1304L2.95815 15.8861C2.95815 15.8861 2.61735 15.2059 1.95093 14.8746Z"
            fill="#FBBF24" />
        <path
            d="M1.44315 14.5343L3.32841 13.3423L2.77108 9.7054L0.293213 14.3484C0.293213 14.3484 0.930665 14.2636 1.44315 14.5343Z"
            fill="#FBBF24" />
        <path d="M1.2724 26.1958L1.12431 24.6744C0.616263 24.3224 0.368896 24.0578 0.368896 24.0578L1.2724 26.1958Z"
            fill="#FBBF24" />
        <path d="M20.5297 30.5248L19.707 28.982L10.4949 31.6617L20.5297 30.5248Z" fill="#FBBF24" />
        <path
            d="M19.8755 28.1313L27.1052 22.8819C27.1052 22.8819 25.4935 21.9042 25.5479 19.2298L24.6815 19.2091L24.2587 19.6281C23.1868 24.7595 17.5803 24.8118 17.5803 24.8118L19.8755 28.1313Z"
            fill="#FBBF24" />
        <path d="M18.1409 9.56711L21.013 6.71597L16.4983 5.47938L18.1409 9.56711Z" fill="#FBBF24" />
        <path d="M8.776 7.92363L11.7621 4.95897L8.67603 5.63683L8.776 7.92363Z" fill="#FBBF24" />
        <path d="M32.84 10.5802L35.9999 8.41555L30.9797 7.6578L32.84 10.5802Z" fill="#FBBF24" />
        <path d="M30.7037 7.12825L35.933 8.00093L29.9707 6.1834L30.7037 7.12825Z" fill="#FBBF24" />
        <path d="M18.7117 9.81914L24.4541 9.00346L21.5677 7.01192L18.7117 9.81914Z" fill="#FBBF24" />
        <path d="M22.1323 6.69729L25.3084 8.89462L30.155 7.28265L29.4321 6.1834L22.1323 6.69729Z" fill="#FBBF24" />
        <path d="M18.9209 10.3964L26.2741 16.2108L24.7042 9.56713L18.9209 10.3964Z" fill="#FBBF24" />
        <path
            d="M26.2572 16.9332L17.8913 10.4926L12.3804 13.1959L15.8512 13.8069C19.3188 12.7628 23.2998 14.3624 24.1075 17.5436L25.0222 18.5732L25.58 18.5949C25.58 18.5949 25.6326 17.7543 26.2572 16.9332Z"
            fill="#FBBF24" />
        <path d="M21.0684 30.2569L26.005 27.3415L27.4275 23.2903L20.2261 28.6468L21.0684 30.2569Z" fill="#FBBF24" />
        <path d="M3.21875 28.5078L9.08336 31.1744L7.14835 25.8968L3.21875 28.5078Z" fill="#FBBF24" />
        <path
            d="M2.77024 28.1313L6.99275 25.3238L6.4492 21.3882L4.53964 21.6502C4.58589 24.2708 2.52801 25.022 1.65137 24.7597L1.84618 26.9755L2.77024 28.1313Z"
            fill="#FBBF24" />
        <path
            d="M28.8181 21.5407C29.4573 21.5407 29.9755 20.5886 29.9755 19.4141C29.9755 18.2397 29.4573 17.2876 28.8181 17.2876C28.1788 17.2876 27.6606 18.2397 27.6606 19.4141C27.6606 20.5886 28.1788 21.5407 28.8181 21.5407Z"
            fill="#FCD56E" />
        <path d="M29.6947 15.7204L29.7903 16.5097C29.7903 16.5097 29.616 16.2766 29.2283 16.0774L29.6947 15.7204Z"
            fill="#FBBF24" />
        <path d="M28.1949 23.0793L27.2891 25.5981L28.9433 22.9523C28.9433 22.9523 28.5848 23.13 28.1949 23.0793Z"
            fill="#FBBF24" />
        <path
            d="M28.8178 22.1447C27.8136 22.1447 27.0561 20.9707 27.0561 19.4141C27.0561 17.8573 27.8134 16.6835 28.8178 16.6835C29.0768 16.6835 29.3193 16.7622 29.5368 16.9047C29.1899 16.5527 28.7673 16.3455 28.3109 16.3455C27.1339 16.3455 26.1799 17.7195 26.1799 19.4141C26.1799 21.1088 27.1341 22.4827 28.3109 22.4827C28.7673 22.4827 29.1899 22.2753 29.5368 21.9235C29.3193 22.0662 29.0768 22.1447 28.8178 22.1447Z"
            fill="#FBBF24" />
        <path d="M11.5045 4.49881L8.02809 5.23553L3.10132 8.65101L3.56755 7.13037L7.42521 4.33833L11.5045 4.49881Z"
            fill="#FCD56E" />
        <path
            d="M14.831 17.7988C15.5141 17.2137 15.7463 16.3641 15.3497 15.9012C14.9531 15.4383 14.078 15.5374 13.3949 16.1226C12.7119 16.7077 12.4797 17.5573 12.8763 18.0202C13.2728 18.4831 14.148 18.384 14.831 17.7988Z"
            fill="#FCD56E" />
        <path
            d="M1.9203 17.4716C2.3925 17.0671 2.53682 16.4608 2.24264 16.1174C1.94846 15.774 1.32719 15.8236 0.854993 16.2282C0.382793 16.6327 0.238479 17.239 0.532657 17.5824C0.826834 17.9258 1.44811 17.8762 1.9203 17.4716Z"
            fill="#FCD56E" />
        <path d="M26.9236 16.1084L32.3982 10.8631L30.458 7.7419L25.4282 9.45828L26.9236 16.1084Z" fill="#FBBF24" />
        <path
            d="M32.5574 11.3564L27.9275 15.855C27.9275 15.855 28.2522 15.7576 28.7271 15.8847L31.4292 13.8555L32.5574 11.3564Z"
            fill="#FCD56E" />
    </g>
    <defs>
        <clipPath id="clip0_905_16682">
            <rect width="36" height="36" fill="white" />
        </clipPath>
    </defs>
</svg>