<svg width="20" height="20" viewBox="0 0 20 20" fill="none" xmlns="http://www.w3.org/2000/svg">
  <path d="M15.6993 14.7644L14.4649 13.5582C14.0969 13.1986 14.0734 12.6226 14.3129 12.1673C14.6745 11.48 14.8617 10.7109 14.8491 9.92572C14.8298 8.7238 14.344 7.57394 13.4899 6.70893C12.6357 5.84391 11.4772 5.32839 10.2488 5.26672C9.02038 5.20505 7.81389 5.60185 6.87359 6.37678C5.93329 7.15171 5.32938 8.24686 5.18421 9.44053C5.03904 10.6342 5.36338 11.8372 6.09161 12.8059C6.81984 13.7747 7.89756 14.4368 9.10652 14.6583C9.85068 14.7946 10.6104 14.7577 11.3265 14.5587C11.7173 14.4501 12.1477 14.521 12.4377 14.8044L13.9172 16.2503C12.3341 17.1979 10.4459 17.5388 8.61824 17.204C6.74857 16.8615 5.08193 15.8375 3.95575 14.3394C2.82953 12.8412 2.32792 10.9808 2.55245 9.13481C2.77699 7.28882 3.71088 5.59518 5.16505 4.39676C6.61925 3.19834 8.48506 2.5847 10.3848 2.68007C12.2845 2.77544 14.0761 3.57269 15.397 4.91042C16.7179 6.24815 17.4693 8.0264 17.4991 9.88516C17.5277 11.6739 16.8861 13.4087 15.6993 14.7644Z" fill="white"/>
  <path d="M10 12.8807C11.628 12.8807 12.9478 11.5909 12.9478 9.99994C12.9478 8.40894 11.628 7.11918 10 7.11918C8.37199 7.11918 7.05225 8.40894 7.05225 9.99994C7.05225 11.5909 8.37199 12.8807 10 12.8807Z" fill="white"/>
</svg>