<svg width="32" height="32" viewBox="0 0 32 32" fill="none" xmlns="http://www.w3.org/2000/svg">
<g clip-path="url(#clip0_6728_388782)">
<path d="M0.142957 13.8459C-1.56959 27.1296 12.5518 36.521 24.07 29.7362C23.8055 29.3247 23.2398 29.2773 23.0026 28.848C12.6265 34.4527 0.134655 26.0207 1.38823 14.3796L0.142957 13.8471V13.8459Z" fill="white"/>
<path d="M31.9857 15.2653C31.5197 3.56966 18.9139 -3.59811 8.50342 1.86073C8.6659 2.31257 9.32767 2.43117 9.65974 2.749C18.8926 -1.71129 29.6209 4.66309 30.5626 14.7328C31.1034 14.7376 31.4283 15.3246 31.9857 15.2653Z" fill="white"/>
<path d="M30.0289 23.524L28.9615 22.8136C27.6972 25.2104 25.3905 27.5597 23.002 28.85C23.2391 29.2793 23.8049 29.3268 24.0693 29.7383C26.7734 28.1456 28.5618 26.2671 30.0289 23.524Z" fill="white"/>
<path d="M3.34431 8.51953C4.74021 6.16308 7.19518 3.93946 9.65964 2.74997C9.32756 2.43214 8.66579 2.31355 8.50331 1.86171C5.76726 3.29669 3.75229 5.24873 2.18799 7.8981L3.34431 8.51953Z" fill="white"/>
<path d="M31.9857 15.267C31.4283 15.3263 31.1033 14.7392 30.5625 14.7345C30.8104 17.3862 30.2067 20.4507 28.9614 22.8131L30.0288 23.5234C31.4721 20.8266 32.1102 18.3967 31.9857 15.2682V15.267Z" fill="white"/>
<path d="M1.38736 14.3789C1.59847 12.4138 2.33852 10.2175 3.34422 8.5204L2.1879 7.89897C0.986505 9.93403 0.4457 11.4923 0.14209 13.8464L1.38736 14.3789Z" fill="white"/>
<path d="M16.3903 21.2617V16.4682H21.0001V15.2443H16.3903V10.4104H15.0845V15.2443H10.4746V16.4682H15.0845V21.2617H16.3903Z" fill="white"/>
</g>
<defs>
<clipPath id="clip0_6728_388782">
<rect width="32" height="32" fill="white" transform="matrix(1 0 0 -1 0 32)"/>
</clipPath>
</defs>
</svg>
