<svg xmlns="http://www.w3.org/2000/svg" width="21" height="20" viewBox="0 0 21 20" fill="currentColor">
  <path d="M18.8252 16.25C18.8252 16.4158 18.7593 16.5747 18.6421 16.6919C18.5249 16.8092 18.366 16.875 18.2002 16.875H3.2002C3.03444 16.875 2.87546 16.8092 2.75825 16.6919C2.64104 16.5747 2.5752 16.4158 2.5752 16.25V3.75C2.5752 3.58424 2.64104 3.42527 2.75825 3.30806C2.87546 3.19085 3.03444 3.125 3.2002 3.125C3.36596 3.125 3.52493 3.19085 3.64214 3.30806C3.75935 3.42527 3.8252 3.58424 3.8252 3.75V11.1227L7.78848 7.65625C7.89633 7.56184 8.03334 7.50737 8.17657 7.50197C8.3198 7.49656 8.46054 7.54055 8.5752 7.62656L13.1697 11.0727L17.7885 7.03125C17.849 6.9713 17.9212 6.92437 18.0006 6.89334C18.0799 6.86231 18.1648 6.84784 18.25 6.85081C18.3351 6.85378 18.4188 6.87414 18.4958 6.91062C18.5728 6.94711 18.6415 6.99896 18.6978 7.06298C18.754 7.127 18.7965 7.20185 18.8228 7.28292C18.849 7.36399 18.8584 7.44956 18.8504 7.5344C18.8423 7.61923 18.817 7.70152 18.776 7.77622C18.735 7.85091 18.6792 7.91643 18.6119 7.96875L13.6119 12.3438C13.5041 12.4382 13.367 12.4926 13.2238 12.498C13.0806 12.5034 12.9399 12.4594 12.8252 12.3734L8.23066 8.92891L3.8252 12.7836V15.625H18.2002C18.366 15.625 18.5249 15.6908 18.6421 15.8081C18.7593 15.9253 18.8252 16.0842 18.8252 16.25Z" fill="currentColor"/>
</svg>