<svg xmlns="http://www.w3.org/2000/svg" width="16" height="16" viewBox="0 0 16 16" fill="currentColor">
  <path d="M8.81562 14.5625L8 14.0938L9.875 10.8125H12.6875C12.9361 10.8125 13.1746 10.7137 13.3504 10.5379C13.5262 10.3621 13.625 10.1236 13.625 9.875V4.25C13.625 4.00136 13.5262 3.7629 13.3504 3.58709C13.1746 3.41127 12.9361 3.3125 12.6875 3.3125H3.3125C3.06386 3.3125 2.8254 3.41127 2.64959 3.58709C2.47377 3.7629 2.375 4.00136 2.375 4.25V9.875C2.375 10.1236 2.47377 10.3621 2.64959 10.5379C2.8254 10.7137 3.06386 10.8125 3.3125 10.8125H7.53125V11.75H3.3125C2.81522 11.75 2.33831 11.5525 1.98667 11.2008C1.63504 10.8492 1.4375 10.3723 1.4375 9.875V4.25C1.4375 3.75272 1.63504 3.27581 1.98667 2.92417C2.33831 2.57254 2.81522 2.375 3.3125 2.375H12.6875C13.1848 2.375 13.6617 2.57254 14.0133 2.92417C14.365 3.27581 14.5625 3.75272 14.5625 4.25V9.875C14.5625 10.3723 14.365 10.8492 14.0133 11.2008C13.6617 11.5525 13.1848 11.75 12.6875 11.75H10.4187L8.81562 14.5625Z" fill="#7D8497"/>
</svg>