<svg width="32" height="33" viewBox="0 0 32 33" fill="none" xmlns="http://www.w3.org/2000/svg">
<path d="M2.66675 12.0549H4.88897V6.49935C4.88897 6.20466 5.00603 5.92205 5.21441 5.71367C5.42278 5.5053 5.7054 5.38824 6.00008 5.38824H11.5556V3.16602H6.00008C5.11603 3.16602 4.26818 3.51721 3.64306 4.14233C3.01794 4.76745 2.66675 5.61529 2.66675 6.49935V12.0549Z" fill="white" fill-opacity="0.5"/>
<path d="M23.7779 10.9438C23.7779 12.7847 22.2855 14.2771 20.4445 14.2771C18.6036 14.2771 17.1112 12.7847 17.1112 10.9438C17.1112 9.10284 18.6036 7.61046 20.4445 7.61046C22.2855 7.61046 23.7779 9.10284 23.7779 10.9438Z" fill="white" fill-opacity="0.5"/>
<path d="M7.43663 25.0628C7.22826 24.8544 7.11119 24.5718 7.11119 24.2771V17.1504L10.3101 13.9515C10.9352 13.3266 11.7829 12.9756 12.6667 12.9756C13.5506 12.9756 14.3983 13.3266 15.0234 13.9515L24.889 23.8171V25.3882H8.2223C7.92762 25.3882 7.645 25.2711 7.43663 25.0628Z" fill="white" fill-opacity="0.5"/>
<path d="M26.0001 29.8327H20.4445V27.6105H26.0001C26.2948 27.6105 26.5774 27.4934 26.7858 27.285C26.9941 27.0767 27.1112 26.794 27.1112 26.4993V20.9438H29.3334V26.4993C29.3334 27.3834 28.9822 28.2313 28.3571 28.8564C27.732 29.4815 26.8841 29.8327 26.0001 29.8327Z" fill="white" fill-opacity="0.5"/>
<path d="M11.5556 29.8327H6.00008C5.11603 29.8327 4.26818 29.4815 3.64306 28.8564C3.01794 28.2313 2.66675 27.3834 2.66675 26.4993V20.9438H4.88897V26.4993C4.88897 26.794 5.00603 27.0767 5.21441 27.285C5.42278 27.4934 5.7054 27.6105 6.00008 27.6105H11.5556V29.8327Z" fill="white" fill-opacity="0.5"/>
<path d="M27.1112 12.0549H29.3334V6.49935C29.3334 5.61529 28.9822 4.76745 28.3571 4.14233C27.732 3.51721 26.8841 3.16602 26.0001 3.16602H20.4445V5.38824H26.0001C26.2948 5.38824 26.5774 5.5053 26.7858 5.71367C26.9941 5.92205 27.1112 6.20466 27.1112 6.49935V12.0549Z" fill="white" fill-opacity="0.5"/>
</svg>