<svg xmlns="http://www.w3.org/2000/svg" width="24" height="24" viewBox="0 0 24 24" fill="currentColor">
  <path d="M5.055 3.24544C4.98914 3.1712 4.90919 3.11077 4.8198 3.06765C4.73041 3.02453 4.63335 2.99958 4.53424 2.99425C4.43514 2.98892 4.33596 3.00331 4.24246 3.03659C4.14896 3.06987 4.06299 3.12137 3.98954 3.18812C3.91609 3.25487 3.85662 3.33554 3.81458 3.42544C3.77253 3.51534 3.74875 3.61269 3.74461 3.71186C3.74046 3.81102 3.75604 3.91002 3.79044 4.00311C3.82484 4.09621 3.87738 4.18155 3.945 4.25419L4.84969 5.24982H4.5C3.90326 5.24982 3.33097 5.48687 2.90901 5.90883C2.48705 6.33079 2.25 6.90308 2.25 7.49982V17.9998C2.25 18.5966 2.48705 19.1689 2.90901 19.5908C3.33097 20.0128 3.90326 20.2498 4.5 20.2498H18.4866L18.945 20.7542C19.0109 20.8284 19.0908 20.8889 19.1802 20.932C19.2696 20.9751 19.3667 21.0001 19.4658 21.0054C19.5649 21.0107 19.664 20.9963 19.7575 20.9631C19.851 20.9298 19.937 20.8783 20.0105 20.8115C20.0839 20.7448 20.1434 20.6641 20.1854 20.5742C20.2275 20.4843 20.2513 20.3869 20.2554 20.2878C20.2595 20.1886 20.244 20.0896 20.2096 19.9965C20.1752 19.9034 20.1226 19.8181 20.055 19.7454L5.055 3.24544ZM9.89813 10.8026L13.3669 14.6173C12.9556 14.8692 12.4823 15.0017 12 14.9998C11.5128 14.9998 11.0353 14.8642 10.6208 14.6081C10.2063 14.3521 9.87124 13.9858 9.65309 13.5502C9.43495 13.1146 9.34233 12.6269 9.38561 12.1416C9.42888 11.6564 9.60634 11.1928 9.89813 10.8026ZM4.5 18.7498C4.30109 18.7498 4.11032 18.6708 3.96967 18.5301C3.82902 18.3895 3.75 18.1987 3.75 17.9998V7.49982C3.75 7.30091 3.82902 7.11014 3.96967 6.96949C4.11032 6.82884 4.30109 6.74982 4.5 6.74982H6.21375L8.87719 9.68044C8.36121 10.2786 8.02783 11.0123 7.91668 11.7944C7.80553 12.5765 7.92128 13.3741 8.25018 14.0923C8.57908 14.8105 9.10729 15.4192 9.77202 15.846C10.4368 16.2728 11.2101 16.4997 12 16.4998C12.8545 16.498 13.6875 16.2321 14.385 15.7386L17.1225 18.7498H4.5ZM21.75 7.49982V17.4373C21.75 17.6362 21.671 17.827 21.5303 17.9676C21.3897 18.1083 21.1989 18.1873 21 18.1873C20.8011 18.1873 20.6103 18.1083 20.4697 17.9676C20.329 17.827 20.25 17.6362 20.25 17.4373V7.49982C20.25 7.30091 20.171 7.11014 20.0303 6.96949C19.8897 6.82884 19.6989 6.74982 19.5 6.74982H16.5C16.3767 6.74974 16.2552 6.71925 16.1465 6.66103C16.0377 6.60282 15.945 6.51868 15.8766 6.41607L14.5978 4.49982H9.3975C9.27657 4.64979 9.10257 4.74747 8.91157 4.77262C8.72057 4.79777 8.52721 4.74845 8.37159 4.6349C8.21596 4.52134 8.11 4.35226 8.07567 4.16269C8.04134 3.97312 8.08127 3.77762 8.18719 3.61669L8.37469 3.33544C8.44311 3.23222 8.53602 3.14755 8.64513 3.08899C8.75425 3.03042 8.87616 2.99979 9 2.99982H15C15.1235 2.99974 15.2451 3.03016 15.354 3.08838C15.463 3.14661 15.5558 3.23083 15.6244 3.33357L16.9012 5.24982H19.5C20.0967 5.24982 20.669 5.48687 21.091 5.90883C21.5129 6.33079 21.75 6.90308 21.75 7.49982Z" fill="currentColor"/>
</svg>