<svg width="12" height="12" viewBox="0 0 12 12" fill="currentColor" xmlns="http://www.w3.org/2000/svg">
  <path d="M6.42037 5.20411C6.42035 5.25339 6.43003 5.30219 6.44888 5.34772C6.46773 5.39326 6.49536 5.43463 6.53021 5.46948C6.56506 5.50433 6.60643 5.53196 6.65197 5.55081C6.6975 5.56965 6.7463 5.57934 6.79558 5.57931L9.44723 5.57931C9.49651 5.57934 9.54532 5.56965 9.59085 5.55081C9.63639 5.53196 9.67776 5.50433 9.71261 5.46948C9.74745 5.43463 9.77509 5.39326 9.79394 5.34772C9.81278 5.30219 9.82247 5.25339 9.82244 5.2041L9.82244 2.55245C9.82247 2.50317 9.81278 2.45437 9.79394 2.40884C9.77509 2.3633 9.74745 2.32193 9.71261 2.28708C9.67776 2.25223 9.63639 2.2246 9.59085 2.20575C9.54532 2.18691 9.49651 2.17722 9.44723 2.17725L6.79558 2.17725C6.7463 2.17722 6.6975 2.18691 6.65197 2.20575C6.60643 2.2246 6.56506 2.25223 6.53021 2.28708C6.49536 2.32193 6.46773 2.3633 6.44888 2.40884C6.43003 2.45437 6.42035 2.50317 6.42038 2.55245L6.42037 5.20411ZM9.07236 2.92733V4.82923L7.17046 4.82923V2.92733L9.07236 2.92733ZM5.5808 6.7941C5.58082 6.74482 5.57114 6.69602 5.55229 6.65048C5.53345 6.60495 5.50581 6.56357 5.47096 6.52873C5.43612 6.49388 5.39474 6.46624 5.34921 6.4474C5.30367 6.42855 5.25487 6.41886 5.20559 6.41889H2.55394C2.50466 6.41886 2.45585 6.42855 2.41032 6.4474C2.36478 6.46624 2.32341 6.49388 2.28856 6.52873C2.25372 6.56357 2.22608 6.60495 2.20723 6.65048C2.18839 6.69602 2.1787 6.74482 2.17873 6.7941L2.17873 9.44575C2.1787 9.49503 2.18839 9.54384 2.20723 9.58937C2.22608 9.6349 2.25372 9.67628 2.28856 9.71112C2.32341 9.74597 2.36478 9.77361 2.41032 9.79245C2.45585 9.8113 2.50466 9.82099 2.55394 9.82096L5.20559 9.82096C5.25487 9.82099 5.30367 9.8113 5.34921 9.79245C5.39474 9.77361 5.43611 9.74597 5.47096 9.71112C5.50581 9.67628 5.53344 9.6349 5.55229 9.58937C5.57114 9.54384 5.58082 9.49503 5.5808 9.44575L5.5808 6.7941ZM2.92782 9.07187L2.92782 7.16997H4.82972L4.82972 9.07187H2.92782ZM9.82244 9.44675V6.79509C9.82247 6.74581 9.81278 6.69701 9.79394 6.65148C9.77509 6.60594 9.74745 6.56457 9.71261 6.52972C9.67776 6.49487 9.63639 6.46724 9.59085 6.44839C9.54532 6.42955 9.49651 6.41986 9.44723 6.41989H6.79558C6.7463 6.41986 6.6975 6.42955 6.65196 6.44839C6.60643 6.46724 6.56506 6.49487 6.53021 6.52972C6.49536 6.56457 6.46773 6.60594 6.44888 6.65148C6.43003 6.69701 6.42035 6.74581 6.42037 6.79509V9.44675C6.42035 9.49603 6.43003 9.54483 6.44888 9.59036C6.46773 9.6359 6.49536 9.67727 6.53021 9.71212C6.56506 9.74697 6.60643 9.7746 6.65196 9.79345C6.6975 9.8123 6.7463 9.82198 6.79558 9.82195H9.44723C9.49651 9.82198 9.54532 9.8123 9.59085 9.79345C9.63639 9.7746 9.67776 9.74697 9.71261 9.71212C9.74745 9.67727 9.77509 9.6359 9.79394 9.59036C9.81278 9.54483 9.82247 9.49603 9.82244 9.44675ZM7.17046 9.07187V7.16997H9.07236L9.07236 9.07187H7.17046ZM5.5798 5.20411L5.5798 2.55245C5.57983 2.50317 5.57014 2.45437 5.5513 2.40884C5.53245 2.3633 5.50481 2.32193 5.46997 2.28708C5.43512 2.25223 5.39375 2.2246 5.34821 2.20575C5.30268 2.18691 5.25387 2.17722 5.20459 2.17725L2.55294 2.17725C2.50366 2.17722 2.45486 2.18691 2.40932 2.20575C2.36379 2.2246 2.32242 2.25223 2.28757 2.28708C2.25272 2.32193 2.22509 2.3633 2.20624 2.40884C2.18739 2.45437 2.17771 2.50317 2.17773 2.55246L2.17773 5.20411C2.17771 5.25339 2.18739 5.30219 2.20624 5.34772C2.22509 5.39326 2.25272 5.43463 2.28757 5.46948C2.32242 5.50433 2.36379 5.53196 2.40932 5.55081C2.45486 5.56965 2.50366 5.57934 2.55294 5.57931H5.20459C5.25387 5.57934 5.30268 5.56965 5.34821 5.55081C5.39375 5.53196 5.43512 5.50433 5.46997 5.46948C5.50481 5.43463 5.53245 5.39326 5.5513 5.34772C5.57014 5.30219 5.57983 5.25339 5.5798 5.20411ZM2.92782 4.82923V2.92733L4.82972 2.92733L4.82972 4.82923H2.92782Z" fill="currentColor"/>
</svg>