<svg xmlns="http://www.w3.org/2000/svg" width="21" height="20" viewBox="0 0 21 20" fill="currentColor">
  <path d="M10.4998 1.875C9.09706 1.87469 7.71812 2.23757 6.49721 2.9283C5.2763 3.61904 4.25501 4.6141 3.53277 5.81664C2.81052 7.01918 2.41192 8.38822 2.37575 9.79052C2.33958 11.1928 2.66709 12.5806 3.32638 13.8188L2.43966 16.4789C2.36621 16.6992 2.35556 16.9355 2.40888 17.1615C2.46221 17.3874 2.57741 17.5941 2.74158 17.7582C2.90575 17.9224 3.11239 18.0376 3.33836 18.0909C3.56432 18.1443 3.80067 18.1336 4.02091 18.0602L6.68107 17.1734C7.77073 17.753 8.97811 18.0767 10.2116 18.12C11.445 18.1633 12.6721 17.925 13.7997 17.4232C14.9273 16.9215 15.9258 16.1694 16.7194 15.2241C17.5129 14.2789 18.0807 13.1652 18.3796 11.9678C18.6785 10.7703 18.7007 9.52047 18.4445 8.31315C18.1882 7.10584 17.6603 5.97276 16.9008 4.99993C16.1413 4.02711 15.1701 3.24009 14.061 2.69864C12.9519 2.15718 11.734 1.87551 10.4998 1.875ZM10.4998 16.875C9.29121 16.8758 8.1038 16.5575 7.05763 15.9523C6.98104 15.9079 6.89587 15.8803 6.80779 15.8713C6.71971 15.8622 6.63071 15.872 6.5467 15.9L3.62482 16.875L4.59904 13.9531C4.62712 13.8692 4.63705 13.7802 4.62816 13.6921C4.61927 13.604 4.59177 13.5188 4.54748 13.4422C3.78964 12.132 3.48537 10.6083 3.68187 9.10747C3.87837 7.60667 4.56466 6.21267 5.63426 5.14171C6.70387 4.07076 8.097 3.38271 9.59755 3.18431C11.0981 2.98592 12.6222 3.28826 13.9334 4.04444C15.2445 4.80062 16.2695 5.96837 16.8493 7.36652C17.4291 8.76468 17.5313 10.3151 17.14 11.7773C16.7487 13.2394 15.8858 14.5316 14.6852 15.4533C13.4846 16.375 12.0134 16.8748 10.4998 16.875Z" fill="currentColor"/>
</svg>