<svg width="17" height="16" viewBox="0 0 17 16" fill="none" xmlns="http://www.w3.org/2000/svg">
  <path d="M6.00004 1.50004V1.00004C6.00004 0.867433 6.05272 0.740256 6.14649 0.646488C6.24026 0.55272 6.36743 0.500041 6.50004 0.500041C6.63265 0.500041 6.75983 0.55272 6.85359 0.646488C6.94736 0.740256 7.00004 0.867433 7.00004 1.00004V1.50004C7.00004 1.63265 6.94736 1.75983 6.85359 1.85359C6.75983 1.94736 6.63265 2.00004 6.50004 2.00004C6.36743 2.00004 6.24026 1.94736 6.14649 1.85359C6.05272 1.75983 6.00004 1.63265 6.00004 1.50004ZM1.50004 6.50004H2.00004C2.13265 6.50004 2.25983 6.44736 2.35359 6.35359C2.44736 6.25983 2.50004 6.13265 2.50004 6.00004C2.50004 5.86743 2.44736 5.74026 2.35359 5.64649C2.25983 5.55272 2.13265 5.50004 2.00004 5.50004H1.50004C1.36743 5.50004 1.24026 5.55272 1.14649 5.64649C1.05272 5.74026 1.00004 5.86743 1.00004 6.00004C1.00004 6.13265 1.05272 6.25983 1.14649 6.35359C1.24026 6.44736 1.36743 6.50004 1.50004 6.50004ZM8.27629 2.44754C8.33505 2.47697 8.39903 2.49452 8.46458 2.4992C8.53013 2.50388 8.59596 2.49559 8.6583 2.47481C8.72064 2.45403 8.77828 2.42117 8.82791 2.37809C8.87754 2.33502 8.91819 2.28259 8.94754 2.22379L9.44754 1.22379C9.50688 1.10519 9.51668 0.967872 9.47478 0.842047C9.43288 0.716222 9.34271 0.612196 9.2241 0.552854C9.1055 0.493511 8.96818 0.483714 8.84236 0.525617C8.71653 0.567519 8.61251 0.65769 8.55317 0.776291L8.05317 1.77629C8.02372 1.83501 8.00613 1.89896 8.00141 1.96448C7.99668 2.03 8.00492 2.09581 8.02564 2.15815C8.04636 2.22049 8.07916 2.27813 8.12217 2.32779C8.16518 2.37744 8.21755 2.41814 8.27629 2.44754ZM2.27629 7.55317L1.27629 8.05317C1.15769 8.11251 1.06752 8.21653 1.02562 8.34236C0.983714 8.46818 0.993511 8.6055 1.05285 8.7241C1.1122 8.84271 1.21622 8.93288 1.34205 8.97478C1.46787 9.01668 1.60519 9.00688 1.72379 8.94754L2.72379 8.44754C2.78252 8.41816 2.83488 8.37749 2.87789 8.32788C2.9209 8.27826 2.95372 8.22065 2.97447 8.15835C2.99521 8.09605 3.00349 8.03027 2.99881 7.96477C2.99414 7.89927 2.97661 7.83533 2.94723 7.7766C2.91785 7.71788 2.87718 7.66551 2.82756 7.6225C2.77794 7.57949 2.72034 7.54668 2.65804 7.52593C2.59573 7.50518 2.52995 7.49691 2.46445 7.50158C2.39895 7.50625 2.33502 7.52378 2.27629 7.55317ZM14.2069 11.5C14.2998 11.5929 14.3735 11.7032 14.4237 11.8245C14.474 11.9458 14.4999 12.0759 14.4999 12.2072C14.4999 12.3386 14.474 12.4686 14.4237 12.59C14.3735 12.7113 14.2998 12.8216 14.2069 12.9144L13.4144 13.7069C13.3216 13.7998 13.2113 13.8735 13.09 13.9237C12.9686 13.974 12.8386 13.9999 12.7072 13.9999C12.5759 13.9999 12.4458 13.974 12.3245 13.9237C12.2032 13.8735 12.0929 13.7998 12 13.7069L8.79379 10.5L7.68754 13.3807C7.68754 13.3869 7.68254 13.3938 7.67942 13.4007C7.60289 13.5791 7.47558 13.731 7.31332 13.8376C7.15107 13.9442 6.96104 14.0007 6.76692 14H6.71754C6.51508 13.9915 6.32014 13.9209 6.15907 13.798C5.998 13.675 5.87856 13.5056 5.81692 13.3125L2.55004 3.30754C2.49396 3.13256 2.48717 2.94552 2.53042 2.76694C2.57367 2.58836 2.66529 2.42514 2.79522 2.29522C2.92514 2.16529 3.08836 2.07367 3.26694 2.03042C3.44552 1.98717 3.63256 1.99396 3.80754 2.05004L13.8125 5.31692C14.0038 5.38088 14.1712 5.50116 14.2928 5.66196C14.4145 5.82277 14.4847 6.01659 14.4942 6.218C14.5037 6.41941 14.4521 6.61899 14.3462 6.79056C14.2403 6.96213 14.085 7.09768 13.9007 7.17942L13.8807 7.18754L11 8.29317L14.2069 11.5ZM13.5 12.2069L10.2932 9.00004C10.1777 8.88482 10.0922 8.74312 10.0441 8.58729C9.99601 8.43146 9.98674 8.26622 10.0171 8.10599C10.0475 7.94575 10.1166 7.79538 10.2184 7.66797C10.3203 7.54057 10.4517 7.44001 10.6013 7.37504L10.6213 7.36629L13.4932 6.26379L3.50004 3.00004L6.76254 12.9913L7.86567 10.1163C7.86567 10.1094 7.87067 10.1025 7.87379 10.0957C7.93878 9.94619 8.03932 9.81486 8.16666 9.71312C8.294 9.61138 8.44428 9.54231 8.60442 9.51192C8.66626 9.50045 8.72902 9.49459 8.79192 9.49442C9.05687 9.49471 9.31088 9.60013 9.49817 9.78754L12.7069 13L13.5 12.2069Z" fill="white"/>
</svg>