<svg xmlns="http://www.w3.org/2000/svg" width="29" height="28" viewBox="0 0 29 28" fill="none">
  <path d="M14.5 2.625C12.2502 2.625 10.051 3.29213 8.18039 4.54203C6.30978 5.79193 4.85182 7.56847 3.99088 9.64698C3.12993 11.7255 2.90467 14.0126 3.34357 16.2192C3.78248 18.4257 4.86584 20.4525 6.45667 22.0433C8.04749 23.6342 10.0743 24.7175 12.2809 25.1564C14.4874 25.5953 16.7745 25.3701 18.853 24.5091C20.9315 23.6482 22.7081 22.1902 23.958 20.3196C25.2079 18.449 25.875 16.2498 25.875 14C25.8718 10.9841 24.6724 8.09271 22.5398 5.96018C20.4073 3.82764 17.5159 2.62818 14.5 2.625ZM14.5 23.625C12.5964 23.625 10.7355 23.0605 9.15264 22.0029C7.56982 20.9453 6.33616 19.4421 5.60766 17.6833C4.87917 15.9246 4.68856 13.9893 5.05995 12.1223C5.43133 10.2552 6.34802 8.54018 7.6941 7.1941C9.04018 5.84802 10.7552 4.93132 12.6223 4.55994C14.4893 4.18856 16.4246 4.37917 18.1833 5.10766C19.9421 5.83615 21.4453 7.06981 22.5029 8.65264C23.5605 10.2355 24.125 12.0964 24.125 14C24.1221 16.5518 23.1071 18.9983 21.3027 20.8027C19.4983 22.6071 17.0518 23.6221 14.5 23.625ZM18.875 16.1875C18.875 16.9997 18.5524 17.7787 17.978 18.353C17.4037 18.9273 16.6247 19.25 15.8125 19.25H15.375V20.125C15.375 20.3571 15.2828 20.5796 15.1187 20.7437C14.9546 20.9078 14.7321 21 14.5 21C14.2679 21 14.0454 20.9078 13.8813 20.7437C13.7172 20.5796 13.625 20.3571 13.625 20.125V19.25H11.875C11.6429 19.25 11.4204 19.1578 11.2563 18.9937C11.0922 18.8296 11 18.6071 11 18.375C11 18.1429 11.0922 17.9204 11.2563 17.7563C11.4204 17.5922 11.6429 17.5 11.875 17.5H15.8125C16.1606 17.5 16.4944 17.3617 16.7406 17.1156C16.9867 16.8694 17.125 16.5356 17.125 16.1875C17.125 15.8394 16.9867 15.5056 16.7406 15.2594C16.4944 15.0133 16.1606 14.875 15.8125 14.875H13.1875C12.3753 14.875 11.5963 14.5523 11.022 13.978C10.4477 13.4037 10.125 12.6247 10.125 11.8125C10.125 11.0003 10.4477 10.2213 11.022 9.64699C11.5963 9.07266 12.3753 8.75 13.1875 8.75H13.625V7.875C13.625 7.64294 13.7172 7.42038 13.8813 7.25628C14.0454 7.09219 14.2679 7 14.5 7C14.7321 7 14.9546 7.09219 15.1187 7.25628C15.2828 7.42038 15.375 7.64294 15.375 7.875V8.75H17.125C17.3571 8.75 17.5796 8.84219 17.7437 9.00628C17.9078 9.17038 18 9.39294 18 9.625C18 9.85706 17.9078 10.0796 17.7437 10.2437C17.5796 10.4078 17.3571 10.5 17.125 10.5H13.1875C12.8394 10.5 12.5056 10.6383 12.2594 10.8844C12.0133 11.1306 11.875 11.4644 11.875 11.8125C11.875 12.1606 12.0133 12.4944 12.2594 12.7406C12.5056 12.9867 12.8394 13.125 13.1875 13.125H15.8125C16.6247 13.125 17.4037 13.4477 17.978 14.022C18.5524 14.5963 18.875 15.3753 18.875 16.1875Z" fill="#FBBF24"/>
</svg>