<svg width="16" height="16" viewBox="0 0 16 16" fill="none" xmlns="http://www.w3.org/2000/svg">
  <path d="M14.9999 7.00003C14.9989 6.07207 14.6298 5.18241 13.9737 4.52625C13.3175 3.87009 12.4278 3.50102 11.4999 3.50003C11.3893 3.50003 11.2786 3.50628 11.1693 3.51628C10.8871 2.91395 10.4391 2.40451 9.87774 2.04764C9.31643 1.69076 8.66505 1.50122 7.99989 1.50122C7.33473 1.50122 6.68334 1.69076 6.12203 2.04764C5.56072 2.40451 5.11272 2.91395 4.83051 3.51628C4.72114 3.50628 4.61051 3.50003 4.49989 3.50003C3.70538 3.50022 2.93457 3.77073 2.31418 4.26708C1.69379 4.76344 1.26074 5.4561 1.08622 6.23121C0.911696 7.00631 1.00608 7.81774 1.35387 8.53209C1.70165 9.24644 2.28213 9.8212 2.99989 10.1619V13C2.99989 13.2652 3.10524 13.5196 3.29278 13.7071C3.48032 13.8947 3.73467 14 3.99989 14H11.9999C12.2651 14 12.5195 13.8947 12.707 13.7071C12.8945 13.5196 12.9999 13.2652 12.9999 13V10.1619C13.5978 9.87753 14.103 9.42964 14.457 8.87007C14.8109 8.3105 14.9991 7.66214 14.9999 7.00003ZM9.51489 8.87878L10.0149 6.87878C10.0489 6.75213 10.1312 6.6439 10.2442 6.5774C10.3573 6.51091 10.4919 6.49147 10.6191 6.52327C10.7463 6.55507 10.8559 6.63557 10.9243 6.74743C10.9928 6.85928 11.0145 6.99354 10.9849 7.12128L10.4849 9.12128C10.4578 9.22945 10.3954 9.32547 10.3076 9.3941C10.2197 9.46272 10.1114 9.50001 9.99989 9.50003C9.95881 9.49997 9.91788 9.49493 9.87801 9.48503C9.74951 9.45271 9.63908 9.37072 9.571 9.25704C9.50291 9.14337 9.48273 9.00732 9.51489 8.87878ZM7.49989 7.00003C7.49989 6.86742 7.55257 6.74024 7.64633 6.64647C7.7401 6.5527 7.86728 6.50003 7.99989 6.50003C8.1325 6.50003 8.25967 6.5527 8.35344 6.64647C8.44721 6.74024 8.49989 6.86742 8.49989 7.00003V9.00003C8.49989 9.13263 8.44721 9.25981 8.35344 9.35358C8.25967 9.44735 8.1325 9.50003 7.99989 9.50003C7.86728 9.50003 7.7401 9.44735 7.64633 9.35358C7.55257 9.25981 7.49989 9.13263 7.49989 9.00003V7.00003ZM5.37864 6.51503C5.50727 6.48289 5.64339 6.50315 5.75708 6.57137C5.87077 6.63958 5.95271 6.75016 5.98489 6.87878L6.48489 8.87878C6.51703 9.0074 6.49676 9.14353 6.42855 9.25722C6.36033 9.37091 6.24976 9.45285 6.12114 9.48503C6.08025 9.49519 6.03827 9.50023 5.99614 9.50003C5.88475 9.49987 5.7766 9.46252 5.68885 9.39391C5.6011 9.32529 5.53878 9.22934 5.51176 9.12128L5.01176 7.12128C4.9959 7.05737 4.99281 6.99097 5.00268 6.92587C5.01255 6.86078 5.03517 6.79827 5.06926 6.74194C5.10335 6.68561 5.14823 6.63657 5.20132 6.59763C5.25441 6.55869 5.31467 6.53062 5.37864 6.51503ZM11.9999 13H3.99989V10.4638C4.16546 10.4879 4.33256 10.5 4.49989 10.5H11.4999C11.6672 10.5 11.8343 10.4879 11.9999 10.4638V13Z" fill="#7D8497"/>
</svg>