<svg viewBox="0 0 10 10" fill="none" xmlns="http://www.w3.org/2000/svg">
<path d="M8.4375 1.25H3.4375C3.35462 1.25 3.27513 1.28292 3.21653 1.34153C3.15792 1.40013 3.125 1.47962 3.125 1.5625V3.125H1.5625C1.47962 3.125 1.40013 3.15792 1.34153 3.21653C1.28292 3.27513 1.25 3.35462 1.25 3.4375V8.4375C1.25 8.52038 1.28292 8.59987 1.34153 8.65847C1.40013 8.71708 1.47962 8.75 1.5625 8.75H6.5625C6.64538 8.75 6.72487 8.71708 6.78347 8.65847C6.84208 8.59987 6.875 8.52038 6.875 8.4375V6.875H8.4375C8.52038 6.875 8.59987 6.84208 8.65847 6.78347C8.71708 6.72487 8.75 6.64538 8.75 6.5625V1.5625C8.75 1.47962 8.71708 1.40013 8.65847 1.34153C8.59987 1.28292 8.52038 1.25 8.4375 1.25ZM8.125 6.25H6.875V3.4375C6.875 3.35462 6.84208 3.27513 6.78347 3.21653C6.72487 3.15792 6.64538 3.125 6.5625 3.125H3.75V1.875H8.125V6.25Z" fill="currentColor"/>
</svg>