<svg xmlns="http://www.w3.org/2000/svg" width="15" height="15" viewBox="0 0 15 15" fill="currentColor">
  <path d="M9.70681 5.2936C9.75039 5.33713 9.78497 5.38883 9.80855 5.44573C9.83214 5.50264 9.84429 5.56364 9.84429 5.62524C9.84429 5.68684 9.83214 5.74783 9.80855 5.80474C9.78497 5.86165 9.75039 5.91334 9.70681 5.95688L5.95681 9.70688C5.91326 9.75043 5.86155 9.78498 5.80465 9.80855C5.74775 9.83212 5.68676 9.84425 5.62517 9.84425C5.56358 9.84425 5.50259 9.83212 5.44568 9.80855C5.38878 9.78498 5.33708 9.75043 5.29353 9.70688C5.24997 9.66333 5.21543 9.61162 5.19186 9.55472C5.16829 9.49782 5.15616 9.43683 5.15616 9.37524C5.15616 9.31365 5.16829 9.25266 5.19186 9.19575C5.21543 9.13885 5.24997 9.08715 5.29353 9.0436L9.04353 5.2936C9.08706 5.25001 9.13876 5.21544 9.19566 5.19185C9.25257 5.16826 9.31357 5.15612 9.37517 5.15612C9.43677 5.15612 9.49777 5.16826 9.55467 5.19185C9.61158 5.21544 9.66327 5.25001 9.70681 5.2936ZM12.633 2.36742C12.3283 2.0627 11.9665 1.82097 11.5684 1.65605C11.1703 1.49113 10.7436 1.40625 10.3127 1.40625C9.88174 1.40625 9.45503 1.49113 9.05691 1.65605C8.65879 1.82097 8.29705 2.0627 7.99235 2.36742L6.23103 4.12817C6.14307 4.21612 6.09366 4.33542 6.09366 4.45981C6.09366 4.5842 6.14307 4.70349 6.23103 4.79145C6.31898 4.8794 6.43828 4.92882 6.56267 4.92882C6.68706 4.92882 6.80635 4.8794 6.89431 4.79145L8.65564 3.03364C9.09678 2.60218 9.69027 2.3621 10.3073 2.3655C10.9244 2.3689 11.5152 2.6155 11.9516 3.05179C12.3879 3.48807 12.6346 4.07884 12.6381 4.69589C12.6416 5.31294 12.4017 5.90648 11.9703 6.3477L10.2084 8.10903C10.1204 8.1969 10.071 8.31612 10.0709 8.44046C10.0709 8.56479 10.1202 8.68406 10.2081 8.77201C10.296 8.85997 10.4152 8.90942 10.5395 8.90947C10.6638 8.90953 10.7831 8.86019 10.8711 8.77231L12.633 7.00805C12.9377 6.70335 13.1794 6.34162 13.3444 5.94349C13.5093 5.54537 13.5942 5.11866 13.5942 4.68774C13.5942 4.25681 13.5093 3.8301 13.3444 3.43198C13.1794 3.03386 12.9377 2.67212 12.633 2.36742ZM8.10603 10.2084L6.3447 11.9698C6.12795 12.1914 5.86939 12.3678 5.58399 12.4888C5.29858 12.6098 4.99201 12.673 4.68203 12.6747C4.37204 12.6764 4.06479 12.6166 3.77808 12.4988C3.49136 12.3809 3.23087 12.2073 3.01169 11.9881C2.79251 11.7689 2.619 11.5084 2.5012 11.2217C2.3834 10.9349 2.32365 10.6277 2.32541 10.3177C2.32717 10.0077 2.39041 9.70112 2.51146 9.41574C2.63252 9.13036 2.80898 8.87183 3.03064 8.65512L4.79138 6.89438C4.87933 6.80642 4.92875 6.68713 4.92875 6.56274C4.92875 6.43835 4.87933 6.31905 4.79138 6.2311C4.70342 6.14314 4.58413 6.09373 4.45974 6.09373C4.33535 6.09373 4.21605 6.14314 4.1281 6.2311L2.36735 7.99242C1.75197 8.60781 1.40625 9.44245 1.40625 10.3127C1.40625 11.183 1.75197 12.0177 2.36735 12.633C2.98274 13.2484 3.81738 13.5942 4.68767 13.5942C5.55795 13.5942 6.39259 13.2484 7.00798 12.633L8.76931 10.8711C8.85719 10.7832 8.90653 10.6639 8.90647 10.5396C8.90642 10.4152 8.85697 10.296 8.76901 10.2081C8.68106 10.1203 8.56179 10.0709 8.43746 10.071C8.31313 10.071 8.19391 10.1205 8.10603 10.2084Z" fill="currentColor"/>
</svg>