<svg width="17" height="17" viewBox="0 0 17 17" fill="currentColor" xmlns="http://www.w3.org/2000/svg">
  <path d="M14.8538 4.14664L12.8538 2.14664C12.8073 2.10016 12.7522 2.06328 12.6915 2.03811C12.6308 2.01295 12.5657 2 12.5 2C12.4343 2 12.3692 2.01295 12.3085 2.03811C12.2478 2.06328 12.1927 2.10016 12.1462 2.14664L6.14625 8.14664C6.09983 8.19311 6.06303 8.24827 6.03793 8.30897C6.01284 8.36967 5.99995 8.43471 6 8.50039V10.5004C6 10.633 6.05268 10.7602 6.14645 10.8539C6.24021 10.9477 6.36739 11.0004 6.5 11.0004H8.5C8.56568 11.0004 8.63073 10.9876 8.69143 10.9625C8.75212 10.9374 8.80728 10.9006 8.85375 10.8541L14.8538 4.85414C14.9002 4.80771 14.9371 4.75256 14.9623 4.69186C14.9874 4.63116 15.0004 4.5661 15.0004 4.50039C15.0004 4.43469 14.9874 4.36962 14.9623 4.30892C14.9371 4.24822 14.9002 4.19308 14.8538 4.14664ZM8.29313 10.0004H7V8.70727L11 4.70727L12.2931 6.00039L8.29313 10.0004ZM13 5.29352L11.7069 4.00039L12.5 3.20727L13.7931 4.50039L13 5.29352ZM14.5 8.50039V13.5004C14.5 13.7656 14.3946 14.02 14.2071 14.2075C14.0196 14.395 13.7652 14.5004 13.5 14.5004H3.5C3.23478 14.5004 2.98043 14.395 2.79289 14.2075C2.60536 14.02 2.5 13.7656 2.5 13.5004V3.50039C2.5 3.23518 2.60536 2.98082 2.79289 2.79329C2.98043 2.60575 3.23478 2.50039 3.5 2.50039H8.5C8.63261 2.50039 8.75979 2.55307 8.85355 2.64684C8.94732 2.74061 9 2.86779 9 3.00039C9 3.133 8.94732 3.26018 8.85355 3.35395C8.75979 3.44771 8.63261 3.50039 8.5 3.50039H3.5V13.5004H13.5V8.50039C13.5 8.36779 13.5527 8.24061 13.6464 8.14684C13.7402 8.05307 13.8674 8.00039 14 8.00039C14.1326 8.00039 14.2598 8.05307 14.3536 8.14684C14.4473 8.24061 14.5 8.36779 14.5 8.50039Z" fill="currentColor"/>
</svg>