<svg viewBox="0 0 16 16" fill="currentColor" xmlns="http://www.w3.org/2000/svg">
  <path d="M8 2.20678V7.99991C8 8.13251 7.94732 8.25969 7.85355 8.35346C7.75979 8.44723 7.63261 8.4999 7.5 8.4999C7.36739 8.4999 7.24021 8.44723 7.14645 8.35346C7.05268 8.25969 7 8.13251 7 7.99991V2.20678L5.85375 3.35366C5.8073 3.40011 5.75214 3.43696 5.69145 3.4621C5.63075 3.48724 5.5657 3.50018 5.5 3.50018C5.36732 3.50018 5.24007 3.44748 5.14625 3.35366C5.09979 3.3072 5.06294 3.25205 5.0378 3.19135C5.01266 3.13066 4.99972 3.0656 4.99972 2.99991C4.99972 2.86722 5.05243 2.73998 5.14625 2.64616L7.14625 0.646155C7.19269 0.599667 7.24783 0.562787 7.30853 0.537625C7.36923 0.512463 7.43429 0.499512 7.5 0.499512C7.56571 0.499512 7.63077 0.512463 7.69147 0.537625C7.75217 0.562787 7.80731 0.599667 7.85375 0.646155L9.85375 2.64616C9.94757 2.73998 10.0003 2.86722 10.0003 2.99991C10.0003 3.13259 9.94757 3.25983 9.85375 3.35366C9.75993 3.44748 9.63268 3.50018 9.5 3.50018C9.36732 3.50018 9.24007 3.44748 9.14625 3.35366L8 2.20678ZM12 7.72616V5.99991C12 5.73469 11.8946 5.48033 11.7071 5.2928C11.5196 5.10526 11.2652 4.99991 11 4.99991H10C9.86739 4.99991 9.74021 5.05258 9.64645 5.14635C9.55268 5.24012 9.5 5.3673 9.5 5.49991C9.5 5.63251 9.55268 5.75969 9.64645 5.85346C9.74021 5.94723 9.86739 5.99991 10 5.99991H11V11.0249C10.7018 10.7203 10.3027 10.535 9.87762 10.5038C9.45251 10.4726 9.03062 10.5976 8.69115 10.8553C8.35167 11.1131 8.11795 11.4859 8.03384 11.9038C7.94974 12.3217 8.02105 12.7559 8.23438 13.1249L8.24938 13.1487L9.64062 15.2737C9.71323 15.3846 9.82694 15.4622 9.95675 15.4894C10.0866 15.5165 10.2218 15.4909 10.3328 15.4183C10.4438 15.3457 10.5214 15.232 10.5485 15.1022C10.5756 14.9724 10.5501 14.8371 10.4775 14.7262L9.09437 12.6143C8.99633 12.4411 8.97107 12.2361 9.02417 12.0444C9.07727 11.8526 9.20436 11.6898 9.3775 11.5918C9.55064 11.4937 9.75563 11.4685 9.94739 11.5216C10.1391 11.5747 10.302 11.7018 10.4 11.8749C10.4044 11.883 10.4094 11.8912 10.4144 11.8987L11.0819 12.918C11.1409 13.008 11.2273 13.0766 11.3284 13.1135C11.4295 13.1504 11.5398 13.1538 11.6429 13.123C11.746 13.0923 11.8364 13.0291 11.9008 12.9428C11.9651 12.8566 11.9999 12.7519 12 12.6443V8.9999C12.4713 9.43616 12.8477 9.96479 13.1057 10.5529C13.3638 11.1409 13.498 11.7758 13.5 12.418V14.9999C13.5 15.1325 13.5527 15.2597 13.6464 15.3535C13.7402 15.4472 13.8674 15.4999 14 15.4999C14.1326 15.4999 14.2598 15.4472 14.3536 15.3535C14.4473 15.2597 14.5 15.1325 14.5 14.9999V12.4155C14.4972 11.4893 14.2679 10.5778 13.8322 9.76048C13.3964 8.94314 12.7674 8.24476 12 7.72616ZM5 4.99991H4C3.73478 4.99991 3.48043 5.10526 3.29289 5.2928C3.10536 5.48033 3 5.73469 3 5.99991V12.4999C3 12.6325 3.05268 12.7597 3.14645 12.8535C3.24021 12.9472 3.36739 12.9999 3.5 12.9999C3.63261 12.9999 3.75979 12.9472 3.85355 12.8535C3.94732 12.7597 4 12.6325 4 12.4999V5.99991H5C5.13261 5.99991 5.25979 5.94723 5.35355 5.85346C5.44732 5.75969 5.5 5.63251 5.5 5.49991C5.5 5.3673 5.44732 5.24012 5.35355 5.14635C5.25979 5.05258 5.13261 4.99991 5 4.99991Z" fill="currentColor"/>
</svg>