<svg xmlns="http://www.w3.org/2000/svg" width="12" height="12" viewBox="0 0 12 12" fill="none">
  <path d="M3.375 4.3125C3.375 4.42375 3.34201 4.53251 3.2802 4.62501C3.21839 4.71751 3.13054 4.78961 3.02776 4.83218C2.92498 4.87476 2.81188 4.8859 2.70276 4.86419C2.59365 4.84249 2.49342 4.78891 2.41475 4.71025C2.33609 4.63158 2.28251 4.53135 2.26081 4.42224C2.2391 4.31312 2.25024 4.20002 2.29282 4.09724C2.33539 3.99446 2.40749 3.90661 2.49999 3.8448C2.59249 3.78299 2.70125 3.75 2.8125 3.75C2.96168 3.75 3.10476 3.80926 3.21025 3.91475C3.31574 4.02024 3.375 4.16332 3.375 4.3125ZM6 3.75C5.88875 3.75 5.77999 3.78299 5.68749 3.8448C5.59499 3.90661 5.52289 3.99446 5.48032 4.09724C5.43774 4.20002 5.4266 4.31312 5.44831 4.42224C5.47001 4.53135 5.52359 4.63158 5.60225 4.71025C5.68092 4.78891 5.78115 4.84249 5.89026 4.86419C5.99938 4.8859 6.11248 4.87476 6.21526 4.83218C6.31804 4.78961 6.40589 4.71751 6.4677 4.62501C6.52951 4.53251 6.5625 4.42375 6.5625 4.3125C6.5625 4.16332 6.50324 4.02024 6.39775 3.91475C6.29226 3.80926 6.14918 3.75 6 3.75ZM9.1875 4.875C9.29875 4.875 9.40751 4.84201 9.50001 4.7802C9.59251 4.71839 9.66461 4.63054 9.70718 4.52776C9.74976 4.42498 9.7609 4.31188 9.73919 4.20276C9.71749 4.09365 9.66391 3.99342 9.58525 3.91475C9.50658 3.83609 9.40635 3.78251 9.29724 3.76081C9.18812 3.7391 9.07502 3.75024 8.97224 3.79282C8.86946 3.83539 8.78161 3.90749 8.7198 3.99999C8.65799 4.09249 8.625 4.20125 8.625 4.3125C8.625 4.46168 8.68426 4.60476 8.78975 4.71025C8.89524 4.81574 9.03832 4.875 9.1875 4.875ZM2.8125 7.125C2.70125 7.125 2.59249 7.15799 2.49999 7.2198C2.40749 7.28161 2.33539 7.36946 2.29282 7.47224C2.25024 7.57502 2.2391 7.68812 2.26081 7.79724C2.28251 7.90635 2.33609 8.00658 2.41475 8.08525C2.49342 8.16391 2.59365 8.21749 2.70276 8.23919C2.81188 8.2609 2.92498 8.24976 3.02776 8.20718C3.13054 8.16461 3.21839 8.09251 3.2802 8.00001C3.34201 7.90751 3.375 7.79875 3.375 7.6875C3.375 7.53832 3.31574 7.39524 3.21025 7.28975C3.10476 7.18426 2.96168 7.125 2.8125 7.125ZM6 7.125C5.88875 7.125 5.77999 7.15799 5.68749 7.2198C5.59499 7.28161 5.52289 7.36946 5.48032 7.47224C5.43774 7.57502 5.4266 7.68812 5.44831 7.79724C5.47001 7.90635 5.52359 8.00658 5.60225 8.08525C5.68092 8.16391 5.78115 8.21749 5.89026 8.23919C5.99938 8.2609 6.11248 8.24976 6.21526 8.20718C6.31804 8.16461 6.40589 8.09251 6.4677 8.00001C6.52951 7.90751 6.5625 7.79875 6.5625 7.6875C6.5625 7.53832 6.50324 7.39524 6.39775 7.28975C6.29226 7.18426 6.14918 7.125 6 7.125ZM9.1875 7.125C9.07625 7.125 8.96749 7.15799 8.87499 7.2198C8.78249 7.28161 8.71039 7.36946 8.66782 7.47224C8.62524 7.57502 8.6141 7.68812 8.63581 7.79724C8.65751 7.90635 8.71109 8.00658 8.78975 8.08525C8.86842 8.16391 8.96865 8.21749 9.07776 8.23919C9.18688 8.2609 9.29998 8.24976 9.40276 8.20718C9.50554 8.16461 9.59339 8.09251 9.6552 8.00001C9.71701 7.90751 9.75 7.79875 9.75 7.6875C9.75 7.53832 9.69074 7.39524 9.58525 7.28975C9.47976 7.18426 9.33668 7.125 9.1875 7.125Z" fill="#7D8497"/>
</svg>