<svg xmlns="http://www.w3.org/2000/svg" width="14" height="12" viewBox="0 0 14 12" fill="currentColor">
  <path d="M13.973 5.8423C13.4241 4.42241 12.4712 3.19448 11.232 2.31029C9.99278 1.4261 8.52165 0.924393 7.00043 0.867188C5.4792 0.924393 4.00807 1.4261 2.76888 2.31029C1.52968 3.19448 0.576728 4.42241 0.0278039 5.8423C-0.00926798 5.94484 -0.00926798 6.05712 0.0278039 6.15966C0.576728 7.57955 1.52968 8.80747 2.76888 9.69167C4.00807 10.5759 5.4792 11.0776 7.00043 11.1348C8.52165 11.0776 9.99278 10.5759 11.232 9.69167C12.4712 8.80747 13.4241 7.57955 13.973 6.15966C14.0101 6.05712 14.0101 5.94484 13.973 5.8423ZM7.00043 10.2014C4.52687 10.2014 1.91331 8.36719 0.965888 6.00098C1.91331 3.63477 4.52687 1.8006 7.00043 1.8006C9.47398 1.8006 12.0875 3.63477 13.035 6.00098C12.0875 8.36719 9.47398 10.2014 7.00043 10.2014Z" fill="#7D8497"/>
  <path d="M7.00045 3.19922C6.44661 3.19922 5.90521 3.36345 5.44471 3.67115C4.98421 3.97884 4.6253 4.41618 4.41335 4.92786C4.20141 5.43954 4.14595 6.00257 4.254 6.54577C4.36205 7.08897 4.62875 7.58792 5.02037 7.97954C5.41199 8.37117 5.91095 8.63786 6.45414 8.74591C6.99734 8.85396 7.56038 8.79851 8.07206 8.58656C8.58373 8.37462 9.02107 8.0157 9.32877 7.5552C9.63646 7.09471 9.8007 6.55331 9.8007 5.99947C9.8007 5.2568 9.50567 4.54454 8.98052 4.01939C8.45537 3.49424 7.74312 3.19922 7.00045 3.19922ZM7.00045 7.8663C6.63122 7.8663 6.27029 7.75681 5.96329 7.55168C5.65629 7.34655 5.41701 7.05499 5.27572 6.71387C5.13442 6.37276 5.09745 5.9974 5.16948 5.63527C5.24152 5.27314 5.41931 4.9405 5.6804 4.67942C5.94148 4.41834 6.27411 4.24054 6.63625 4.16851C6.99838 4.09647 7.37373 4.13344 7.71485 4.27474C8.05597 4.41604 8.34753 4.65531 8.55266 4.96231C8.75779 5.26931 8.86728 5.63024 8.86728 5.99947C8.86728 6.49458 8.67059 6.96942 8.3205 7.31952C7.9704 7.66962 7.49556 7.8663 7.00045 7.8663Z" fill="#7D8497"/>
</svg>