<svg width="15" height="12" viewBox="0 0 15 12" fill="none" xmlns="http://www.w3.org/2000/svg">
<path d="M1.47852 3.18801H3.79883C3.92275 3.67199 4.20422 4.10096 4.59888 4.4073C4.99353 4.71364 5.47892 4.87992 5.97852 4.87992C6.47811 4.87992 6.9635 4.71364 7.35815 4.4073C7.75281 4.10096 8.03428 3.67199 8.1582 3.18801H13.8535C14.0027 3.18801 14.1458 3.12874 14.2513 3.02325C14.3568 2.91776 14.416 2.77469 14.416 2.62551C14.416 2.47632 14.3568 2.33325 14.2513 2.22776C14.1458 2.12227 14.0027 2.06301 13.8535 2.06301H8.1582C8.03428 1.57902 7.75281 1.15005 7.35815 0.843708C6.9635 0.53737 6.47811 0.371094 5.97852 0.371094C5.47892 0.371094 4.99353 0.53737 4.59888 0.843708C4.20422 1.15005 3.92275 1.57902 3.79883 2.06301H1.47852C1.32933 2.06301 1.18626 2.12227 1.08077 2.22776C0.975279 2.33325 0.916016 2.47632 0.916016 2.62551C0.916016 2.77469 0.975279 2.91776 1.08077 3.02325C1.18626 3.12874 1.32933 3.18801 1.47852 3.18801ZM5.97852 1.50051C6.20102 1.50051 6.41853 1.56649 6.60353 1.6901C6.78854 1.81372 6.93273 1.98942 7.01788 2.19499C7.10303 2.40055 7.12531 2.62675 7.0819 2.84498C7.03849 3.06321 6.93134 3.26367 6.77401 3.421C6.61668 3.57833 6.41622 3.68548 6.19799 3.72889C5.97976 3.7723 5.75356 3.75002 5.548 3.66487C5.34243 3.57972 5.16673 3.43553 5.04311 3.25052C4.9195 3.06552 4.85352 2.84801 4.85352 2.62551C4.85352 2.32714 4.97204 2.04099 5.18302 1.83001C5.394 1.61903 5.68015 1.50051 5.97852 1.50051ZM13.8535 8.81301H12.6582C12.5343 8.32902 12.2528 7.90005 11.8582 7.59371C11.4635 7.28737 10.9781 7.12109 10.4785 7.12109C9.97892 7.12109 9.49353 7.28737 9.09888 7.59371C8.70422 7.90005 8.42275 8.32902 8.29883 8.81301H1.47852C1.32933 8.81301 1.18626 8.87227 1.08077 8.97776C0.975279 9.08325 0.916016 9.22632 0.916016 9.37551C0.916016 9.52469 0.975279 9.66776 1.08077 9.77325C1.18626 9.87874 1.32933 9.93801 1.47852 9.93801H8.29883C8.42275 10.422 8.70422 10.851 9.09888 11.1573C9.49353 11.4636 9.97892 11.6299 10.4785 11.6299C10.9781 11.6299 11.4635 11.4636 11.8582 11.1573C12.2528 10.851 12.5343 10.422 12.6582 9.93801H13.8535C14.0027 9.93801 14.1458 9.87874 14.2513 9.77325C14.3568 9.66776 14.416 9.52469 14.416 9.37551C14.416 9.22632 14.3568 9.08325 14.2513 8.97776C14.1458 8.87227 14.0027 8.81301 13.8535 8.81301ZM10.4785 10.5005C10.256 10.5005 10.0385 10.4345 9.8535 10.3109C9.66849 10.1873 9.5243 10.0116 9.43915 9.80602C9.354 9.60046 9.33172 9.37426 9.37513 9.15603C9.41854 8.9378 9.52569 8.73734 9.68302 8.58001C9.84035 8.42268 10.0408 8.31553 10.259 8.27212C10.4773 8.22871 10.7035 8.25099 10.909 8.33614C11.1146 8.42129 11.2903 8.56548 11.4139 8.75049C11.5375 8.93549 11.6035 9.153 11.6035 9.37551C11.6035 9.67387 11.485 9.96002 11.274 10.171C11.063 10.382 10.7769 10.5005 10.4785 10.5005Z" fill="#7D8497"/>
</svg>
