<svg width="24" height="24" viewBox="0 0 24 24" fill="#5BBCE7" xmlns="http://www.w3.org/2000/svg">
<path d="M11.1669 6.39385C8.86338 6.56702 6.64068 7.31795 4.70414 8.57727C4.95737 7.5682 5.49368 6.65251 6.24992 5.93806C7.00616 5.22361 7.95082 4.74014 8.97263 4.54462C9.24302 4.49022 9.5222 4.49754 9.78937 4.56601C10.0565 4.63448 10.3048 4.76234 10.5157 4.94008C10.7266 5.11781 10.8947 5.34084 11.0074 5.59255C11.1202 5.84426 11.1747 6.11816 11.1669 6.39385ZM21.7123 6.37469C21.4096 5.96055 21.0256 5.61246 20.5839 5.35168C20.1421 5.0909 19.6519 4.92291 19.143 4.85796C19.0781 4.34912 18.9101 3.85885 18.6493 3.4171C18.3885 2.97536 18.0404 2.59141 17.6263 2.2887C17.4139 2.12887 17.1612 2.03132 16.8965 2.00699C16.6318 1.98265 16.3655 2.03249 16.1276 2.15092C15.8896 2.26935 15.6893 2.45169 15.5491 2.67752C15.4089 2.90335 15.3343 3.16376 15.3337 3.42958V7.83391C9.0693 7.83391 5.495 9.03145 3.63577 12.1624C5.60871 12.6778 7.40849 13.7101 8.8495 15.1528C10.2905 16.5956 11.3206 18.3966 11.8336 20.3702C14.9679 18.5118 16.1671 14.9367 16.1671 8.66727H20.5714C20.8372 8.66669 21.0976 8.59212 21.3235 8.45191C21.5493 8.31171 21.7316 8.1114 21.8501 7.87342C21.9685 7.63544 22.0183 7.36919 21.994 7.10449C21.9697 6.83978 21.8721 6.58708 21.7123 6.37469ZM18.0005 12.8341H17.6046C17.4789 13.9633 17.2521 15.0789 16.9271 16.1676H17.6055C19.678 16.2317 20.3439 12.9374 18.0005 12.8341ZM10.2927 21.0936C8.29261 21.6669 4.84498 22.8795 2.97574 21.0252C2.64006 20.6906 2.37995 20.2879 2.21292 19.8443C2.04588 19.4007 1.9758 18.9264 2.00737 18.4535C2.08467 16.8358 2.3879 15.2369 2.90824 13.7033C4.71235 14.11 6.364 15.0203 7.67119 16.3285C8.97838 17.6368 9.88744 19.2891 10.2927 21.0936ZM6.1667 18.6676C6.1667 18.4466 6.0789 18.2347 5.92261 18.0784C5.76632 17.9221 5.55435 17.8343 5.33333 17.8343C5.11231 17.8343 4.90034 17.9221 4.74405 18.0784C4.58777 18.2347 4.49997 18.4466 4.49997 18.6676C4.49997 18.8887 4.58777 19.1006 4.74405 19.2569C4.90034 19.4132 5.11231 19.501 5.33333 19.501C5.55435 19.501 5.76632 19.4132 5.92261 19.2569C6.0789 19.1006 6.1667 18.8887 6.1667 18.6676Z" fill="#5BBCE7"/>
</svg>
