<svg width="14" height="15" viewBox="0 0 14 15" fill="none" xmlns="http://www.w3.org/2000/svg">
<path d="M0.340547 1.51499C0.280033 1.56744 0.231417 1.63221 0.19795 1.70497C0.164482 1.77772 0.146936 1.85678 0.146484 1.93686V13.7494C0.146484 13.8985 0.205748 14.0416 0.311237 14.1471C0.416726 14.2526 0.5598 14.3119 0.708984 14.3119C0.858169 14.3119 1.00124 14.2526 1.10673 14.1471C1.21222 14.0416 1.27148 13.8985 1.27148 13.7494V10.6394C3.15516 9.15163 4.77797 9.95389 6.64687 10.8792C7.8 11.4494 9.04172 12.064 10.3734 12.064C11.3529 12.064 12.3802 11.73 13.4545 10.7983C13.515 10.7459 13.5637 10.6811 13.5971 10.6084C13.6306 10.5356 13.6481 10.4566 13.6486 10.3765V1.93686C13.6483 1.8289 13.617 1.72328 13.5584 1.63263C13.4997 1.54198 13.4162 1.47013 13.3178 1.42565C13.2195 1.38117 13.1104 1.36594 13.0036 1.38178C12.8968 1.39762 12.7968 1.44386 12.7155 1.51499C10.7468 3.21866 9.07898 2.39319 7.14609 1.43624C5.14359 0.443426 2.8732 -0.679465 0.340547 1.51499ZM12.5215 10.1107C10.6378 11.5985 9.015 10.7955 7.14609 9.87092C5.38828 9.00257 3.43289 8.03366 1.27148 9.2803V2.20335C3.15516 0.715535 4.77797 1.5178 6.64687 2.44241C8.40469 3.31077 10.3608 4.27968 12.5215 3.03303V10.1107Z" fill="#7D8497"/>
</svg>
