<svg width="16" height="13" viewBox="0 0 16 13" fill="none" xmlns="http://www.w3.org/2000/svg">
<path d="M14.1875 2.0625H8.18773L6.23727 0.6C6.04225 0.454492 5.80558 0.375604 5.56227 0.375H1.8125C1.51413 0.375 1.22798 0.493526 1.017 0.704505C0.806026 0.915483 0.6875 1.20163 0.6875 1.5V11.0625C0.6875 11.3609 0.806026 11.647 1.017 11.858C1.22798 12.069 1.51413 12.1875 1.8125 12.1875H14.2501C14.5317 12.1871 14.8018 12.0751 15.0009 11.8759C15.2001 11.6768 15.3121 11.4067 15.3125 11.1251V3.1875C15.3125 2.88913 15.194 2.60298 14.983 2.392C14.772 2.18103 14.4859 2.0625 14.1875 2.0625ZM14.1875 11.0625H1.8125V1.5H5.56227L7.6625 3.075C7.75987 3.14803 7.87829 3.1875 8 3.1875H14.1875V11.0625ZM10.25 7.125C10.25 7.27418 10.1907 7.41726 10.0852 7.52275C9.97976 7.62824 9.83668 7.6875 9.6875 7.6875H8.5625V8.8125C8.5625 8.96168 8.50324 9.10476 8.39775 9.21025C8.29226 9.31574 8.14918 9.375 8 9.375C7.85082 9.375 7.70774 9.31574 7.60225 9.21025C7.49676 9.10476 7.4375 8.96168 7.4375 8.8125V7.6875H6.3125C6.16332 7.6875 6.02024 7.62824 5.91475 7.52275C5.80926 7.41726 5.75 7.27418 5.75 7.125C5.75 6.97582 5.80926 6.83274 5.91475 6.72725C6.02024 6.62176 6.16332 6.5625 6.3125 6.5625H7.4375V5.4375C7.4375 5.28832 7.49676 5.14524 7.60225 5.03975C7.70774 4.93426 7.85082 4.875 8 4.875C8.14918 4.875 8.29226 4.93426 8.39775 5.03975C8.50324 5.14524 8.5625 5.28832 8.5625 5.4375V6.5625H9.6875C9.83668 6.5625 9.97976 6.62176 10.0852 6.72725C10.1907 6.83274 10.25 6.97582 10.25 7.125Z" fill="#7D8497"/>
</svg>
