<svg xmlns="http://www.w3.org/2000/svg" width="25" height="24" viewBox="0 0 25 24" fill="currentColor">
  <path d="M8.80602 18.9694C8.91103 19.0743 8.98255 19.208 9.01154 19.3535C9.04053 19.4991 9.02567 19.65 8.96886 19.7871C8.91204 19.9242 8.81582 20.0414 8.69238 20.1238C8.56893 20.2062 8.42381 20.2501 8.27539 20.25H4.52539C4.32648 20.25 4.13571 20.171 3.99506 20.0303C3.85441 19.8897 3.77539 19.6989 3.77539 19.5V15.75C3.77527 15.6016 3.8192 15.4565 3.9016 15.333C3.984 15.2096 4.10118 15.1133 4.2383 15.0565C4.37542 14.9997 4.52631 14.9849 4.67187 15.0139C4.81743 15.0428 4.95112 15.1144 5.05602 15.2194L8.80602 18.9694ZM8.27539 3.75H4.52539C4.32648 3.75 4.13571 3.82902 3.99506 3.96967C3.85441 4.11032 3.77539 4.30109 3.77539 4.5V8.25C3.77527 8.39842 3.8192 8.54354 3.9016 8.66699C3.984 8.79043 4.10118 8.88665 4.2383 8.94347C4.37542 9.00028 4.52631 9.01514 4.67187 8.98615C4.81743 8.95716 4.95112 8.88563 5.05602 8.78063L8.80602 5.03063C8.91103 4.92573 8.98255 4.79204 9.01154 4.64648C9.04053 4.50092 9.02567 4.35002 8.96886 4.21291C8.91204 4.07579 8.81582 3.95861 8.69238 3.87621C8.56893 3.79381 8.42381 3.74988 8.27539 3.75ZM19.8123 15.0572C19.6752 15.0003 19.5244 14.9854 19.3789 15.0143C19.2334 15.0431 19.0997 15.1145 18.9948 15.2194L15.2448 18.9694C15.1398 19.0743 15.0682 19.208 15.0392 19.3535C15.0103 19.4991 15.0251 19.65 15.0819 19.7871C15.1387 19.9242 15.235 20.0414 15.3584 20.1238C15.4818 20.2062 15.627 20.2501 15.7754 20.25H19.5254C19.7243 20.25 19.9151 20.171 20.0557 20.0303C20.1964 19.8897 20.2754 19.6989 20.2754 19.5V15.75C20.2754 15.6017 20.2313 15.4567 20.1489 15.3334C20.0665 15.21 19.9493 15.1139 19.8123 15.0572ZM19.5254 3.75H15.7754C15.627 3.74988 15.4818 3.79381 15.3584 3.87621C15.235 3.95861 15.1387 4.07579 15.0819 4.21291C15.0251 4.35002 15.0103 4.50092 15.0392 4.64648C15.0682 4.79204 15.1398 4.92573 15.2448 5.03063L18.9948 8.78063C19.0997 8.88563 19.2333 8.95716 19.3789 8.98615C19.5245 9.01514 19.6754 9.00028 19.8125 8.94347C19.9496 8.88665 20.0668 8.79043 20.1492 8.66699C20.2316 8.54354 20.2755 8.39842 20.2754 8.25V4.5C20.2754 4.30109 20.1964 4.11032 20.0557 3.96967C19.9151 3.82902 19.7243 3.75 19.5254 3.75Z" fill="currentColor"/>
</svg>