<svg viewBox="0 0 18 18" fill="currentColor" xmlns="http://www.w3.org/2000/svg">
<path d="M16.1479 15.3519L12.6273 11.8321C13.6477 10.6071 14.1566 9.03577 14.048 7.44512C13.9394 5.85447 13.2217 4.36692 12.0443 3.29193C10.8668 2.21693 9.32029 1.63725 7.72635 1.67348C6.13241 1.7097 4.6138 2.35904 3.48642 3.48642C2.35904 4.6138 1.7097 6.13241 1.67348 7.72635C1.63725 9.32029 2.21693 10.8668 3.29193 12.0443C4.36692 13.2217 5.85447 13.9394 7.44512 14.048C9.03577 14.1566 10.6071 13.6477 11.8321 12.6273L15.3519 16.1479C15.4042 16.2001 15.4663 16.2416 15.5345 16.2699C15.6028 16.2982 15.676 16.3127 15.7499 16.3127C15.8238 16.3127 15.897 16.2982 15.9653 16.2699C16.0336 16.2416 16.0956 16.2001 16.1479 16.1479C16.2001 16.0956 16.2416 16.0336 16.2699 15.9653C16.2982 15.897 16.3127 15.8238 16.3127 15.7499C16.3127 15.676 16.2982 15.6028 16.2699 15.5345C16.2416 15.4663 16.2001 15.4042 16.1479 15.3519ZM2.81242 7.87492C2.81242 6.87365 3.10933 5.89487 3.6656 5.06234C4.22188 4.22982 5.01253 3.58095 5.93758 3.19778C6.86263 2.81461 7.88053 2.71435 8.86256 2.90969C9.84459 3.10503 10.7466 3.58718 11.4546 4.29519C12.1626 5.00319 12.6448 5.90524 12.8401 6.88727C13.0355 7.8693 12.9352 8.8872 12.5521 9.81225C12.1689 10.7373 11.52 11.528 10.6875 12.0842C9.85497 12.6405 8.87618 12.9374 7.87492 12.9374C6.53272 12.9359 5.24591 12.4021 4.29683 11.453C3.34775 10.5039 2.81391 9.21712 2.81242 7.87492Z" fill="currentColor"/>
<path fill-rule="evenodd" clip-rule="evenodd" d="M4.87476 7.93096C4.87476 7.69168 5.07008 7.50142 5.30596 7.46122C5.49456 7.42908 5.67942 7.37588 5.85701 7.30232C6.16842 7.17333 6.45137 6.98427 6.68972 6.74592C6.92806 6.50758 7.11712 6.22462 7.24612 5.91321C7.31967 5.73562 7.37288 5.55077 7.40502 5.36217C7.44522 5.12629 7.63547 4.87476 7.87476 4.87476C8.11404 4.87476 8.3043 5.12629 8.34449 5.36217C8.37663 5.55077 8.42984 5.73562 8.5034 5.91321C8.63239 6.22462 8.82145 6.50758 9.0598 6.74592C9.29814 6.98427 9.58109 7.17333 9.89251 7.30232C10.0701 7.37588 10.255 7.42908 10.4435 7.46122C10.6794 7.50142 10.8748 7.69168 10.8748 7.93096C10.8748 8.17025 10.6794 8.3605 10.4435 8.4007C10.255 8.43284 10.0701 8.48604 9.89251 8.5596C9.58109 8.68859 9.29814 8.87766 9.05979 9.116C8.82145 9.35435 8.63239 9.6373 8.5034 9.94871C8.42984 10.1263 8.37664 10.3112 8.34449 10.4998C8.3043 10.7356 8.11404 10.8748 7.87476 10.8748C7.63547 10.8748 7.44522 10.7356 7.40502 10.4998C7.37288 10.3112 7.31967 10.1263 7.24612 9.94871C7.11712 9.6373 6.92806 9.35435 6.68972 9.116C6.45137 8.87766 6.16842 8.68859 5.85701 8.5596C5.67942 8.48604 5.49456 8.43284 5.30596 8.4007C5.07008 8.3605 4.87476 8.17025 4.87476 7.93096ZM7.87475 6.47713C8.03434 6.78676 8.24116 7.07034 8.48827 7.31745C8.73538 7.56456 9.01896 7.77138 9.32859 7.93096C9.01896 8.09055 8.73538 8.29737 8.48827 8.54448C8.24116 8.79159 8.03434 9.07517 7.87476 9.3848C7.71517 9.07517 7.50835 8.79159 7.26124 8.54448C7.01413 8.29737 6.73055 8.09055 6.42092 7.93096C6.73055 7.77138 7.01413 7.56456 7.26124 7.31745C7.50835 7.07034 7.71517 6.78676 7.87475 6.47713Z" fill="currentColor"/>
</svg>
