<svg width="20" height="16" viewBox="0 0 20 16" fill="none" xmlns="http://www.w3.org/2000/svg">
<path d="M9.71537 3.50113L6.5089 5.18567L5.02148 2.68553L6.91313 0.755859L8.74028 0.973742L9.71537 3.50113Z" fill="#7D8497"/>
<path d="M2.13305 5.09138L1.78125 3.16288L4.49018 1.23438L4.53015 2.62018L2.13305 5.09138Z" fill="#7D8497"/>
<path d="M3.7789 9.48535L6.22894 5.42123L4.75009 2.80664L2.16016 5.53154L3.7789 9.48535Z" fill="#7D8497"/>
<path d="M4.0957 9.50825L6.25143 9.39055C6.06962 8.158 6.50773 7.42506 6.50773 7.42506L6.38613 5.78711L4.0957 9.50825Z" fill="#7D8497"/>
<path d="M3.44303 9.51948L2.49221 9.64146C2.40137 7.94719 1.92188 7.24423 1.92188 7.24423L2.02777 5.92383L3.44303 9.51948Z" fill="#7D8497"/>
<path d="M4.27734 12.3535L5.3966 15.3622L10.544 13.9355L4.27734 12.3535Z" fill="#7D8497"/>
<path d="M10.6687 13.6549L9.34404 11.8145C9.34404 11.8145 7.09618 11.7025 6.32301 9.70898L3.92578 9.8481L4.20297 11.9884L10.6687 13.6549Z" fill="#7D8497"/>
<path d="M7.999 5.94019L6.74219 5.69727L6.83874 6.87246C6.83887 6.87233 7.12137 6.30614 7.999 5.94019Z" fill="#7D8497"/>
<path d="M1.08398 6.26305L1.74685 5.84961L1.64355 6.82496C1.64355 6.82496 1.45422 6.44707 1.08398 6.26305Z" fill="#7D8497"/>
<path d="M0.800964 6.0753L1.84833 5.41309L1.5387 3.39258L0.162109 5.972C0.162109 5.972 0.51625 5.9249 0.800964 6.0753Z" fill="#7D8497"/>
<path d="M0.707026 12.553L0.624752 11.7078C0.342504 11.5123 0.205078 11.3652 0.205078 11.3652L0.707026 12.553Z" fill="#7D8497"/>
<path d="M11.405 14.9587L10.9479 14.1016L5.83008 15.5903L11.405 14.9587Z" fill="#7D8497"/>
<path d="M11.0427 13.6287L15.0592 10.7124C15.0592 10.7124 14.1638 10.1692 14.194 8.68342L13.7127 8.67188L13.4778 8.90468C12.8823 11.7555 9.76758 11.7845 9.76758 11.7845L11.0427 13.6287Z" fill="#7D8497"/>
<path d="M10.0786 3.31588L11.6742 1.73192L9.16602 1.04492L10.0786 3.31588Z" fill="#7D8497"/>
<path d="M4.87585 2.40289L6.53482 0.755859L4.82031 1.13245L4.87585 2.40289Z" fill="#7D8497"/>
<path d="M18.2444 3.87745L19.9999 2.67488L17.2109 2.25391L18.2444 3.87745Z" fill="#7D8497"/>
<path d="M17.0576 1.96046L19.9628 2.44528L16.6504 1.43555L17.0576 1.96046Z" fill="#7D8497"/>
<path d="M10.3945 3.4541L13.5848 3.00094L11.9812 1.89453L10.3945 3.4541Z" fill="#7D8497"/>
<path d="M12.2949 1.72104L14.0594 2.94178L16.752 2.04624L16.3503 1.43555L12.2949 1.72104Z" fill="#7D8497"/>
<path d="M10.5117 3.77513L14.5969 7.00535L13.7247 3.31445L10.5117 3.77513Z" fill="#7D8497"/>
<path d="M14.5882 7.40821L9.94055 3.83008L6.87891 5.3319L8.80715 5.67138C10.7336 5.09131 12.9452 5.97997 13.394 7.7473L13.9022 8.31932L14.212 8.33139C14.212 8.33139 14.2412 7.86435 14.5882 7.40821Z" fill="#7D8497"/>
<path d="M11.7043 14.8098L14.4468 13.1902L15.2371 10.9395L11.2363 13.9153L11.7043 14.8098Z" fill="#7D8497"/>
<path d="M1.78906 13.8373L5.04718 15.3187L3.97217 12.3867L1.78906 13.8373Z" fill="#7D8497"/>
<path d="M1.53956 13.629L3.8854 12.0693L3.58343 9.88281L2.52257 10.0284C2.54826 11.4843 1.40499 11.9016 0.917969 11.7559L1.0262 12.9869L1.53956 13.629Z" fill="#7D8497"/>
<path d="M16.0102 9.96636C16.3653 9.96636 16.6532 9.43742 16.6532 8.78494C16.6532 8.13246 16.3653 7.60352 16.0102 7.60352C15.6551 7.60352 15.3672 8.13246 15.3672 8.78494C15.3672 9.43742 15.6551 9.96636 16.0102 9.96636Z" fill="#7D8497"/>
<path d="M16.4974 6.73438L16.5505 7.17287C16.5505 7.17287 16.4537 7.04336 16.2383 6.93266L16.4974 6.73438Z" fill="#7D8497"/>
<path d="M15.6634 10.8225L15.1602 12.2219L16.0792 10.752C16.0792 10.752 15.88 10.8507 15.6634 10.8225Z" fill="#7D8497"/>
<path d="M16.0104 10.3019C15.4525 10.3019 15.0317 9.64964 15.0317 8.78486C15.0317 7.91995 15.4524 7.26785 16.0104 7.26785C16.1543 7.26785 16.289 7.31159 16.4098 7.39075C16.2171 7.19518 15.9824 7.08008 15.7288 7.08008C15.0749 7.08008 14.5449 7.84338 14.5449 8.78486C14.5449 9.72634 15.075 10.4896 15.7288 10.4896C15.9824 10.4896 16.2171 10.3744 16.4098 10.179C16.289 10.2583 16.1543 10.3019 16.0104 10.3019Z" fill="#7D8497"/>
<path d="M6.39111 0.499308L4.45975 0.9086L1.72266 2.80609L1.98168 1.96129L4.12482 0.410156L6.39111 0.499308Z" fill="#7D8497"/>
<path d="M8.23882 7.88756C8.61828 7.56247 8.74728 7.09046 8.52696 6.83329C8.30665 6.57613 7.82043 6.6312 7.44097 6.95629C7.06152 7.28138 6.93251 7.75339 7.15283 8.01056C7.37315 8.26772 7.85936 8.21265 8.23882 7.88756Z" fill="#7D8497"/>
<path d="M1.06684 7.70575C1.32917 7.481 1.40934 7.14416 1.24591 6.9534C1.08248 6.76263 0.737329 6.79018 0.474996 7.01493C0.212663 7.23968 0.132488 7.57652 0.29592 7.76728C0.459352 7.95804 0.804503 7.93049 1.06684 7.70575Z" fill="#7D8497"/>
<path d="M14.9577 6.94886L17.9991 4.03476L16.9213 2.30078L14.127 3.25433L14.9577 6.94886Z" fill="#7D8497"/>
<path d="M18.0878 4.30859L15.5156 6.80782C15.5156 6.80782 15.696 6.75371 15.9598 6.8243L17.461 5.697L18.0878 4.30859Z" fill="#7D8497"/>
</svg>
