<svg width="20" height="20" viewBox="0 0 20 20" fill="none" xmlns="http://www.w3.org/2000/svg">
<path d="M9.71537 5.50113L6.5089 7.18567L5.02148 4.68553L6.91313 2.75586L8.74028 2.97374L9.71537 5.50113Z" fill="#FBBF24"/>
<path d="M2.13305 7.09138L1.78125 5.16288L4.49018 3.23438L4.53015 4.62018L2.13305 7.09138Z" fill="#FBBF24"/>
<path d="M3.7789 11.4853L6.22894 7.42123L4.75009 4.80664L2.16016 7.53154L3.7789 11.4853Z" fill="#FCD56E"/>
<path d="M4.0957 11.5082L6.25143 11.3905C6.06962 10.158 6.50773 9.42506 6.50773 9.42506L6.38613 7.78711L4.0957 11.5082Z" fill="#FBBF24"/>
<path d="M3.44303 11.5195L2.49221 11.6415C2.40137 9.94719 1.92188 9.24423 1.92188 9.24423L2.02777 7.92383L3.44303 11.5195Z" fill="#FBBF24"/>
<path d="M4.27734 14.3535L5.3966 17.3622L10.544 15.9355L4.27734 14.3535Z" fill="#FBBF24"/>
<path d="M10.6687 15.6549L9.34404 13.8145C9.34404 13.8145 7.09618 13.7025 6.32301 11.709L3.92578 11.8481L4.20297 13.9884L10.6687 15.6549Z" fill="#FBBF24"/>
<path d="M7.999 7.94019L6.74219 7.69727L6.83874 8.87246C6.83887 8.87233 7.12137 8.30614 7.999 7.94019Z" fill="#FBBF24"/>
<path d="M1.08398 8.26305L1.74685 7.84961L1.64355 8.82496C1.64355 8.82496 1.45422 8.44707 1.08398 8.26305Z" fill="#FBBF24"/>
<path d="M0.800964 8.0753L1.84833 7.41309L1.5387 5.39258L0.162109 7.972C0.162109 7.972 0.51625 7.9249 0.800964 8.0753Z" fill="#FBBF24"/>
<path d="M0.707026 14.553L0.624752 13.7078C0.342504 13.5123 0.205078 13.3652 0.205078 13.3652L0.707026 14.553Z" fill="#FBBF24"/>
<path d="M11.405 16.9587L10.9479 16.1016L5.83008 17.5903L11.405 16.9587Z" fill="#FBBF24"/>
<path d="M11.0427 15.6287L15.0592 12.7124C15.0592 12.7124 14.1638 12.1692 14.194 10.6834L13.7127 10.6719L13.4778 10.9047C12.8823 13.7555 9.76758 13.7845 9.76758 13.7845L11.0427 15.6287Z" fill="#FBBF24"/>
<path d="M10.0786 5.31588L11.6742 3.73192L9.16602 3.04492L10.0786 5.31588Z" fill="#FBBF24"/>
<path d="M4.87585 4.40289L6.53482 2.75586L4.82031 3.13245L4.87585 4.40289Z" fill="#FBBF24"/>
<path d="M18.2444 5.87745L19.9999 4.67488L17.2109 4.25391L18.2444 5.87745Z" fill="#FBBF24"/>
<path d="M17.0576 3.96046L19.9628 4.44528L16.6504 3.43555L17.0576 3.96046Z" fill="#FBBF24"/>
<path d="M10.3945 5.4541L13.5848 5.00094L11.9812 3.89453L10.3945 5.4541Z" fill="#FBBF24"/>
<path d="M12.2949 3.72104L14.0594 4.94178L16.752 4.04624L16.3503 3.43555L12.2949 3.72104Z" fill="#FBBF24"/>
<path d="M10.5117 5.77513L14.5969 9.00535L13.7247 5.31445L10.5117 5.77513Z" fill="#FBBF24"/>
<path d="M14.5882 9.40821L9.94055 5.83008L6.87891 7.3319L8.80715 7.67138C10.7336 7.09131 12.9452 7.97997 13.394 9.7473L13.9022 10.3193L14.212 10.3314C14.212 10.3314 14.2412 9.86435 14.5882 9.40821Z" fill="#FBBF24"/>
<path d="M11.7043 16.8098L14.4468 15.1902L15.2371 12.9395L11.2363 15.9153L11.7043 16.8098Z" fill="#FBBF24"/>
<path d="M1.78906 15.8373L5.04718 17.3187L3.97217 14.3867L1.78906 15.8373Z" fill="#FBBF24"/>
<path d="M1.53956 15.629L3.8854 14.0693L3.58343 11.8828L2.52257 12.0284C2.54826 13.4843 1.40499 13.9016 0.917969 13.7559L1.0262 14.9869L1.53956 15.629Z" fill="#FBBF24"/>
<path d="M16.0102 11.9664C16.3653 11.9664 16.6532 11.4374 16.6532 10.7849C16.6532 10.1325 16.3653 9.60352 16.0102 9.60352C15.6551 9.60352 15.3672 10.1325 15.3672 10.7849C15.3672 11.4374 15.6551 11.9664 16.0102 11.9664Z" fill="#FCD56E"/>
<path d="M16.4974 8.73438L16.5505 9.17287C16.5505 9.17287 16.4537 9.04336 16.2383 8.93266L16.4974 8.73438Z" fill="#FBBF24"/>
<path d="M15.6634 12.8225L15.1602 14.2219L16.0792 12.752C16.0792 12.752 15.88 12.8507 15.6634 12.8225Z" fill="#FBBF24"/>
<path d="M16.0104 12.3019C15.4525 12.3019 15.0317 11.6496 15.0317 10.7849C15.0317 9.91995 15.4524 9.26785 16.0104 9.26785C16.1543 9.26785 16.289 9.31159 16.4098 9.39075C16.2171 9.19518 15.9824 9.08008 15.7288 9.08008C15.0749 9.08008 14.5449 9.84338 14.5449 10.7849C14.5449 11.7263 15.075 12.4896 15.7288 12.4896C15.9824 12.4896 16.2171 12.3744 16.4098 12.179C16.289 12.2583 16.1543 12.3019 16.0104 12.3019Z" fill="#FBBF24"/>
<path d="M6.39111 2.49931L4.45975 2.9086L1.72266 4.80609L1.98168 3.96129L4.12482 2.41016L6.39111 2.49931Z" fill="#FCD56E"/>
<path d="M8.23882 9.88756C8.61828 9.56247 8.74728 9.09046 8.52696 8.83329C8.30665 8.57613 7.82043 8.6312 7.44097 8.95629C7.06152 9.28138 6.93251 9.75339 7.15283 10.0106C7.37315 10.2677 7.85936 10.2126 8.23882 9.88756Z" fill="#FCD56E"/>
<path d="M1.06684 9.70575C1.32917 9.481 1.40934 9.14416 1.24591 8.9534C1.08248 8.76263 0.737329 8.79018 0.474996 9.01493C0.212663 9.23968 0.132488 9.57652 0.29592 9.76728C0.459352 9.95804 0.804503 9.93049 1.06684 9.70575Z" fill="#FCD56E"/>
<path d="M14.9577 8.94886L17.9991 6.03476L16.9213 4.30078L14.127 5.25433L14.9577 8.94886Z" fill="#FBBF24"/>
<path d="M18.0878 6.30859L15.5156 8.80782C15.5156 8.80782 15.696 8.75371 15.9598 8.8243L17.461 7.697L18.0878 6.30859Z" fill="#FCD56E"/>
</svg>
