<svg width="20" height="20" viewBox="0 0 20 20" fill="currentColor" xmlns="http://www.w3.org/2000/svg">
  <path d="M17.5 9.99996C17.5 11.4316 17.0711 12.8318 16.2661 14.0279C15.4611 15.224 14.3153 16.1635 12.9701 16.7304C11.625 17.2974 10.1394 17.4669 8.69683 17.2182C7.25421 16.9694 5.91772 16.3133 4.85234 15.3307C4.79263 15.2755 4.74462 15.2094 4.71105 15.1362C4.67748 15.0629 4.65901 14.9839 4.65668 14.9036C4.65436 14.8233 4.66824 14.7434 4.69752 14.6684C4.7268 14.5934 4.77092 14.5248 4.82734 14.4664C4.9413 14.3485 5.0985 14.2798 5.26435 14.2752C5.34648 14.2729 5.42825 14.2865 5.50501 14.3151C5.58177 14.3437 5.65201 14.3868 5.71172 14.442C6.60527 15.2658 7.72742 15.814 8.93796 16.0181C10.1485 16.2223 11.3938 16.0732 12.5181 15.5897C13.6425 15.1061 14.5961 14.3094 15.2598 13.2992C15.9236 12.289 16.2679 11.1101 16.25 9.9097C16.232 8.70932 15.8524 7.54073 15.1587 6.54995C14.465 5.55917 13.488 4.79014 12.3496 4.33895C11.2112 3.88776 9.96203 3.77441 8.75812 4.01308C7.5542 4.25174 6.44895 4.83183 5.58047 5.68087C5.30469 5.95344 5.04531 6.22142 4.79297 6.48788L6.06719 7.73543C6.1547 7.82086 6.2143 7.92973 6.23846 8.04828C6.26261 8.16682 6.25023 8.28971 6.20289 8.40138C6.15554 8.51305 6.07536 8.60847 5.97249 8.67558C5.86962 8.74269 5.74869 8.77846 5.625 8.77837H2.5C2.33424 8.77837 2.17527 8.71401 2.05806 8.59947C1.94085 8.48492 1.875 8.32956 1.875 8.16757V5.11359C1.8749 4.99272 1.91151 4.87453 1.98017 4.774C2.04884 4.67347 2.14649 4.59511 2.26076 4.54884C2.37502 4.50257 2.50076 4.49047 2.62207 4.51408C2.74337 4.53769 2.85478 4.59594 2.94219 4.68146L3.90625 5.62513C4.15781 5.35867 4.41719 5.09069 4.69219 4.81965C5.74069 3.79323 7.07723 3.09388 8.53262 2.81011C9.98801 2.52635 11.4968 2.67094 12.8681 3.22557C14.2394 3.7802 15.4114 4.71994 16.236 5.92585C17.0605 7.13176 17.5004 8.54961 17.5 9.99996ZM10 5.72439C9.83424 5.72439 9.67527 5.78874 9.55806 5.90329C9.44085 6.01783 9.375 6.17319 9.375 6.33518V9.99996C9.37497 10.1054 9.40287 10.2091 9.45599 10.3008C9.50911 10.3926 9.58563 10.4694 9.67812 10.5237L12.8031 12.3561C12.8735 12.3974 12.9515 12.4248 13.0327 12.4366C13.1139 12.4485 13.1967 12.4445 13.2764 12.4251C13.356 12.4057 13.431 12.3711 13.497 12.3234C13.563 12.2757 13.6187 12.2157 13.6609 12.1469C13.7032 12.0781 13.7312 12.0019 13.7433 11.9225C13.7554 11.8432 13.7514 11.7623 13.7316 11.6844C13.7117 11.6066 13.6763 11.5333 13.6275 11.4688C13.5786 11.4043 13.5173 11.3499 13.4469 11.3086L10.625 9.65409V6.33518C10.625 6.17319 10.5592 6.01783 10.4419 5.90329C10.3247 5.78874 10.1658 5.72439 10 5.72439Z" fill="currentColor"/>
</svg>