<svg width="11" height="16" viewBox="0 0 11 16" fill="none" xmlns="http://www.w3.org/2000/svg">
<path d="M10.7285 4.31844V1.8125C10.7285 1.51413 10.61 1.22798 10.399 1.017C10.188 0.806026 9.90188 0.6875 9.60352 0.6875H1.72852C1.43015 0.6875 1.144 0.806026 0.93302 1.017C0.722042 1.22798 0.603516 1.51413 0.603516 1.8125V4.34375C0.603896 4.51833 0.644726 4.69045 0.722802 4.84661C0.800878 5.00276 0.914077 5.1387 1.05352 5.24375L4.72875 8L1.05352 10.7562C0.914077 10.8613 0.800878 10.9972 0.722802 11.1534C0.644726 11.3095 0.603896 11.4817 0.603516 11.6562V14.1875C0.603516 14.4859 0.722042 14.772 0.93302 14.983C1.144 15.194 1.43015 15.3125 1.72852 15.3125H9.60352C9.90188 15.3125 10.188 15.194 10.399 14.983C10.61 14.772 10.7285 14.4859 10.7285 14.1875V11.6816C10.7281 11.5076 10.6876 11.3362 10.6102 11.1804C10.5328 11.0247 10.4205 10.8889 10.282 10.7837L6.59906 8L10.282 5.21563C10.4205 5.11057 10.5329 4.97494 10.6103 4.81931C10.6878 4.66368 10.7282 4.49227 10.7285 4.31844ZM9.60352 14.1875H1.72852V11.6562L5.66602 8.70312L9.60352 11.6809V14.1875ZM9.60352 4.31844L5.66602 7.29688L1.72852 4.34375V1.8125H9.60352V4.31844Z" fill="#7D8497"/>
</svg>
