<svg xmlns="http://www.w3.org/2000/svg" width="21" height="20" viewBox="0 0 21 20" fill="currentColor">
  <path d="M10.8999 1.875C9.29293 1.875 7.72205 2.35152 6.3859 3.24431C5.04975 4.1371 4.00835 5.40605 3.39338 6.8907C2.77842 8.37535 2.61752 10.009 2.93103 11.5851C3.24453 13.1612 4.01836 14.6089 5.15466 15.7452C6.29097 16.8815 7.7387 17.6554 9.3148 17.9689C10.8909 18.2824 12.5246 18.1215 14.0092 17.5065C15.4939 16.8916 16.7628 15.8502 17.6556 14.514C18.5484 13.1779 19.0249 11.607 19.0249 10C19.0226 7.84581 18.1659 5.78051 16.6426 4.25727C15.1194 2.73403 13.0541 1.87727 10.8999 1.875ZM10.8999 16.875C9.54016 16.875 8.21095 16.4718 7.08036 15.7164C5.94977 14.9609 5.06859 13.8872 4.54823 12.6309C4.02788 11.3747 3.89173 9.99237 4.15701 8.65875C4.42228 7.32513 5.07706 6.10013 6.03855 5.13864C7.00003 4.17716 8.22504 3.52237 9.55866 3.2571C10.8923 2.99183 12.2746 3.12798 13.5309 3.64833C14.7871 4.16868 15.8608 5.04987 16.6163 6.18045C17.3717 7.31104 17.7749 8.64025 17.7749 10C17.7728 11.8227 17.0478 13.5702 15.759 14.8591C14.4701 16.1479 12.7226 16.8729 10.8999 16.875ZM12.1499 13.75C12.1499 13.9158 12.0841 14.0747 11.9668 14.1919C11.8496 14.3092 11.6907 14.375 11.5249 14.375C11.1934 14.375 10.8754 14.2433 10.641 14.0089C10.4066 13.7745 10.2749 13.4565 10.2749 13.125V10C10.1091 10 9.95017 9.93415 9.83296 9.81694C9.71575 9.69973 9.64991 9.54076 9.64991 9.375C9.64991 9.20924 9.71575 9.05027 9.83296 8.93306C9.95017 8.81585 10.1091 8.75 10.2749 8.75C10.6064 8.75 10.9244 8.8817 11.1588 9.11612C11.3932 9.35054 11.5249 9.66848 11.5249 10V13.125C11.6907 13.125 11.8496 13.1908 11.9668 13.3081C12.0841 13.4253 12.1499 13.5842 12.1499 13.75ZM9.64991 6.5625C9.64991 6.37708 9.70489 6.19582 9.8079 6.04165C9.91092 5.88748 10.0573 5.76732 10.2286 5.69636C10.3999 5.62541 10.5884 5.60684 10.7703 5.64301C10.9522 5.67919 11.1192 5.76848 11.2503 5.89959C11.3814 6.0307 11.4707 6.19775 11.5069 6.3796C11.5431 6.56146 11.5245 6.74996 11.4535 6.92127C11.3826 7.09257 11.2624 7.23899 11.1083 7.342C10.9541 7.44502 10.7728 7.5 10.5874 7.5C10.3388 7.5 10.1003 7.40123 9.92449 7.22541C9.74868 7.0496 9.64991 6.81114 9.64991 6.5625Z" fill="currentColor"/>
</svg>