<svg viewBox="0 0 18 18" fill="currentColor" xmlns="http://www.w3.org/2000/svg">
<path d="M17.4375 14.625C17.4375 14.7742 17.3782 14.9173 17.2727 15.0227C17.1673 15.1282 17.0242 15.1875 16.875 15.1875H1.125C0.975816 15.1875 0.832742 15.1282 0.727252 15.0227C0.621763 14.9173 0.5625 14.7742 0.5625 14.625C0.5625 14.4758 0.621763 14.3327 0.727252 14.2273C0.832742 14.1218 0.975816 14.0625 1.125 14.0625H1.6875V7.3125C1.6875 7.01413 1.80603 6.72798 2.017 6.517C2.22798 6.30603 2.51413 6.1875 2.8125 6.1875H5.625V3.9375C5.625 3.63913 5.74353 3.35298 5.9545 3.142C6.16548 2.93103 6.45163 2.8125 6.75 2.8125H11.25C11.5484 2.8125 11.8345 2.93103 12.0455 3.142C12.2565 3.35298 12.375 3.63913 12.375 3.9375V9H15.1875C15.4859 9 15.772 9.11853 15.983 9.32951C16.194 9.54048 16.3125 9.82663 16.3125 10.125V14.0625H16.875C17.0242 14.0625 17.1673 14.1218 17.2727 14.2273C17.3782 14.3327 17.4375 14.4758 17.4375 14.625ZM12.375 10.125V14.0625H15.1875V10.125H12.375ZM6.75 14.0625H11.25V3.9375H6.75V14.0625ZM2.8125 14.0625H5.625V7.3125H2.8125V14.0625Z" fill="currentColor"/>
</svg>
