<svg width="14" height="13" viewBox="0 0 14 13" xmlns="http://www.w3.org/2000/svg">
  <path class="fill-path" d="M10.0511 0.445312C9.42574 0.455039 8.81404 0.629601 8.27776 0.95137C7.74148 1.27314 7.2996 1.73072 6.99674 2.27791C6.69389 1.73072 6.25201 1.27314 5.71573 0.95137C5.17944 0.629601 4.56775 0.455039 3.94242 0.445312C2.94557 0.488623 2.00637 0.924705 1.33002 1.65829C0.65367 2.39187 0.295143 3.36332 0.332767 4.3604C0.332767 8.12277 6.41698 12.4682 6.67576 12.6526L6.99674 12.8797L7.31773 12.6526C7.57651 12.4694 13.6607 8.12277 13.6607 4.3604C13.6983 3.36332 13.3398 2.39187 12.6635 1.65829C11.9871 0.924705 11.0479 0.488623 10.0511 0.445312Z" fill="none" />
  <path class="stroke-path" d="M10.0511 0.445312C9.42574 0.455039 8.81404 0.629601 8.27776 0.95137C7.74148 1.27314 7.2996 1.73072 6.99674 2.27791C6.69389 1.73072 6.25201 1.27314 5.71573 0.95137C5.17944 0.629601 4.56775 0.455039 3.94242 0.445312C2.94557 0.488623 2.00637 0.924705 1.33002 1.65829C0.65367 2.39187 0.295143 3.36332 0.332767 4.3604C0.332767 8.12277 6.41698 12.4682 6.67576 12.6526L6.99674 12.8797L7.31773 12.6526C7.57651 12.4694 13.6607 8.12277 13.6607 4.3604C13.6983 3.36332 13.3398 2.39187 12.6635 1.65829C11.9871 0.924705 11.0479 0.488623 10.0511 0.445312Z" stroke="currentColor" fill="none" />
</svg>