<svg viewBox="0 0 18 18" fill="currentColor" xmlns="http://www.w3.org/2000/svg">
<path d="M10.2539 9.05837C10.2539 9.74608 9.69123 10.3088 9.00352 10.3088C8.3158 10.3088 7.75312 9.74608 7.75312 9.05837C7.75312 8.37065 8.3158 7.80798 9.00352 7.80798C9.69123 7.80798 10.2539 8.37065 10.2539 9.05837ZM14.7368 4.20631C14.513 3.94197 14.1131 3.9439 13.8691 4.18966C13.6263 4.4342 13.6299 4.82731 13.8483 5.09385C15.7287 7.38833 15.7287 10.7159 13.8483 13.0104C13.6301 13.2766 13.6272 13.6696 13.8707 13.913C14.1141 14.1564 14.5114 14.1577 14.7339 13.895C17.0955 11.1085 17.0965 6.99392 14.7368 4.20631ZM11.6575 6.40441C11.414 6.64784 11.4205 7.03988 11.611 7.32668C11.948 7.83424 12.1295 8.43234 12.1295 9.05837C12.1295 9.68565 11.9472 10.2814 11.6089 10.7905C11.4186 11.0769 11.4131 11.468 11.6563 11.7112C11.9004 11.9552 12.3004 11.9575 12.5077 11.6816C13.0731 10.9292 13.3799 10.0169 13.3799 9.05837C13.3799 8.09927 13.0727 7.18645 12.5068 6.43382C12.2998 6.15868 11.9009 6.16099 11.6575 6.40441ZM4.13971 4.20086C3.89502 3.9527 3.49237 3.95028 3.2677 4.21669C0.916677 7.00455 0.91858 11.1211 3.27341 13.9068C3.4957 14.1698 3.89312 14.1688 4.1366 13.9253C4.3799 13.682 4.37702 13.2893 4.15891 13.0231C2.27828 10.7286 2.27828 7.40067 4.1589 5.1061C4.37746 4.83944 4.38179 4.44637 4.13971 4.20086ZM6.35112 6.40911C6.10708 6.16334 5.70536 6.16047 5.49779 6.43772C4.33814 7.98664 4.33902 10.1345 5.50043 11.6825C5.70703 11.9579 6.10613 11.9557 6.34956 11.7123C6.59299 11.4689 6.58642 11.0768 6.3959 10.7901C5.70267 9.74671 5.70267 8.37628 6.3959 7.33291C6.58661 7.04587 6.59394 6.65365 6.35112 6.40911Z" fill="currentColor"/>
</svg>
