<svg width="111" height="17" viewBox="0 0 111 17" fill="currentColor" xmlns="http://www.w3.org/2000/svg">
<path d="M6.59 9.994L7.052 7.838H11.914L10.462 14.724C9.12733 15.78 7.57267 16.308 5.798 16.308C4.09667 16.308 2.72533 15.758 1.684 14.658C0.657333 13.5433 0.144 12.018 0.144 10.082C0.144 6.89933 0.936 4.472 2.52 2.8C4.11867 1.128 6.25267 0.291999 8.922 0.291999C10.5353 0.291999 11.826 0.511999 12.794 0.952L11.496 3.922C10.748 3.59933 9.802 3.438 8.658 3.438C7.13267 3.438 5.91533 3.988 5.006 5.088C4.11133 6.188 3.664 7.72067 3.664 9.686C3.664 10.8153 3.928 11.6807 4.456 12.282C4.984 12.8687 5.666 13.162 6.502 13.162C7.19133 13.162 7.76333 12.9787 8.218 12.612L8.724 10.302L6.59 9.994ZM12.1326 16L15.3886 0.599999H24.3646L23.6826 3.746H18.0726L17.4346 6.694H22.5386L21.8566 9.84H16.7746L16.1366 12.854H21.8786L21.2186 16H12.1326ZM34.5066 16L35.9806 9.07L37.0806 5.704H36.9266L35.4086 8.344L31.4926 13.514H30.3926L28.5446 8.256L28.1266 5.704H27.9946L27.7746 9.048L26.3006 16H23.1326L26.3886 0.599999H29.4906L31.5586 7.266L31.8446 9.048H31.9546L32.9666 7.222L37.8066 0.599999H41.1066L37.8506 16H34.5066ZM47.4523 11.732C47.4523 11.424 47.3203 11.138 47.0563 10.874C46.7923 10.5953 46.4623 10.3607 46.0663 10.17C45.6703 9.96467 45.2376 9.71533 44.7683 9.422C44.2989 9.12867 43.8663 8.82067 43.4703 8.498C43.0743 8.16067 42.7443 7.706 42.4803 7.134C42.2163 6.562 42.0843 5.91667 42.0843 5.198C42.0843 3.54067 42.6196 2.30867 43.6903 1.502C44.7756 0.695332 46.1836 0.291999 47.9143 0.291999C48.7503 0.291999 49.6009 0.387332 50.4663 0.577999C51.3463 0.768666 52.0136 0.996 52.4683 1.26L50.7743 4.23C49.9089 3.64333 48.9336 3.35 47.8483 3.35C47.1883 3.35 46.6163 3.46733 46.1323 3.702C45.6629 3.922 45.4283 4.28867 45.4283 4.802C45.4283 5.13933 45.5603 5.45467 45.8243 5.748C46.0883 6.02667 46.4183 6.26867 46.8143 6.474C47.2103 6.67933 47.6429 6.92867 48.1123 7.222C48.5816 7.51533 49.0143 7.82333 49.4103 8.146C49.8063 8.454 50.1363 8.87933 50.4003 9.422C50.6643 9.95 50.7963 10.5513 50.7963 11.226C50.7963 14.614 48.6623 16.308 44.3943 16.308C43.4409 16.308 42.5096 16.2053 41.6003 16C40.6909 15.7947 40.0456 15.5747 39.6642 15.34L41.3803 12.37C41.7029 12.5753 42.1943 12.7733 42.8543 12.964C43.5143 13.1547 44.1596 13.25 44.7903 13.25C46.5649 13.25 47.4523 12.744 47.4523 11.732ZM51.4061 16L54.6621 0.599999H63.6381L62.9561 3.746H57.3461L56.7081 6.694H61.8121L61.1301 9.84H56.0481L55.4101 12.854H61.1521L60.4921 16H51.4061ZM62.4061 16L65.6621 0.599999H74.6381L73.9561 3.746H68.3461L67.7081 6.694H72.8121L72.1301 9.84H67.0481L66.4101 12.854H72.1521L71.4921 16H62.4061ZM81.6341 16L79.0821 9.664H78.0921L76.7501 16H73.4061L76.6621 0.599999H80.0061L78.5981 7.288L79.1921 7.046L83.9221 0.599999H87.9041L82.6901 7.068L81.2601 7.882L82.2721 8.718L85.3961 16H81.6341ZM86.5975 16L89.8535 0.599999H98.8295L98.1475 3.746H92.5375L91.8995 6.694H97.0035L96.3215 9.84H91.2395L90.6015 12.854H96.3435L95.6835 16H86.5975ZM97.5975 16L100.831 0.754C102.166 0.489999 103.603 0.357999 105.143 0.357999C106.683 0.357999 107.93 0.717333 108.883 1.436C109.837 2.15467 110.313 3.20333 110.313 4.582C110.313 5.418 110.181 6.15867 109.917 6.804C109.668 7.44933 109.331 7.96267 108.905 8.344C108.48 8.72533 108.04 9.01867 107.585 9.224C107.131 9.41467 106.661 9.54667 106.177 9.62L107.057 10.258L109.081 16H105.341L103.493 10.236L102.217 9.972L100.941 16H97.5975ZM104.857 3.504C104.241 3.504 103.816 3.54067 103.581 3.614L102.723 7.574H103.713C105.767 7.574 106.793 6.76733 106.793 5.154C106.793 4.65533 106.632 4.25933 106.309 3.966C105.987 3.658 105.503 3.504 104.857 3.504Z" fill="currentColor"/>
</svg>
