<svg viewBox="0 0 36 36" fill="none" xmlns="http://www.w3.org/2000/svg">
<g clip-path="url(#clip0_876_181871)">
<path d="M17.4871 9.90047L11.7154 12.9326L9.03809 8.43239L12.4431 4.95898L15.7319 5.35117L17.4871 9.90047Z" fill="#FBBF24"/>
<path d="M3.8393 12.7629L3.20605 9.29162L8.08214 5.82031L8.15408 8.31476L3.8393 12.7629Z" fill="#FBBF24"/>
<path d="M6.80143 20.6721L11.2115 13.3567L8.54958 8.65039L3.8877 13.5552L6.80143 20.6721Z" fill="#FCD56E"/>
<path d="M7.37305 20.7146L11.2534 20.5028C10.9261 18.2842 11.7147 16.9649 11.7147 16.9649L11.4958 14.0166L7.37305 20.7146Z" fill="#FBBF24"/>
<path d="M6.19706 20.7349L4.48559 20.9544C4.32208 17.9047 3.45898 16.6394 3.45898 16.6394L3.64959 14.2627L6.19706 20.7349Z" fill="#FBBF24"/>
<path d="M7.7002 25.8379L9.71486 31.2536L18.9802 28.6855L7.7002 25.8379Z" fill="#FBBF24"/>
<path d="M19.2047 28.1778L16.8202 24.8651C16.8202 24.8651 12.7741 24.6635 11.3824 21.0752L7.06738 21.3256L7.56632 25.1781L19.2047 28.1778Z" fill="#FBBF24"/>
<path d="M14.399 14.2898L12.1367 13.8525L12.3105 15.9679C12.3107 15.9676 12.8193 14.9485 14.399 14.2898Z" fill="#FBBF24"/>
<path d="M1.95117 14.8741L3.14432 14.1299L2.95839 15.8855C2.95839 15.8855 2.61759 15.2053 1.95117 14.8741Z" fill="#FBBF24"/>
<path d="M1.44291 14.534L3.32817 13.342L2.77084 9.70508L0.292969 14.348C0.292969 14.348 0.930421 14.2633 1.44291 14.534Z" fill="#FBBF24"/>
<path d="M1.27265 26.1956L1.12455 24.6743C0.616507 24.3223 0.369141 24.0576 0.369141 24.0576L1.27265 26.1956Z" fill="#FBBF24"/>
<path d="M20.5299 30.5243L19.7072 28.9814L10.4951 31.6611L20.5299 30.5243Z" fill="#FBBF24"/>
<path d="M19.8753 28.1312L27.105 22.8819C27.105 22.8819 25.4932 21.9041 25.5477 19.2298L24.6813 19.209L24.2585 19.628C23.1866 24.7594 17.5801 24.8117 17.5801 24.8117L19.8753 28.1312Z" fill="#FBBF24"/>
<path d="M18.1406 9.56625L21.0128 6.71511L16.498 5.47852L18.1406 9.56625Z" fill="#FBBF24"/>
<path d="M8.77576 7.92364L11.7619 4.95898L8.67578 5.63685L8.77576 7.92364Z" fill="#FBBF24"/>
<path d="M32.8398 10.5796L35.9997 8.41498L30.9795 7.65723L32.8398 10.5796Z" fill="#FBBF24"/>
<path d="M30.7037 7.12747L35.933 8.00014L29.9707 6.18262L30.7037 7.12747Z" fill="#FBBF24"/>
<path d="M18.7119 9.81894L24.4544 9.00326L21.568 7.01172L18.7119 9.81894Z" fill="#FBBF24"/>
<path d="M22.1328 6.6965L25.3089 8.89384L30.1555 7.28187L29.4326 6.18262L22.1328 6.6965Z" fill="#FBBF24"/>
<path d="M18.9209 10.3956L26.2741 16.21L24.7042 9.56641L18.9209 10.3956Z" fill="#FBBF24"/>
<path d="M26.2577 16.9328L17.8918 10.4922L12.3809 13.1955L15.8517 13.8065C19.3193 12.7624 23.3002 14.362 24.108 17.5432L25.0227 18.5728L25.5805 18.5945C25.5805 18.5945 25.6331 17.7539 26.2577 16.9328Z" fill="#FBBF24"/>
<path d="M21.0679 30.2567L26.0045 27.3413L27.427 23.29L20.2256 28.6466L21.0679 30.2567Z" fill="#FBBF24"/>
<path d="M3.21875 28.5075L9.08336 31.1741L7.14835 25.8965L3.21875 28.5075Z" fill="#FBBF24"/>
<path d="M2.77024 28.1308L6.99275 25.3234L6.4492 21.3877L4.53964 21.6498C4.58589 24.2704 2.52801 25.0216 1.65137 24.7593L1.84618 26.975L2.77024 28.1308Z" fill="#FBBF24"/>
<path d="M28.8176 21.5402C29.4568 21.5402 29.975 20.5881 29.975 19.4137C29.975 18.2392 29.4568 17.2871 28.8176 17.2871C28.1783 17.2871 27.6602 18.2392 27.6602 19.4137C27.6602 20.5881 28.1783 21.5402 28.8176 21.5402Z" fill="#FCD56E"/>
<path d="M29.695 15.7197L29.7905 16.509C29.7905 16.509 29.6163 16.2759 29.2285 16.0766L29.695 15.7197Z" fill="#FBBF24"/>
<path d="M28.1949 23.0792L27.2891 25.598L28.9433 22.9521C28.9433 22.9521 28.5848 23.1299 28.1949 23.0792Z" fill="#FBBF24"/>
<path d="M28.8176 22.1439C27.8134 22.1439 27.0559 20.9699 27.0559 19.4133C27.0559 17.8565 27.8131 16.6827 28.8176 16.6827C29.0766 16.6827 29.3191 16.7614 29.5365 16.9039C29.1897 16.5519 28.7671 16.3447 28.3107 16.3447C27.1336 16.3447 26.1797 17.7187 26.1797 19.4133C26.1797 21.108 27.1339 22.4819 28.3107 22.4819C28.7671 22.4819 29.1897 22.2745 29.5365 21.9227C29.3191 22.0655 29.0766 22.1439 28.8176 22.1439Z" fill="#FBBF24"/>
<path d="M11.5048 4.49836L8.02833 5.23509L3.10156 8.65057L3.5678 7.12993L7.42545 4.33789L11.5048 4.49836Z" fill="#FCD56E"/>
<path d="M14.831 17.7984C15.5141 17.2132 15.7463 16.3636 15.3497 15.9007C14.9531 15.4378 14.078 15.5369 13.3949 16.1221C12.7119 16.7073 12.4797 17.5569 12.8763 18.0198C13.2728 18.4827 14.148 18.3836 14.831 17.7984Z" fill="#FCD56E"/>
<path d="M1.9203 17.4709C2.3925 17.0664 2.53682 16.4601 2.24264 16.1167C1.94846 15.7733 1.32719 15.8229 0.854993 16.2275C0.382793 16.632 0.238479 17.2383 0.532657 17.5817C0.826834 17.9251 1.44811 17.8755 1.9203 17.4709Z" fill="#FCD56E"/>
<path d="M26.9231 16.1078L32.3977 10.8624L30.4575 7.74121L25.4277 9.45759L26.9231 16.1078Z" fill="#FBBF24"/>
<path d="M32.5576 11.3555L27.9277 15.8541C27.9277 15.8541 28.2524 15.7567 28.7273 15.8837L31.4294 13.8546L32.5576 11.3555Z" fill="#FCD56E"/>
</g>
<defs>
<clipPath id="clip0_876_181871">
<rect width="36" height="36" fill="white"/>
</clipPath>
</defs>
</svg>
