<svg width="20" height="20" viewBox="0 0 20 20" fill="none" xmlns="http://www.w3.org/2000/svg">
<mask id="mask0_5895_232666" style="mask-type:luminance" maskUnits="userSpaceOnUse" x="0" y="0" width="20" height="20">
<path d="M20 0H0V20H20V0Z" fill="white"/>
</mask>
<g mask="url(#mask0_5895_232666)">
<path fill-rule="evenodd" clip-rule="evenodd" d="M17.4579 12.0621C17.833 11.9006 18.2664 12.2173 18.1351 12.6049H18.133C17.6605 13.9913 16.836 15.2313 15.7402 16.2034C14.6445 17.1755 13.3151 17.8464 11.8822 18.1504C10.4493 18.4545 8.96204 18.3812 7.56598 17.9377C6.16992 17.4943 4.91294 16.6959 3.91811 15.6208C2.92327 14.5457 2.22468 13.2306 1.89073 11.8044C1.55678 10.3782 1.59892 8.88971 2.01302 7.48467C2.42712 6.07963 3.19899 4.80621 4.25306 3.78908C5.30713 2.77195 6.60726 2.04598 8.02617 1.68224C8.42311 1.58118 8.70545 2.03751 8.51583 2.39902C7.84442 3.67689 7.5855 5.13143 7.77469 6.56249C7.96389 7.99356 8.59191 9.33083 9.57235 10.3903C10.5528 11.4498 11.8374 12.1794 13.2496 12.4788C14.6617 12.7782 16.1319 12.6326 17.4579 12.0621ZM15.7727 2.90079C15.681 2.91017 15.5942 2.94656 15.5232 3.00534L14.2886 4.03363C14.1343 4.16212 13.9541 4.25582 13.7602 4.30832C13.5664 4.36082 13.3636 4.37089 13.1655 4.33784L11.5652 4.07009C11.4688 4.05413 11.3698 4.06891 11.2822 4.11235C11.1947 4.15578 11.123 4.22567 11.0773 4.3121C11.0317 4.39853 11.0144 4.49714 11.0279 4.59394C11.0415 4.69075 11.0851 4.78084 11.1527 4.85147L12.2716 6.02458C12.4104 6.16959 12.5164 6.34285 12.5822 6.53253C12.648 6.72222 12.6721 6.92386 12.6529 7.12371L12.4977 8.72293C12.4887 8.81487 12.5072 8.90741 12.5509 8.98879C12.5947 9.07016 12.6616 9.13669 12.7433 9.17991C12.8249 9.22314 12.9176 9.2411 13.0094 9.23152C13.1013 9.22195 13.1883 9.18526 13.2593 9.12612L14.4938 8.09783C14.6481 7.96934 14.8284 7.87564 15.0222 7.82314C15.216 7.77064 15.4189 7.76057 15.6169 7.79362L17.2182 8.06033C17.6589 8.13325 17.9402 7.60192 17.6308 7.27895L16.5098 6.10688C16.3711 5.96178 16.2654 5.78848 16.1997 5.5988C16.1341 5.40912 16.1102 5.20752 16.1295 5.00775L16.2837 3.40853C16.2925 3.31677 16.2739 3.22447 16.2302 3.14331C16.1865 3.06215 16.1197 2.99578 16.0383 2.95261C15.9568 2.90944 15.8644 2.8914 15.7727 2.90079Z" fill="#7D8497"/>
</g>
</svg>
