<svg width="16" height="16" viewBox="0 0 16 16" fill="none" xmlns="http://www.w3.org/2000/svg">
  <path fill-rule="evenodd" clip-rule="evenodd" d="M1.82352 2.45713C1.82352 2.20467 2.03532 2 2.29659 2C3.1182 2 3.90329 2.25867 4.46876 2.68292C5.03099 3.10475 5.43351 3.74443 5.29816 4.47905C5.10049 5.5518 4.18002 6.07921 3.49106 6.47397L3.42998 6.50895C3.0785 6.71021 2.77763 6.88248 2.5362 7.08538C2.29401 7.28893 2.14379 7.49814 2.08628 7.75596C2.03518 7.98504 2.07919 8.12196 2.18296 8.24363C2.28378 8.36185 2.4632 8.48954 2.76037 8.6229C2.9243 8.33812 3.12566 8.06975 3.37862 7.81785C4.01801 7.18106 4.7771 6.676 5.61252 6.33137C6.448 5.98683 7.34338 5.80945 8.24763 5.80945C8.83086 5.80945 9.4104 5.88326 9.97258 6.0281C10.3287 5.64448 10.8456 5.40311 11.4209 5.40311C12.495 5.40311 13.3657 6.24456 13.3657 7.28244C13.3657 7.42371 13.3496 7.56131 13.319 7.69364C13.365 7.73452 13.4092 7.77598 13.4514 7.81805C14.0909 8.45474 14.5981 9.21068 14.9441 10.0426L15.3333 11.3333C15.6667 12.6667 14.2914 14 12.8399 14H4.32462C2.87311 14 2 12.9548 2 11.6667C2 11.4448 2.11917 10.4542 2.22074 10.0426C2.26977 9.84386 2.32438 9.65086 2.38753 9.46363C2.0046 9.29461 1.67937 9.09073 1.45281 8.82508C1.14257 8.46131 1.0572 8.03035 1.16138 7.56332C1.27483 7.05468 1.57235 6.68374 1.9153 6.39552C2.2243 6.13583 2.59572 5.92354 2.92547 5.73506L2.9986 5.69322C3.74976 5.2628 4.25474 4.92621 4.36666 4.31878C4.41999 4.02933 4.27911 3.69813 3.88852 3.40508C3.50117 3.11446 2.924 2.91427 2.29659 2.91427C2.03532 2.91427 1.82352 2.7096 1.82352 2.45713ZM12.7354 12.4252C13.1418 12.4252 13.4713 12.1069 13.4713 11.7141C13.4713 11.3214 13.1418 11.003 12.7354 11.003C12.329 11.003 11.9995 11.3214 11.9995 11.7141C11.9995 12.1069 12.329 12.4252 12.7354 12.4252Z" fill="#7D8497"/>
</svg>