<svg viewBox="0 0 18 18" fill="currentColor" xmlns="http://www.w3.org/2000/svg">
<path d="M2.74178 17.002C2.58445 17.1594 2.38399 17.2665 2.16577 17.3099C1.94754 17.3533 1.72134 17.331 1.51577 17.2459C1.3102 17.1607 1.1345 17.0166 1.01089 16.8315C0.887269 16.6465 0.821289 16.429 0.821289 16.2065C0.821289 15.984 0.887269 15.7665 1.01089 15.5815C1.1345 15.3965 1.3102 15.2523 1.51577 15.1672C1.72134 15.082 1.94754 15.0597 2.16577 15.1032C2.38399 15.1466 2.58445 15.2537 2.74178 15.411C2.95276 15.622 3.07129 15.9082 3.07129 16.2065C3.07129 16.5049 2.95276 16.791 2.74178 17.002ZM16.9334 15.6815C16.5669 11.9704 14.9255 8.50112 12.2886 5.86424C9.6517 3.22735 6.18238 1.58592 2.47132 1.2194C2.37325 1.20978 2.27425 1.21958 2.17996 1.24822C2.08568 1.27686 1.99796 1.32379 1.92181 1.38633C1.84567 1.44887 1.78259 1.5258 1.73617 1.61272C1.68975 1.69964 1.66091 1.79486 1.65129 1.89292C1.64167 1.99099 1.65146 2.08999 1.6801 2.18428C1.70875 2.27856 1.75568 2.36628 1.81822 2.44243C1.94453 2.59621 2.12676 2.69352 2.32481 2.71295C5.69009 3.04568 8.83606 4.53434 11.2273 6.92555C13.6185 9.31676 15.1071 12.4627 15.4399 15.828C15.4593 16.0261 15.5566 16.2083 15.7104 16.3346C15.8642 16.4609 16.0618 16.521 16.2599 16.5015C16.458 16.4821 16.6402 16.3848 16.7665 16.231C16.8928 16.0772 16.9528 15.8796 16.9334 15.6815ZM12.4356 15.9261C12.1331 13.3242 10.9607 10.9006 9.10843 9.04837C7.25618 7.19611 4.83264 6.02372 2.23068 5.72124C2.03306 5.69839 1.83446 5.75497 1.67856 5.87854C1.52267 6.00212 1.42224 6.18256 1.39939 6.38018C1.37653 6.5778 1.43311 6.7764 1.55669 6.9323C1.68026 7.08819 1.86071 7.18862 2.05832 7.21147C4.32418 7.4751 6.43462 8.49616 8.04763 10.1092C9.66064 11.7222 10.6817 13.8326 10.9453 16.0985C10.9566 16.1963 10.9871 16.291 11.035 16.3771C11.0829 16.4632 11.1473 16.5389 11.2245 16.6001C11.3017 16.6613 11.3902 16.7067 11.4849 16.7337C11.5796 16.7607 11.6788 16.7687 11.7766 16.7574C11.8745 16.7461 11.9691 16.7156 12.0552 16.6677C12.1413 16.6198 12.2171 16.5555 12.2783 16.4783C12.3395 16.4011 12.3849 16.3126 12.4118 16.2178C12.4388 16.1231 12.4469 16.024 12.4356 15.9261ZM7.92642 16.1581C7.69105 14.6707 6.9907 13.2959 5.9258 12.231C4.8609 11.1661 3.48615 10.4657 1.99866 10.2304C1.8021 10.1994 1.60129 10.2478 1.44042 10.3649C1.27955 10.4821 1.17179 10.6583 1.14085 10.8548C1.10991 11.0514 1.15831 11.2522 1.27542 11.4131C1.39253 11.5739 1.56875 11.6817 1.76531 11.7126C2.93955 11.8981 4.02486 12.4507 4.86547 13.2913C5.70607 14.1319 6.25874 15.2172 6.44415 16.3915C6.45947 16.4888 6.49381 16.5822 6.54522 16.6662C6.59662 16.7503 6.66407 16.8234 6.74372 16.8814C6.82338 16.9394 6.91368 16.9811 7.00946 17.0042C7.10524 17.0273 7.20463 17.0313 7.30196 17.016C7.39929 17.0006 7.49264 16.9663 7.5767 16.9149C7.66076 16.8635 7.73386 16.796 7.79185 16.7164C7.84984 16.6367 7.89157 16.5464 7.91466 16.4506C7.93775 16.3549 7.94175 16.2555 7.92642 16.1581Z" fill="currentColor"/>
</svg>
