<svg width="44" height="45" viewBox="0 0 44 45" fill="none" xmlns="http://www.w3.org/2000/svg">
  <path d="M34.0724 11.7204L36.7674 8.75555C37.0075 8.48489 37.1312 8.13049 37.1118 7.76919C37.0924 7.4079 36.9313 7.06883 36.6635 6.82549C36.3958 6.58215 36.0429 6.45415 35.6814 6.46926C35.3199 6.48436 34.9789 6.64134 34.7324 6.90617L32.0374 9.8693C28.7559 7.34913 24.6471 6.15449 20.526 6.52239C16.4049 6.89029 12.5726 8.79385 9.7895 11.8554C7.00638 14.917 5.47575 18.9128 5.50129 23.0503C5.52683 27.1877 7.10666 31.1644 9.92736 34.1913L7.23237 37.1562C7.10839 37.2894 7.01207 37.4458 6.94901 37.6165C6.88594 37.7872 6.85738 37.9687 6.86498 38.1505C6.87257 38.3323 6.91617 38.5107 6.99326 38.6756C7.07034 38.8404 7.17937 38.9883 7.31402 39.1106C7.44868 39.233 7.60629 39.3274 7.77771 39.3885C7.94913 39.4495 8.13095 39.4758 8.31264 39.4661C8.49433 39.4563 8.67228 39.4106 8.83617 39.3315C9.00005 39.2525 9.14661 39.1417 9.26736 39.0055L11.9624 36.0424C15.2438 38.5626 19.3526 39.7572 23.4737 39.3893C27.5949 39.0214 31.4271 37.1179 34.2102 34.0563C36.9934 30.9947 38.524 26.9989 38.4984 22.8615C38.4729 18.724 36.8931 14.7474 34.0724 11.7204ZM8.24987 22.9559C8.25139 20.4103 8.95953 17.9151 10.2954 15.7483C11.6313 13.5814 13.5425 11.8279 15.8161 10.6831C18.0896 9.5383 20.6364 9.0471 23.1727 9.26423C25.709 9.48135 28.1352 10.3983 30.1811 11.9129L11.7905 32.1477C9.5104 29.6294 8.24838 26.3531 8.24987 22.9559ZM21.9999 36.7059C19.0523 36.709 16.1826 35.7594 13.8186 33.9988L32.2092 13.764C33.9885 15.7378 35.1572 18.1853 35.5739 20.8098C35.9906 23.4344 35.6373 26.1234 34.5569 28.5513C33.4765 30.9792 31.7153 33.0417 29.4865 34.489C27.2578 35.9363 24.6573 36.7064 21.9999 36.7059Z" fill="#7D8497"/>
</svg>