<svg width="34" height="34" viewBox="0 0 34 34" fill="none" xmlns="http://www.w3.org/2000/svg">
<g id="Icons">
<g id="Vector" filter="url(#filter0_d_626_66460)">
<path d="M15.1768 18.0656C15.1768 19.875 16.6487 21.3469 18.458 21.3469C20.2673 21.3469 21.7393 19.875 21.7393 18.0656C21.7393 17.1343 21.3455 16.2972 20.7194 15.6993C21.1968 15.1626 21.4962 14.4636 21.4962 13.6906C21.4962 12.0155 20.1331 10.6525 18.458 10.6525C16.7829 10.6525 15.4198 12.0155 15.4198 13.6906C15.4198 14.4636 15.7193 15.1626 16.1966 15.6993C15.5715 16.2972 15.1768 17.1343 15.1768 18.0656ZM18.458 19.4025C17.7211 19.4025 17.1212 18.8026 17.1212 18.0656C17.1212 17.3287 17.7211 16.7288 18.458 16.7288C19.195 16.7288 19.7948 17.3287 19.7948 18.0656C19.7948 18.8026 19.195 19.4025 18.458 19.4025ZM17.3643 13.6906C17.3643 13.0879 17.8552 12.5969 18.458 12.5969C19.0608 12.5969 19.5518 13.0879 19.5518 13.6906C19.5518 14.2934 19.0608 14.7844 18.458 14.7844C17.8552 14.7844 17.3643 14.2934 17.3643 13.6906ZM28.6663 15.9997C28.6663 16.5373 28.2308 16.9719 27.6941 16.9719H26.7219V17.9441C26.7219 18.4818 26.2863 18.9163 25.7497 18.9163C25.213 18.9163 24.7775 18.4818 24.7775 17.9441V16.9719H23.8052C23.2686 16.9719 22.833 16.5373 22.833 15.9997C22.833 15.462 23.2686 15.0275 23.8052 15.0275H24.7775V14.0552C24.7775 13.5176 25.213 13.083 25.7497 13.083C26.2863 13.083 26.7219 13.5176 26.7219 14.0552V15.0275H27.6941C28.2308 15.0275 28.6663 15.462 28.6663 15.9997ZM12.1386 19.8886V14.1525L11.6301 14.7105C11.2684 15.1052 10.653 15.1363 10.2563 14.7737C9.85967 14.412 9.83051 13.7976 10.1922 13.4L11.8761 11.5518C12.2377 11.1609 12.7861 11.0345 13.2751 11.227C13.7651 11.4186 14.083 11.8823 14.083 12.4093V19.8886C14.083 20.4262 13.6475 20.8608 13.1108 20.8608C12.5741 20.8608 12.1386 20.4262 12.1386 19.8886ZM26.7793 22.3638C24.6141 25.684 20.9586 27.6663 16.9997 27.6663C10.5665 27.6663 5.33301 22.4329 5.33301 15.9997C5.33301 9.56648 10.5665 4.33301 16.9997 4.33301C20.9576 4.33301 24.6141 6.31537 26.7793 9.63551C27.0729 10.0847 26.9455 10.6875 26.4963 10.9811C26.0452 11.2727 25.4434 11.1473 25.1508 10.6972C23.3454 7.92926 20.2984 6.27745 16.9997 6.27745C11.6388 6.27745 7.27745 10.6388 7.27745 15.9997C7.27745 21.3605 11.6388 25.7219 16.9997 25.7219C20.2994 25.7219 23.3463 24.0701 25.1498 21.3022C25.4434 20.853 26.0452 20.7276 26.4954 21.0183C26.9455 21.3119 27.0719 21.9147 26.7793 22.3638Z" fill="#3772FF"/>
</g>
</g>
<defs>
<filter id="filter0_d_626_66460" x="0.833008" y="0.833008" width="32.3335" height="32.3335" filterUnits="userSpaceOnUse" color-interpolation-filters="sRGB">
<feFlood flood-opacity="0" result="BackgroundImageFix"/>
<feColorMatrix in="SourceAlpha" type="matrix" values="0 0 0 0 0 0 0 0 0 0 0 0 0 0 0 0 0 0 127 0" result="hardAlpha"/>
<feOffset dy="1"/>
<feGaussianBlur stdDeviation="2.25"/>
<feComposite in2="hardAlpha" operator="out"/>
<feColorMatrix type="matrix" values="0 0 0 0 0.215686 0 0 0 0 0.447059 0 0 0 0 1 0 0 0 0.3 0"/>
<feBlend mode="normal" in2="BackgroundImageFix" result="effect1_dropShadow_626_66460"/>
<feBlend mode="normal" in="SourceGraphic" in2="effect1_dropShadow_626_66460" result="shape"/>
</filter>
</defs>
</svg>
