<svg xmlns="http://www.w3.org/2000/svg" width="16" height="16" viewBox="0 0 16 16" fill="currentColor">
  <path d="M8.50003 7.49963V10.9996C8.50003 11.1322 8.44735 11.2594 8.35359 11.3532C8.25982 11.447 8.13264 11.4996 8.00003 11.4996C7.86742 11.4996 7.74025 11.447 7.64648 11.3532C7.55271 11.2594 7.50003 11.1322 7.50003 10.9996V7.49963C7.50003 7.36702 7.55271 7.23985 7.64648 7.14608C7.74025 7.05231 7.86742 6.99963 8.00003 6.99963C8.13264 6.99963 8.25982 7.05231 8.35359 7.14608C8.44735 7.23985 8.50003 7.36702 8.50003 7.49963ZM10.8025 7.44963L10.4525 10.9496C10.4456 11.0152 10.4517 11.0814 10.4705 11.1446C10.4893 11.2077 10.5203 11.2666 10.5619 11.3177C10.6035 11.3688 10.6548 11.4112 10.7128 11.4424C10.7708 11.4736 10.8345 11.4931 10.9 11.4996C10.9169 11.5006 10.9338 11.5006 10.9507 11.4996C11.0745 11.4995 11.1939 11.4534 11.2857 11.3702C11.3775 11.2871 11.4351 11.1729 11.4475 11.0496L11.7975 7.54963C11.8108 7.41769 11.7711 7.28588 11.6872 7.1832C11.6033 7.08053 11.482 7.01539 11.35 7.00213C11.2181 6.98887 11.0863 7.02857 10.9836 7.11249C10.8809 7.19641 10.8158 7.31769 10.8025 7.44963ZM5.19753 7.44963C5.18427 7.31769 5.11914 7.19641 5.01646 7.11249C4.91379 7.02857 4.78198 6.98887 4.65003 7.00213C4.51809 7.01539 4.39682 7.08053 4.31289 7.1832C4.22897 7.28588 4.18927 7.41769 4.20253 7.54963L4.55253 11.0496C4.56497 11.1734 4.62309 11.2881 4.71555 11.3713C4.808 11.4545 4.92815 11.5003 5.05253 11.4996C5.0694 11.5006 5.0863 11.5006 5.10316 11.4996C5.16849 11.4931 5.23189 11.4737 5.28974 11.4426C5.34759 11.4116 5.39875 11.3694 5.4403 11.3186C5.48186 11.2677 5.51299 11.2092 5.53192 11.1463C5.55086 11.0835 5.55722 11.0175 5.55066 10.9521L5.19753 7.44963ZM14.9957 5.56588L14.0538 12.6321C14.0209 12.8719 13.9025 13.0918 13.7204 13.2512C13.5382 13.4106 13.3046 13.4989 13.0625 13.4996H2.93753C2.69548 13.4989 2.46185 13.4106 2.2797 13.2512C2.09755 13.0918 1.97914 12.8719 1.94628 12.6321L1.00441 5.56588C0.994967 5.49525 1.00073 5.42342 1.02132 5.3552C1.0419 5.28698 1.07683 5.22394 1.12376 5.17032C1.1707 5.1167 1.22855 5.07373 1.29344 5.04429C1.35834 5.01486 1.42877 4.99963 1.50003 4.99963H4.27316L7.62503 1.17026C7.67195 1.11705 7.72966 1.07444 7.79431 1.04526C7.85897 1.01607 7.9291 1.00098 8.00003 1.00098C8.07097 1.00098 8.1411 1.01607 8.20575 1.04526C8.27041 1.07444 8.32811 1.11705 8.37503 1.17026L11.7269 4.99963H14.5C14.5713 4.99963 14.6417 5.01486 14.7066 5.04429C14.7715 5.07373 14.8294 5.1167 14.8763 5.17032C14.9232 5.22394 14.9582 5.28698 14.9788 5.3552C14.9993 5.42342 15.0051 5.49525 14.9957 5.56588ZM5.60191 4.99963H10.3982L8.00003 2.25901L5.60191 4.99963ZM13.9288 5.99963H2.07128L2.93753 12.4996H13.0625L13.9288 5.99963Z" fill="currentColor"/>
</svg>