<svg width="35" height="35" viewBox="0 0 35 35" fill="none" xmlns="http://www.w3.org/2000/svg">
<path d="M15.3125 10.9375H13.125V24.0625H15.3125V10.9375ZM21.875 10.9375H19.6875V24.0625H21.875V10.9375Z" fill="white"/>
<path d="M17.5 4.375C20.0959 4.375 22.6335 5.14477 24.7919 6.58696C26.9503 8.02915 28.6325 10.079 29.6259 12.4773C30.6193 14.8756 30.8792 17.5146 30.3728 20.0606C29.8664 22.6066 28.6163 24.9452 26.7808 26.7808C24.9452 28.6163 22.6066 29.8664 20.0606 30.3728C17.5146 30.8792 14.8756 30.6193 12.4773 29.6259C10.079 28.6325 8.02916 26.9503 6.58697 24.7919C5.14477 22.6335 4.37501 20.0959 4.37501 17.5C4.37501 14.019 5.75782 10.6806 8.21923 8.21922C10.6806 5.75781 14.019 4.375 17.5 4.375ZM17.5 2.1875C14.4715 2.1875 11.511 3.08556 8.99284 4.76812C6.47471 6.45068 4.51207 8.84217 3.3531 11.6402C2.19413 14.4382 1.8909 17.517 2.48173 20.4873C3.07257 23.4577 4.53094 26.1861 6.67243 28.3276C8.81393 30.4691 11.5424 31.9274 14.5127 32.5183C17.483 33.1091 20.5619 32.8059 23.3598 31.6469C26.1578 30.4879 28.5493 28.5253 30.2319 26.0072C31.9144 23.489 32.8125 20.5285 32.8125 17.5C32.8125 13.4389 31.1992 9.54408 28.3276 6.67243C25.4559 3.80078 21.5611 2.1875 17.5 2.1875Z" fill="white"/>
</svg>
