<svg width="24" height="25" viewBox="0 0 24 25" fill="none" xmlns="http://www.w3.org/2000/svg">
  <path d="M21.3103 7.37915L17.1216 3.18946C16.9823 3.05014 16.8169 2.93962 16.6349 2.86421C16.4529 2.78881 16.2578 2.75 16.0608 2.75C15.8638 2.75 15.6687 2.78881 15.4867 2.86421C15.3047 2.93962 15.1393 3.05014 15 3.18946L3.43969 14.7507C3.2998 14.8895 3.18889 15.0547 3.11341 15.2367C3.03792 15.4188 2.99938 15.614 3.00001 15.811V20.0007C3.00001 20.3985 3.15804 20.7801 3.43935 21.0614C3.72065 21.3427 4.10218 21.5007 4.50001 21.5007H8.6897C8.88675 21.5013 9.08197 21.4628 9.26399 21.3873C9.44602 21.3118 9.61122 21.2009 9.75001 21.061L21.3103 9.50071C21.4496 9.36142 21.5602 9.19604 21.6356 9.01403C21.711 8.83202 21.7498 8.63694 21.7498 8.43993C21.7498 8.24292 21.711 8.04784 21.6356 7.86582C21.5602 7.68381 21.4496 7.51844 21.3103 7.37915ZM8.6897 20.0007H4.50001V15.811L12.75 7.56102L16.9397 11.7507L8.6897 20.0007ZM18 10.6895L13.8103 6.50071L16.0603 4.25071L20.25 8.43946L18 10.6895Z" fill="white"/>
</svg>