<svg viewBox="0 0 18 18" fill="currentColor" xmlns="http://www.w3.org/2000/svg">
<path d="M17.2127 10.5754C17.1536 10.6197 17.0864 10.6519 17.0148 10.6703C16.9433 10.6886 16.8688 10.6927 16.7957 10.6822C16.7225 10.6718 16.6522 10.647 16.5886 10.6094C16.5251 10.5718 16.4695 10.522 16.4252 10.4629C16.0862 10.0071 15.6449 9.63739 15.1368 9.38337C14.6288 9.12935 14.0682 8.99817 13.5002 9.00037C13.3896 9.00036 13.2814 8.96774 13.1893 8.90658C13.0971 8.84543 13.025 8.75845 12.982 8.65654C12.9528 8.58734 12.9378 8.51298 12.9378 8.43787C12.9378 8.36276 12.9528 8.2884 12.982 8.2192C13.025 8.11728 13.0971 8.03031 13.1893 7.96916C13.2814 7.908 13.3896 7.87538 13.5002 7.87537C13.8158 7.87534 14.1251 7.7868 14.3929 7.61981C14.6607 7.45282 14.8764 7.21407 15.0153 6.93068C15.1542 6.64729 15.2109 6.33062 15.1789 6.01663C15.1468 5.70265 15.0274 5.40394 14.8341 5.15443C14.6408 4.90493 14.3814 4.71463 14.0854 4.60515C13.7894 4.49567 13.4686 4.4714 13.1595 4.53509C12.8504 4.59879 12.5653 4.7479 12.3367 4.96548C12.1081 5.18306 11.9451 5.4604 11.8662 5.76599C11.8477 5.83755 11.8153 5.90478 11.7709 5.96382C11.7264 6.02287 11.6708 6.07258 11.6071 6.11012C11.5435 6.14767 11.473 6.1723 11.3998 6.18263C11.3267 6.19295 11.2522 6.18876 11.1806 6.17029C11.109 6.15182 11.0418 6.11944 10.9828 6.075C10.9237 6.03055 10.874 5.97491 10.8365 5.91125C10.7989 5.84759 10.7743 5.77716 10.764 5.70398C10.7536 5.6308 10.7578 5.5563 10.7763 5.48474C10.8858 5.06098 11.0927 4.66863 11.3806 4.3389C11.6684 4.00917 12.0292 3.75117 12.4343 3.58543C12.8394 3.41969 13.2776 3.35078 13.714 3.38418C14.1504 3.41758 14.573 3.55238 14.9481 3.77785C15.3233 4.00331 15.6406 4.31322 15.8749 4.68291C16.1092 5.05261 16.254 5.47188 16.2978 5.90738C16.3415 6.34287 16.283 6.78257 16.1269 7.19147C15.9708 7.60038 15.7215 7.96722 15.3987 8.26279C16.1635 8.59396 16.8284 9.11949 17.3273 9.78717C17.3716 9.84641 17.4038 9.91382 17.4221 9.98552C17.4403 10.0572 17.4442 10.1318 17.4335 10.205C17.4229 10.2783 17.3979 10.3487 17.36 10.4122C17.3221 10.4758 17.2721 10.5312 17.2127 10.5754ZM13.4243 14.9066C13.465 14.9706 13.4923 15.0422 13.5046 15.1171C13.5169 15.1919 13.514 15.2685 13.4959 15.3422C13.4779 15.4159 13.4451 15.4852 13.3996 15.5459C13.3541 15.6066 13.2968 15.6574 13.2311 15.6954C13.1654 15.7333 13.0927 15.7576 13.0174 15.7668C12.9421 15.7759 12.8657 15.7697 12.7928 15.7486C12.72 15.7275 12.6522 15.6918 12.5934 15.6438C12.5347 15.5958 12.4863 15.5363 12.4512 15.4691C12.0968 14.8691 11.5922 14.3719 10.987 14.0264C10.3818 13.681 9.69703 13.4993 9.00021 13.4993C8.3034 13.4993 7.61862 13.681 7.01345 14.0264C6.40827 14.3719 5.90362 14.8691 5.54928 15.4691C5.51411 15.5363 5.46571 15.5958 5.40699 15.6438C5.34827 15.6918 5.28044 15.7275 5.20758 15.7486C5.13472 15.7697 5.05834 15.7759 4.98303 15.7668C4.90772 15.7576 4.83503 15.7333 4.76935 15.6954C4.70367 15.6574 4.64635 15.6066 4.60084 15.5459C4.55532 15.4852 4.52255 15.4159 4.5045 15.3422C4.48646 15.2685 4.4835 15.1919 4.49581 15.1171C4.50812 15.0422 4.53545 14.9706 4.57615 14.9066C5.12149 13.9696 5.95301 13.2322 6.94849 12.8029C6.38833 12.374 5.97666 11.7804 5.77132 11.1054C5.56599 10.4305 5.57733 9.70813 5.80375 9.03996C6.03016 8.37179 6.46028 7.79137 7.03362 7.38028C7.60697 6.9692 8.29472 6.74812 9.00021 6.74812C9.7057 6.74812 10.3935 6.9692 10.9668 7.38028C11.5402 7.79137 11.9703 8.37179 12.1967 9.03996C12.4231 9.70813 12.4344 10.4305 12.2291 11.1054C12.0238 11.7804 11.6121 12.374 11.0519 12.8029C12.0474 13.2322 12.8789 13.9696 13.4243 14.9066ZM9.00021 12.3754C9.44522 12.3754 9.88024 12.2434 10.2502 11.9962C10.6203 11.7489 10.9086 11.3975 11.0789 10.9864C11.2492 10.5753 11.2938 10.1229 11.207 9.68642C11.1202 9.24996 10.9059 8.84905 10.5912 8.53438C10.2765 8.21971 9.87562 8.00542 9.43917 7.9186C9.00271 7.83179 8.55031 7.87634 8.13918 8.04664C7.72804 8.21694 7.37664 8.50533 7.12941 8.87534C6.88217 9.24535 6.75021 9.68036 6.75021 10.1254C6.75021 10.7221 6.98727 11.2944 7.40922 11.7164C7.83118 12.1383 8.40348 12.3754 9.00021 12.3754ZM5.06271 8.43787C5.06271 8.28868 5.00345 8.14561 4.89796 8.04012C4.79247 7.93463 4.6494 7.87537 4.50021 7.87537C4.1846 7.87534 3.87532 7.7868 3.6075 7.61981C3.33969 7.45282 3.12407 7.21407 2.98514 6.93068C2.84621 6.64729 2.78954 6.33062 2.82157 6.01663C2.8536 5.70265 2.97304 5.40394 3.16632 5.15443C3.3596 4.90493 3.61899 4.71463 3.915 4.60515C4.21102 4.49567 4.53181 4.4714 4.84092 4.53509C5.15004 4.59879 5.4351 4.7479 5.66373 4.96548C5.89235 5.18306 6.05537 5.4604 6.13428 5.76599C6.17157 5.91052 6.26475 6.0343 6.39332 6.11012C6.52188 6.18594 6.6753 6.20759 6.81982 6.17029C6.96434 6.133 7.08813 6.03982 7.16395 5.91125C7.23977 5.78269 7.26142 5.62927 7.22412 5.48474C7.1146 5.06098 6.9077 4.66863 6.61986 4.3389C6.33203 4.00917 5.97121 3.75117 5.56612 3.58543C5.16103 3.41969 4.72284 3.35078 4.28643 3.38418C3.85002 3.41758 3.42743 3.55238 3.05229 3.77785C2.67714 4.00331 2.35979 4.31322 2.12549 4.68291C1.89119 5.05261 1.74641 5.47188 1.70267 5.90738C1.65892 6.34287 1.71742 6.78257 1.87351 7.19147C2.0296 7.60038 2.27897 7.96722 2.60178 8.26279C1.83768 8.59427 1.17353 9.11978 0.675213 9.78717C0.58561 9.90651 0.547086 10.0566 0.568118 10.2043C0.58915 10.3521 0.668014 10.4854 0.787362 10.575C0.906709 10.6646 1.05676 10.7031 1.20451 10.6821C1.35227 10.6611 1.48561 10.5822 1.57521 10.4629C1.91425 10.0071 2.35555 9.63739 2.86359 9.38337C3.37163 9.12935 3.93221 8.99817 4.50021 9.00037C4.6494 9.00037 4.79247 8.94111 4.89796 8.83562C5.00345 8.73013 5.06271 8.58705 5.06271 8.43787Z" fill="currentColor"/>
</svg>
