<svg xmlns="http://www.w3.org/2000/svg" width="16" height="16" viewBox="0 0 16 16" fill="currentColor">
  <path d="M13 3.16699H3C2.60218 3.16699 2.22064 3.32503 1.93934 3.60633C1.65804 3.88764 1.5 4.26917 1.5 4.66699V11.667C1.5 12.0648 1.65804 12.4463 1.93934 12.7277C2.22064 13.009 2.60218 13.167 3 13.167H13C13.3978 13.167 13.7794 13.009 14.0607 12.7277C14.342 12.4463 14.5 12.0648 14.5 11.667V4.66699C14.5 4.26917 14.342 3.88764 14.0607 3.60633C13.7794 3.32503 13.3978 3.16699 13 3.16699ZM13.5 11.667C13.5 11.7996 13.4473 11.9268 13.3536 12.0205C13.2598 12.1143 13.1326 12.167 13 12.167H3C2.86739 12.167 2.74021 12.1143 2.64645 12.0205C2.55268 11.9268 2.5 11.7996 2.5 11.667V4.66699C2.5 4.53438 2.55268 4.40721 2.64645 4.31344C2.74021 4.21967 2.86739 4.16699 3 4.16699H13C13.1326 4.16699 13.2598 4.21967 13.3536 4.31344C13.4473 4.40721 13.5 4.53438 13.5 4.66699V11.667ZM10.2775 7.75074L7.2775 5.75074C7.20218 5.70049 7.11463 5.67163 7.0242 5.66725C6.93376 5.66287 6.84383 5.68313 6.76401 5.72586C6.68418 5.7686 6.61746 5.83221 6.57097 5.9099C6.52447 5.98759 6.49994 6.07645 6.5 6.16699V10.167C6.49994 10.2575 6.52447 10.3464 6.57097 10.4241C6.61746 10.5018 6.68418 10.5654 6.76401 10.6081C6.84383 10.6509 6.93376 10.6711 7.0242 10.6667C7.11463 10.6623 7.20218 10.6335 7.2775 10.5832L10.2775 8.58324C10.3461 8.5376 10.4023 8.47572 10.4412 8.4031C10.4801 8.33048 10.5005 8.24937 10.5005 8.16699C10.5005 8.08461 10.4801 8.0035 10.4412 7.93088C10.4023 7.85827 10.3461 7.79638 10.2775 7.75074ZM7.5 9.23262V7.10449L9.09875 8.16699L7.5 9.23262Z" fill="currentColor"/>
</svg>