<svg width="18" height="18" viewBox="0 0 18 18" fill="none" xmlns="http://www.w3.org/2000/svg">
<mask id="mask0_5895_232183" style="mask-type:luminance" maskUnits="userSpaceOnUse" x="0" y="0" width="18" height="18">
<path d="M17.3327 0.666016H0.666016V17.3327H17.3327V0.666016Z" fill="white"/>
</mask>
<g mask="url(#mask0_5895_232183)">
<path d="M5.56617 5.14258L2.52763 8.18008C1.61953 9.08817 1.10938 10.3198 1.10938 11.604C1.10938 12.8883 1.61953 14.1199 2.52763 15.028C3.43572 15.9361 4.66735 16.4462 5.95158 16.4462C7.23582 16.4462 8.46745 15.9361 9.37554 15.028L12.413 11.9895L5.56617 5.14258Z" fill="#7D8497"/>
<path d="M8.85903 14.5107C8.47717 14.8927 8.02381 15.1957 7.52483 15.4025C7.02586 15.6093 6.49104 15.7158 5.95091 15.7159C4.86007 15.716 3.81384 15.2829 3.04236 14.5117C2.27088 13.7405 1.83736 12.6944 1.83717 11.6036C1.83697 10.5127 2.27012 9.46651 3.04132 8.69504L8.69444 3.04295C9.07482 2.65441 9.52847 2.34515 10.0291 2.13308C10.5298 1.921 11.0676 1.81032 11.6113 1.80743C12.155 1.80454 12.6939 1.9095 13.1968 2.11625C13.6997 2.32299 14.1566 2.62741 14.5411 3.01189C14.9256 3.39637 15.23 3.85328 15.4368 4.35618C15.6435 4.85908 15.7485 5.39799 15.7456 5.94172C15.7427 6.48545 15.632 7.02321 15.4199 7.52388C15.2079 8.02456 14.8986 8.4782 14.5101 8.85858L8.85903 14.5096V14.5107ZM15.0267 2.52733C14.1188 1.61942 12.8873 1.10938 11.6033 1.10938C10.3193 1.10938 9.08784 1.61942 8.17986 2.52733L2.52778 8.17941C1.61969 9.08736 1.10947 10.3189 1.10938 11.603C1.10928 12.8871 1.6193 14.1187 2.52726 15.0268C3.43521 15.9349 4.66671 16.4451 5.95085 16.4452C7.23498 16.4453 8.46656 15.9353 9.37465 15.0273L15.0278 9.3742C15.9357 8.46622 16.4457 7.23479 16.4457 5.95077C16.4457 4.66674 15.9346 3.43531 15.0267 2.52733Z" fill="#7D8497"/>
</g>
</svg>
