<svg width="14" height="15" viewBox="0 0 14 15" fill="none" xmlns="http://www.w3.org/2000/svg">
  <path fill-rule="evenodd" clip-rule="evenodd" d="M6.80432 7.96923C6.49314 7.96923 5.36738 7.97876 5.36738 7.97876V10.5338L1.72411 6.54181L5.36738 2.545V5.11914C5.36738 5.11914 6.5569 5.10487 6.80432 5.11438C10.1645 5.21906 12.4978 9.04457 12.5131 10.8336C11.4863 9.51562 8.78844 7.96923 6.80432 7.96923ZM6.32042 4.16753V1.36025C6.3366 1.2175 6.29806 1.07478 6.18957 0.965346C6.00115 0.779781 5.69569 0.779781 5.50727 0.965346L0.754416 6.18019C0.65402 6.28011 0.611196 6.40858 0.617858 6.54181C0.611196 6.67028 0.65402 6.80351 0.754416 6.90343L5.4811 12.085C5.56865 12.1944 5.69569 12.2658 5.84366 12.2658C5.97879 12.2658 6.09917 12.2087 6.18577 12.1183C6.18672 12.1183 6.18862 12.1183 6.18957 12.1135C6.29806 12.0088 6.3366 11.8614 6.32042 11.7234C6.32042 11.7234 6.32851 9.08262 6.32851 8.92085C9.46885 8.92085 12.3089 11.1809 12.8728 14.1595C13.2525 13.284 13.4656 12.3229 13.4656 11.3094C13.4656 7.36496 10.2663 4.16753 6.32042 4.16753Z" fill="#7D8497"/>
</svg>