<svg width="20" height="20" viewBox="0 0 20 20" fill="none" xmlns="http://www.w3.org/2000/svg">
  <path d="M11.8746 17.501C11.8746 17.6667 11.8087 17.8257 11.6915 17.9429C11.5743 18.0601 11.4153 18.126 11.2496 18.126H8.74957C8.58381 18.126 8.42484 18.0601 8.30763 17.9429C8.19042 17.8257 8.12457 17.6667 8.12457 17.501C8.12457 17.3352 8.19042 17.1762 8.30763 17.059C8.42484 16.9418 8.58381 16.876 8.74957 16.876H11.2496C11.4153 16.876 11.5743 16.9418 11.6915 17.059C11.8087 17.1762 11.8746 17.3352 11.8746 17.501ZM9.99957 8.75097C10.185 8.75097 10.3662 8.69599 10.5204 8.59298C10.6746 8.48996 10.7948 8.34355 10.8657 8.17224C10.9367 8.00093 10.9552 7.81243 10.9191 7.63058C10.8829 7.44872 10.7936 7.28167 10.6625 7.15056C10.5314 7.01945 10.3643 6.93016 10.1825 6.89399C10.0006 6.85781 9.81211 6.87638 9.64081 6.94734C9.4695 7.01829 9.32308 7.13846 9.22007 7.29263C9.11706 7.4468 9.06207 7.62805 9.06207 7.81347C9.06207 8.06212 9.16084 8.30057 9.33666 8.47639C9.51247 8.6522 9.75093 8.75097 9.99957 8.75097ZM17.4699 12.1752L16.5043 16.5213C16.4584 16.7277 16.361 16.9191 16.2211 17.0776C16.0813 17.2361 15.9034 17.3565 15.7044 17.4276C15.5053 17.4987 15.2914 17.5181 15.0827 17.4841C14.8741 17.4501 14.6775 17.3637 14.5113 17.233L12.3832 15.626H7.61754L5.48785 17.233C5.32167 17.3637 5.12506 17.4501 4.91641 17.4841C4.70776 17.5181 4.49389 17.4987 4.29479 17.4276C4.0957 17.3565 3.91789 17.2361 3.778 17.0776C3.6381 16.9191 3.5407 16.7277 3.49488 16.5213L2.52926 12.1752C2.4883 11.9887 2.49037 11.7953 2.53531 11.6097C2.58025 11.4241 2.66689 11.2512 2.78863 11.1041L5.01988 8.42754C5.09477 7.4439 5.32059 6.47764 5.68942 5.56269C6.69723 3.03613 8.50192 1.45097 9.23395 0.886912C9.45306 0.717134 9.72238 0.625 9.99957 0.625C10.2768 0.625 10.5461 0.717134 10.7652 0.886912C11.4949 1.45097 13.3019 3.03613 14.3097 5.56269C14.6786 6.47764 14.9044 7.4439 14.9793 8.42754L17.2105 11.1041C17.3323 11.2512 17.4189 11.4241 17.4638 11.6097C17.5088 11.7953 17.5108 11.9887 17.4699 12.1752ZM7.76754 14.376H12.2316C13.8816 11.4432 14.1902 8.63535 13.1488 6.02597C12.23 3.72285 10.5066 2.2666 9.99957 1.87597C9.49098 2.2666 7.76754 3.72285 6.84879 6.02597C5.80895 8.63535 6.11754 11.4432 7.76754 14.376ZM6.59567 14.833C5.75452 13.3044 5.2441 11.802 5.06442 10.326L3.74957 11.9041L4.7152 16.251L4.72926 16.2408L6.59567 14.833ZM16.2496 11.9041L14.9347 10.326C14.7566 11.7989 14.2472 13.3012 13.4066 14.833L15.2699 16.2393L15.2839 16.2494L16.2496 11.9041Z" fill="#7D8497"/>
</svg>