<svg viewBox="0 0 14 14" fill="currentColor" xmlns="http://www.w3.org/2000/svg">
<path d="M13.2531 13.2526C13.4697 13.036 13.4697 12.6847 13.2531 12.4681L10.1711 9.38609C11.0736 8.28234 11.5173 6.87394 11.4105 5.45221C11.3036 4.03047 10.6545 2.70419 9.59718 1.74768C8.53991 0.791172 7.15544 0.277625 5.73015 0.313261C4.30485 0.348898 2.94778 0.930993 1.93963 1.93914C0.931481 2.94729 0.349387 4.30436 0.31375 5.72966C0.278113 7.15495 0.79166 8.53942 1.74817 9.59669C2.70468 10.654 4.03096 11.3032 5.45269 11.41C6.87443 11.5168 8.28283 11.0731 9.38658 10.1706L12.4686 13.2526C12.6852 13.4692 13.0365 13.4692 13.2531 13.2526ZM5.87793 10.316C5.00007 10.316 4.14193 10.0556 3.41201 9.56794C2.6821 9.08023 2.11321 8.38702 1.77726 7.57599C1.44132 6.76495 1.35343 5.87251 1.52469 5.01153C1.69595 4.15054 2.11868 3.35967 2.73942 2.73893C3.36015 2.11819 4.15102 1.69546 5.01201 1.5242C5.873 1.35294 6.76544 1.44083 7.57648 1.77678C8.38751 2.11272 9.08071 2.68161 9.56843 3.41153C10.0561 4.14144 10.3165 4.99958 10.3165 5.87744C10.3151 7.0542 9.84708 8.18239 9.01498 9.01449C8.18288 9.84659 7.05469 10.3146 5.87793 10.316Z" fill="currentColor"/>
</svg>
