<svg xmlns="http://www.w3.org/2000/svg" width="16" height="16" viewBox="0 0 16 16" fill="none">
  <path d="M14.492 7.12465L3.99198 1.13152C3.81487 1.03182 3.61158 0.988448 3.4092 1.00719C3.20682 1.02594 3.01496 1.1059 2.85917 1.23644C2.70339 1.36697 2.59107 1.54188 2.5372 1.73785C2.48332 1.93383 2.49044 2.14157 2.55761 2.3334L4.47198 7.99965L2.55761 13.6665C2.50433 13.8173 2.488 13.9787 2.50998 14.1371C2.53196 14.2955 2.59162 14.4463 2.68395 14.5769C2.77627 14.7075 2.89857 14.8141 3.04058 14.8876C3.18259 14.9612 3.34018 14.9996 3.50011 14.9996C3.67386 14.9993 3.84457 14.9541 3.99573 14.8684L14.4907 8.86527C14.6455 8.77856 14.7745 8.65222 14.8643 8.49921C14.9542 8.34621 15.0017 8.17206 15.002 7.99462C15.0023 7.81719 14.9554 7.64287 14.8661 7.48954C14.7768 7.33622 14.6483 7.20942 14.4939 7.12215L14.492 7.12465ZM3.50011 13.9996C3.50037 13.9972 3.50037 13.9946 3.50011 13.9921L5.35886 8.49965H9.00011C9.13271 8.49965 9.25989 8.44697 9.35366 8.3532C9.44743 8.25943 9.50011 8.13225 9.50011 7.99965C9.50011 7.86704 9.44743 7.73986 9.35366 7.64609C9.25989 7.55232 9.13271 7.49965 9.00011 7.49965H5.35886L3.50386 2.00965C3.50324 2.00611 3.50197 2.00272 3.50011 1.99965L14.0001 7.98902L3.50011 13.9996Z" fill="#7D8497"/>
</svg>