<svg width="31" height="31" viewBox="0 0 31 31" fill="none" xmlns="http://www.w3.org/2000/svg">
<g clip-path="url(#clip0_6734_390642)">
<path d="M13.5527 0.0806844C14.2868 -0.0353067 16.4843 -0.0132131 17.2561 0.0650349C17.8385 0.123951 18.3943 0.488495 18.6507 1.01322C18.9391 1.60422 19.0485 2.79819 19.3571 3.26952C19.4169 3.36066 19.5556 3.47112 19.6539 3.52452C19.822 3.61565 20.9144 4.06673 21.077 4.09987C21.2396 4.13301 21.3232 4.14498 21.4959 4.09803C22.5892 3.80345 23.6751 2.29372 25.0035 3.20416C25.4656 3.52083 27.2801 5.37117 27.6614 5.8517C28.0628 6.35709 28.1501 6.84591 27.9737 7.47558C27.8084 8.06658 26.9319 9.09485 26.8694 9.61497C26.852 9.75582 26.8832 9.84603 26.9154 9.97491C26.9595 10.1535 27.405 11.2315 27.4978 11.3898C27.5778 11.5251 27.7174 11.6503 27.8616 11.7148C28.9007 12.1797 30.7234 12.0674 30.9265 13.6111C31.0293 14.3909 31.0128 16.4548 30.932 17.2566C30.8732 17.8393 30.5084 18.3953 29.9839 18.6512C29.3931 18.9403 28.1988 19.0489 27.7275 19.3582C27.6366 19.4181 27.5263 19.5571 27.473 19.6546C27.3812 19.8231 26.931 20.9149 26.897 21.0778C26.863 21.2408 26.852 21.3236 26.8988 21.4967C27.2176 22.6815 28.7905 23.6876 27.6917 25.1108C27.2507 25.6825 25.7165 27.2088 25.145 27.6626C24.6397 28.064 24.151 28.1515 23.5217 27.9756C22.93 27.8099 21.9029 26.9335 21.3829 26.8709C21.2423 26.8535 21.1514 26.8848 21.0228 26.917C20.8445 26.9612 19.766 27.4067 19.608 27.4997C19.4729 27.5789 19.348 27.7197 19.2827 27.8642C18.8179 28.9036 18.9299 30.7263 17.3865 30.9297C16.6065 31.0319 14.5431 31.0153 13.7411 30.9352C13.1586 30.8763 12.6028 30.5118 12.3465 29.9871C12.058 29.3961 11.9487 28.2021 11.64 27.7308C11.5803 27.6396 11.4416 27.5292 11.3432 27.4758C11.1751 27.3846 10.0828 26.9335 9.92017 26.9004C9.75756 26.8673 9.67395 26.8553 9.50124 26.9022C8.31702 27.2217 7.31012 28.794 5.88703 27.6958C5.3156 27.2548 3.78962 25.7212 3.33486 25.1486C2.93338 24.6432 2.84611 24.1544 3.0225 23.5247C3.18787 22.9337 4.06432 21.9054 4.12679 21.3853C4.14424 21.2445 4.11301 21.1542 4.08085 21.0254C4.03675 20.8468 3.59118 19.7688 3.49839 19.6105C3.41938 19.4761 3.27882 19.3499 3.13458 19.2855C2.09093 18.8197 0.271884 18.9292 0.069768 17.3891C-0.0331274 16.6094 -0.0165906 14.5455 0.0642558 13.7437C0.123053 13.161 0.487781 12.605 1.01236 12.349C1.60309 12.06 2.79742 11.9514 3.26871 11.6421C3.35967 11.5822 3.46991 11.4432 3.5232 11.3456C3.61507 11.1772 4.06523 10.0854 4.09923 9.92244C4.13322 9.7595 4.14424 9.67665 4.09739 9.50358C3.80248 8.40995 2.29304 7.3246 3.20348 5.99531C3.52044 5.53319 5.3698 3.71875 5.8512 3.33672C6.35649 2.93535 6.84525 2.8479 7.47456 3.02373C8.05427 3.18575 9.11814 4.06857 9.61332 4.12841C9.75388 4.1459 9.84483 4.1146 9.97345 4.08238C10.1517 4.03819 11.2302 3.59264 11.3883 3.49966C11.5233 3.42049 11.6483 3.27965 11.7135 3.13512C12.1682 2.11881 12.069 0.315428 13.5518 0.0806844H13.5527ZM13.6887 1.18076C13.5353 1.22218 13.4177 1.31884 13.3488 1.46061C12.9565 2.26887 12.9859 3.59264 12.262 4.23243C11.9588 4.50031 10.295 5.19074 9.88342 5.23032C9.31474 5.28463 9.14753 5.15668 8.67715 4.92285C8.05059 4.61078 7.10892 3.75834 6.47225 4.23059C6.17827 4.44876 4.3335 6.28068 4.16813 6.54397C4.11576 6.62682 4.07901 6.68481 4.06432 6.787C3.96601 7.45809 5.16952 8.6898 5.23567 9.53488C5.27977 10.1056 4.67801 11.6043 4.35095 12.1014C3.65182 13.1628 2.05234 12.7928 1.20346 13.6397L1.1713 17.252C1.18141 17.344 1.21907 17.4223 1.27236 17.4959C1.56175 17.8973 3.52687 18.0133 4.16721 18.6669C4.48141 18.9872 5.18882 20.6617 5.232 21.1156C5.2862 21.6845 5.1585 21.852 4.92423 22.3224C4.61278 22.9493 3.76022 23.8911 4.23244 24.5272C4.45017 24.8209 6.28208 26.6657 6.54483 26.8314C6.62751 26.8829 6.68631 26.9207 6.78829 26.9354C7.45895 27.0339 8.69094 25.8298 9.53615 25.7644C10.1076 25.7202 11.606 26.3223 12.1021 26.6491C13.1632 27.3487 12.7939 28.9477 13.64 29.7965L17.2524 29.8287C17.3443 29.8186 17.4223 29.7808 17.4958 29.7275C17.8973 29.4375 18.0131 27.4721 18.6663 26.8332C18.9961 26.5101 20.6498 25.8123 21.1146 25.7681C21.6833 25.7138 21.8505 25.8418 22.3209 26.0756C22.9475 26.3877 23.8891 27.2401 24.5258 26.7678C24.8198 26.5497 26.6636 24.7187 26.8299 24.4545C26.9641 24.2409 26.9668 24.078 26.9034 23.8349C26.75 23.243 25.902 22.3086 25.7798 21.7204C25.6356 21.0226 26.3945 19.0222 26.9356 18.5656C27.5493 18.0473 29.5567 17.8908 29.7781 17.3422C29.8222 17.2336 29.8231 17.1645 29.8332 17.0531C29.8957 16.3655 29.926 14.389 29.8258 13.7465C29.7983 13.5679 29.6981 13.427 29.5346 13.3479C28.6324 12.9097 27.2599 13.033 26.6462 12.1014C26.3044 11.5822 25.699 10.0706 25.7642 9.4686C25.8478 8.69348 26.7261 7.8438 26.9025 7.16259C26.9852 6.84499 26.9494 6.71887 26.7647 6.4694C26.547 6.17574 24.7151 4.33093 24.4523 4.16523C24.3696 4.11368 24.3108 4.07593 24.2089 4.0612C23.5382 3.9627 22.3062 5.1668 21.461 5.23216C20.8896 5.27635 19.3911 4.6743 18.895 4.3475C17.8339 3.64787 18.2032 2.04885 17.3571 1.20009L13.6869 1.17892L13.6887 1.18076Z" fill="white"/>
<path d="M16.6023 12.811H19.7369C19.7645 12.811 20.1696 13.043 20.2202 13.0853C20.55 13.3642 20.6841 13.9157 20.5656 14.329L16.4323 22.3232C15.9996 22.6997 15.407 22.8037 14.9137 22.4594C14.7575 22.3508 14.3974 21.9144 14.3974 21.7349V18.1861H11.2627C11.2352 18.1861 10.83 17.9542 10.7795 17.9118C10.4497 17.6329 10.3155 17.0815 10.4341 16.6681L14.5673 8.67396C15 8.29745 15.5926 8.19342 16.086 8.53771C16.2421 8.64634 16.6023 9.08269 16.6023 9.2622V12.811ZM15.4998 9.43526C15.3758 9.40949 15.3639 9.47117 15.3041 9.54941C15.1222 9.78876 14.8062 10.4912 14.6372 10.8115C13.588 12.8036 12.6445 14.8546 11.5576 16.8274L11.5034 17.0833H15.0515C15.1397 17.0833 15.4998 17.4433 15.4998 17.5316V21.5628C15.6239 21.5886 15.6358 21.5269 15.6955 21.4486C15.8967 21.1844 16.2458 20.4029 16.4314 20.0484C17.453 18.0996 18.3837 16.1001 19.442 14.1697L19.4962 13.9138H15.9482C15.86 13.9138 15.4998 13.5539 15.4998 13.4655V9.43434V9.43526Z" fill="white"/>
</g>
<defs>
<clipPath id="clip0_6734_390642">
<rect width="31" height="31" fill="white"/>
</clipPath>
</defs>
</svg>
