<svg width="24" height="24" viewBox="0 0 24 24" fill="#E95B70" xmlns="http://www.w3.org/2000/svg">
<path fill-rule="evenodd" clip-rule="evenodd" d="M18.3503 7.57311C17.291 8.61791 15.9131 9.27904 14.4353 9.4516C9.88324 8.78987 10.2466 2.15927 14.8629 2.00592L19.3441 2.01759C19.4515 1.99674 19.5618 1.99674 19.6691 2.01759H21.1693C21.3903 2.01759 21.6023 2.10539 21.7586 2.26169C21.9149 2.41798 22.0027 2.62996 22.0027 2.851C22.0027 3.07203 21.9149 3.28401 21.7586 3.4403C21.6023 3.5966 21.3903 3.6844 21.1693 3.6844H20.2825C20.0896 5.15969 19.4096 6.52831 18.3503 7.57311ZM15.0913 4.74441C14.935 4.58812 14.723 4.50031 14.502 4.50031C14.281 4.50031 14.069 4.58812 13.9127 4.74441C13.7564 4.90071 13.6686 5.11269 13.6686 5.33372C13.6686 5.55476 13.7564 5.76674 13.9127 5.92303C14.069 6.07933 14.281 6.16713 14.502 6.16713C14.723 6.16713 14.935 6.07933 15.0913 5.92303C15.2476 5.76674 15.3354 5.55476 15.3354 5.33372C15.3354 5.11269 15.2476 4.90071 15.0913 4.74441Z" fill="#E95B70"/>
<path d="M10.2951 12.3468C9.77405 12.0485 9.33328 11.6281 9.01067 11.1217C7.74904 11.0137 6.55609 10.5009 5.60963 9.65974C4.66317 8.81856 4.01388 7.69405 3.75852 6.45382C4.5865 5.27143 5.65116 4.27401 6.88498 3.52483C8.1188 2.77564 9.49485 2.29104 10.9258 2.10175C10.4399 2.64239 10.0669 3.27468 9.82882 3.96148C9.59069 4.64828 9.49222 5.37575 9.5392 6.10114C9.58617 6.82654 9.77763 7.53523 10.1023 8.18559C10.4271 8.83595 10.8785 9.41485 11.4301 9.8883C11.1101 10.0131 10.8019 10.1663 10.5091 10.3458C10.6811 10.5852 10.9044 10.7832 11.1626 10.9254C11.4208 11.0675 11.7075 11.1503 12.0018 11.1676C12.2228 11.1676 12.4348 11.2554 12.5911 11.4117C12.7474 11.568 12.8352 11.78 12.8352 12.001C12.8352 12.222 12.7474 12.434 12.5911 12.5903C12.4348 12.7466 12.2228 12.8344 12.0018 12.8344C11.4018 12.8125 10.8161 12.6452 10.2951 12.3468Z" fill="#E95B70"/>
<path d="M7.35887 15.2605C7.79474 15.6605 10.9675 17.1007 11.1684 15.3347C11.1684 15.1136 11.0806 14.9016 10.9243 14.7453C10.768 14.5891 10.556 14.5012 10.335 14.5012C9.90807 14.5256 9.4808 14.4605 9.08053 14.3101C8.68026 14.1597 8.31583 13.9273 8.0106 13.6278C8.09221 13.3214 8.2007 13.0227 8.33479 12.7353C7.1153 12.5371 5.96268 12.044 4.97717 11.2989C3.99166 10.5538 3.20312 9.57919 2.68011 8.45986C2.08966 9.94005 1.88101 11.545 2.07339 13.127C2.37008 13.9812 4.58445 15.773 7.35887 15.2605Z" fill="#E95B70"/>
<path d="M13.3785 20.3351C14.4695 19.4826 17.7864 17.0015 19.5024 17.0015C20.1655 17.0015 20.8015 17.2649 21.2704 17.7338C21.7393 18.2027 22.0027 18.8386 22.0027 19.5017C22.0027 20.1648 21.7393 20.8008 21.2704 21.2697C20.8015 21.7385 20.1655 22.002 19.5024 22.002H12.0017C10.0881 22.0006 8.21504 21.4502 6.60484 20.4161C4.99465 19.382 3.71494 17.9077 2.91758 16.1681C4.54697 16.9731 6.40137 17.2011 8.17723 16.8148C8.58132 17.8623 9.29627 18.761 10.2261 19.3903C11.1558 20.0196 12.2559 20.3493 13.3785 20.3351Z" fill="#E95B70"/>
</svg>
