<svg width="22" height="22" viewBox="0 0 22 22" fill="none" xmlns="http://www.w3.org/2000/svg">
<path d="M16.3469 3.66699H5.65245C3.54641 3.66699 1.83301 5.3804 1.83301 7.48644V15.1253C1.83301 17.2314 3.54641 18.9448 5.65245 18.9448H16.3469C18.4529 18.9448 20.1663 17.2314 20.1663 15.1253V7.48644C20.1663 5.3804 18.4529 3.66699 16.3469 3.66699ZM3.36079 15.1253V7.48644C3.36079 6.22296 4.38898 5.19477 5.65245 5.19477H8.70801V17.417H5.65245C4.38898 17.417 3.36079 16.3888 3.36079 15.1253ZM18.6386 15.1253C18.6386 16.3888 17.6104 17.417 16.3469 17.417H10.2358V5.19477H16.3469C17.6104 5.19477 18.6386 6.22296 18.6386 7.48644V15.1253Z" fill="#7D8497"/>
</svg>
