<svg width="12" height="12" viewBox="0 0 12 12" fill="none" xmlns="http://www.w3.org/2000/svg">
  <path d="M6 1.125C5.03582 1.125 4.09329 1.41091 3.2916 1.94659C2.48991 2.48226 1.86507 3.24363 1.49609 4.13442C1.12711 5.02521 1.03057 6.00541 1.21867 6.95107C1.40678 7.89672 1.87108 8.76536 2.55286 9.44715C3.23464 10.1289 4.10328 10.5932 5.04894 10.7813C5.99459 10.9694 6.97479 10.8729 7.86558 10.5039C8.75637 10.1349 9.51775 9.51009 10.0534 8.7084C10.5891 7.90671 10.875 6.96418 10.875 6C10.8735 4.70753 10.3594 3.46842 9.4455 2.5545C8.53159 1.64058 7.29248 1.12649 6 1.125ZM10.125 6C10.1253 6.38042 10.0728 6.75904 9.96891 7.125H8.16375C8.27875 6.37941 8.27875 5.62059 8.16375 4.875H9.96891C10.0728 5.24096 10.1253 5.61958 10.125 6ZM4.78125 7.875H7.21875C6.97862 8.66184 6.56174 9.38335 6 9.98438C5.43848 9.38319 5.02163 8.66173 4.78125 7.875ZM4.59844 7.125C4.46969 6.38053 4.46969 5.61947 4.59844 4.875H7.40531C7.53406 5.61947 7.53406 6.38053 7.40531 7.125H4.59844ZM1.875 6C1.87468 5.61958 1.92721 5.24096 2.0311 4.875H3.83625C3.72125 5.62059 3.72125 6.37941 3.83625 7.125H2.0311C1.92721 6.75904 1.87468 6.38042 1.875 6ZM7.21875 4.125H4.78125C5.02139 3.33816 5.43826 2.61665 6 2.01562C6.56153 2.61681 6.97837 3.33827 7.21875 4.125ZM9.67172 4.125H8.00203C7.79159 3.35293 7.43691 2.62766 6.95672 1.9875C7.5369 2.12687 8.08008 2.39005 8.54902 2.75899C9.01797 3.12794 9.40159 3.59392 9.6736 4.125H9.67172ZM5.04328 1.9875C4.56309 2.62766 4.20842 3.35293 3.99797 4.125H2.32641C2.59841 3.59392 2.98203 3.12794 3.45098 2.75899C3.91993 2.39005 4.46311 2.12687 5.04328 1.9875ZM2.32641 7.875H3.99797C4.20842 8.64707 4.56309 9.37234 5.04328 10.0125C4.46311 9.87313 3.91993 9.60995 3.45098 9.241C2.98203 8.87206 2.59841 8.40608 2.32641 7.875ZM6.95672 10.0125C7.43691 9.37234 7.79159 8.64707 8.00203 7.875H9.6736C9.40159 8.40608 9.01797 8.87206 8.54902 9.241C8.08008 9.60995 7.5369 9.87313 6.95672 10.0125Z" fill="#C4C7CF"/>
</svg>