<svg width="10" height="10" viewBox="0 0 10 10" fill="currentColor" xmlns="http://www.w3.org/2000/svg">
<path d="M9.12392 6.97456L7.74824 8.41183C7.71834 8.44306 7.68215 8.46795 7.64195 8.48496C7.60174 8.50197 7.55837 8.51075 7.51454 8.51072H0.993201C0.962084 8.51072 0.931645 8.50186 0.905625 8.48524C0.879604 8.46862 0.859135 8.44495 0.846732 8.41715C0.834329 8.38935 0.830533 8.35862 0.835809 8.32875C0.841086 8.29887 0.855207 8.27115 0.876435 8.24899L2.25314 6.81171C2.28297 6.78057 2.31903 6.75573 2.35911 6.73872C2.39919 6.72171 2.44242 6.7129 2.48614 6.71283H9.00712C9.03823 6.71283 9.06867 6.72169 9.09471 6.7383C9.1207 6.75493 9.14116 6.7786 9.15362 6.8064C9.166 6.8342 9.16979 6.86492 9.16451 6.8948C9.15923 6.92467 9.14512 6.9524 9.12392 6.97456ZM7.74824 4.08029C7.71834 4.04907 7.68215 4.02418 7.64195 4.00717C7.60174 3.99016 7.55837 3.98139 7.51454 3.98142H0.993201C0.962084 3.98142 0.931645 3.99027 0.905625 4.0069C0.879604 4.02352 0.859135 4.04718 0.846732 4.07498C0.834329 4.10279 0.830533 4.13351 0.835809 4.16339C0.841086 4.19326 0.855207 4.22098 0.876435 4.24315L2.25314 5.68043C2.28297 5.71156 2.31903 5.7364 2.35911 5.75341C2.39919 5.77042 2.44242 5.77924 2.48614 5.7793H9.00712C9.03823 5.7793 9.06867 5.77045 9.09471 5.75382C9.1207 5.7372 9.14116 5.71354 9.15362 5.68574C9.166 5.65793 9.16979 5.62721 9.16451 5.59733C9.15923 5.56746 9.14512 5.53974 9.12392 5.51757L7.74824 4.08029ZM0.993201 3.04789H7.51454C7.55837 3.04791 7.60174 3.03915 7.64195 3.02214C7.68215 3.00512 7.71834 2.98023 7.74824 2.94901L9.12392 1.51173C9.14512 1.48957 9.15923 1.46185 9.16451 1.43197C9.16979 1.4021 9.166 1.37137 9.15362 1.34357C9.14116 1.31577 9.1207 1.2921 9.09471 1.27548C9.06867 1.25886 9.03823 1.25 9.00712 1.25H2.48614C2.44242 1.25007 2.39919 1.25889 2.35911 1.2759C2.31903 1.2929 2.28297 1.31775 2.25314 1.34888L0.87679 2.78616C0.855582 2.8083 0.841468 2.836 0.836179 2.86583C0.83089 2.89568 0.834656 2.92638 0.847016 2.95417C0.859375 2.98195 0.87979 3.00562 0.905757 3.02227C0.931725 3.03892 0.962115 3.04782 0.993201 3.04789Z" fill="currentColor"/>
</svg>