<svg width="20" height="20" viewBox="0 0 20 20" fill="currentColor" xmlns="http://www.w3.org/2000/svg">
  <path d="M5.80795 16.6927L3.30795 14.1927C3.19068 14.0754 3.12479 13.9163 3.12479 13.7505C3.12479 13.5846 3.19068 13.4256 3.30795 13.3083C3.42523 13.191 3.58429 13.1251 3.75014 13.1251C3.91599 13.1251 4.07505 13.191 4.19233 13.3083L5.62514 14.7419L5.62514 3.75049C5.62514 3.58473 5.69099 3.42576 5.8082 3.30855C5.92541 3.19134 6.08438 3.12549 6.25014 3.12549C6.4159 3.12549 6.57487 3.19134 6.69208 3.30855C6.80929 3.42576 6.87514 3.58473 6.87514 3.75049L6.87514 14.7419L8.30795 13.3083C8.42523 13.191 8.58429 13.1251 8.75014 13.1251C8.91599 13.1251 9.07505 13.191 9.19233 13.3083C9.3096 13.4256 9.37549 13.5846 9.37549 13.7505C9.37549 13.9163 9.3096 14.0754 9.19233 14.1927L6.69233 16.6927C6.63428 16.7508 6.56535 16.7969 6.48948 16.8283C6.41361 16.8598 6.33227 16.876 6.25014 16.876C6.16801 16.876 6.08668 16.8598 6.0108 16.8283C5.93493 16.7969 5.866 16.7508 5.80795 16.6927ZM10.808 5.8083C10.6907 5.92558 10.6248 6.08464 10.6248 6.25049C10.6248 6.41634 10.6907 6.5754 10.808 6.69268C10.9252 6.80995 11.0843 6.87584 11.2501 6.87584C11.416 6.87584 11.5751 6.80995 11.6923 6.69268L13.1251 5.25909L13.1251 16.2505C13.1251 16.4163 13.191 16.5752 13.3082 16.6924C13.4254 16.8096 13.5844 16.8755 13.7501 16.8755C13.9159 16.8755 14.0749 16.8096 14.1921 16.6924C14.3093 16.5752 14.3751 16.4163 14.3751 16.2505L14.3751 5.25909L15.808 6.69268C15.9252 6.80995 16.0843 6.87584 16.2501 6.87584C16.416 6.87584 16.5751 6.80995 16.6923 6.69268C16.8096 6.5754 16.8755 6.41634 16.8755 6.25049C16.8755 6.08464 16.8096 5.92558 16.6923 5.8083L14.1923 3.3083C14.1343 3.25019 14.0654 3.20409 13.9895 3.17264C13.9136 3.14119 13.8323 3.125 13.7501 3.125C13.668 3.125 13.5867 3.14119 13.5108 3.17264C13.4349 3.20409 13.366 3.25019 13.308 3.3083L10.808 5.8083Z" fill="currentColor"/>
</svg>