<svg width="16" height="16" viewBox="0 0 16 16" fill="none" xmlns="http://www.w3.org/2000/svg">
  <path d="M12.9412 4.54166C12.2931 3.89207 11.5228 3.3772 10.6747 3.02675C9.82668 2.6763 8.91762 2.49721 8 2.49978H7.975C4.12937 2.51291 1 5.68728 1 9.57041V10.9998C1 11.265 1.10536 11.5194 1.29289 11.7069C1.48043 11.8944 1.73478 11.9998 2 11.9998H14C14.2652 11.9998 14.5196 11.8944 14.7071 11.7069C14.8946 11.5194 15 11.265 15 10.9998V9.49978C15.0026 8.57815 14.8219 7.66519 14.4684 6.81401C14.115 5.96283 13.5959 5.19041 12.9412 4.54166ZM14 10.9998H7.48187L10.9044 6.29353C10.9824 6.18629 11.0147 6.05242 10.9941 5.92138C10.9735 5.79034 10.9016 5.67286 10.7944 5.59478C10.6871 5.51671 10.5533 5.48444 10.4222 5.50507C10.2912 5.5257 10.1737 5.59754 10.0956 5.70478L6.245 10.9998H2V9.57041C2 9.37791 2.00937 9.18791 2.02688 8.99978H3.5C3.63261 8.99978 3.75979 8.94711 3.85355 8.85334C3.94732 8.75957 4 8.63239 4 8.49978C4 8.36718 3.94732 8.24 3.85355 8.14623C3.75979 8.05246 3.63261 7.99978 3.5 7.99978H2.20438C2.84938 5.57103 4.95438 3.73478 7.5 3.52103V4.99978C7.5 5.13239 7.55268 5.25957 7.64645 5.35334C7.74021 5.44711 7.86739 5.49978 8 5.49978C8.13261 5.49978 8.25979 5.44711 8.35355 5.35334C8.44732 5.25957 8.5 5.13239 8.5 4.99978V3.52041C9.74041 3.6248 10.9178 4.11184 11.8694 4.91426C12.8211 5.71667 13.5001 6.79484 13.8125 7.99978H12.5C12.3674 7.99978 12.2402 8.05246 12.1464 8.14623C12.0527 8.24 12 8.36718 12 8.49978C12 8.63239 12.0527 8.75957 12.1464 8.85334C12.2402 8.94711 12.3674 8.99978 12.5 8.99978H13.9794C13.9925 9.16541 14 9.33166 14 9.49978V10.9998Z" fill="#34D399"/>
</svg>