<svg xmlns="http://www.w3.org/2000/svg" width="18" height="18" viewBox="0 0 18 18" fill="none">
<path d="M17.3048 7.97262L13.7892 11.0062L14.8603 15.5429C14.9194 15.7892 14.9042 16.0475 14.8166 16.2851C14.729 16.5227 14.5729 16.7291 14.3681 16.8781C14.1632 17.027 13.9189 17.112 13.6658 17.1221C13.4127 17.1323 13.1623 17.0672 12.9462 16.9351L9.00093 14.507L5.05327 16.9351C4.8372 17.0664 4.5871 17.1309 4.33447 17.1204C4.08184 17.1098 3.83798 17.0248 3.63359 16.8759C3.42919 16.7271 3.27341 16.5211 3.18585 16.2839C3.0983 16.0467 3.08288 15.7889 3.14155 15.5429L4.21655 11.0062L0.700928 7.97262C0.509754 7.80739 0.371494 7.58951 0.303414 7.34617C0.235334 7.10284 0.240452 6.84484 0.318127 6.60439C0.395803 6.36395 0.542594 6.15172 0.740169 5.9942C0.937744 5.83669 1.17735 5.74087 1.42905 5.71871L6.03843 5.34684L7.81655 1.04371C7.9128 0.809197 8.07661 0.608596 8.28716 0.467416C8.4977 0.326236 8.74548 0.250854 8.99897 0.250854C9.25247 0.250854 9.50025 0.326236 9.71079 0.467416C9.92134 0.608596 10.0852 0.809197 10.1814 1.04371L11.9587 5.34684L16.5681 5.71871C16.8203 5.74004 17.0606 5.83533 17.2589 5.99262C17.4572 6.14992 17.6047 6.36224 17.6828 6.60298C17.761 6.84371 17.7664 7.10216 17.6983 7.34594C17.6302 7.58972 17.4917 7.80799 17.3001 7.9734L17.3048 7.97262Z" fill="#7D8497"/>
</svg>
