<svg width="12" height="12" viewBox="0 0 12 12" fill="currentColor" xmlns="http://www.w3.org/2000/svg">
  <path d="M4.125 3C4.125 2.90054 4.16451 2.80516 4.23484 2.73484C4.30516 2.66451 4.40054 2.625 4.5 2.625H10.125C10.2245 2.625 10.3198 2.66451 10.3902 2.73484C10.4605 2.80516 10.5 2.90054 10.5 3C10.5 3.09946 10.4605 3.19484 10.3902 3.26516C10.3198 3.33549 10.2245 3.375 10.125 3.375H4.5C4.40054 3.375 4.30516 3.33549 4.23484 3.26516C4.16451 3.19484 4.125 3.09946 4.125 3ZM10.125 5.625H4.5C4.40054 5.625 4.30516 5.66451 4.23484 5.73484C4.16451 5.80516 4.125 5.90054 4.125 6C4.125 6.09946 4.16451 6.19484 4.23484 6.26517C4.30516 6.33549 4.40054 6.375 4.5 6.375H10.125C10.2245 6.375 10.3198 6.33549 10.3902 6.26517C10.4605 6.19484 10.5 6.09946 10.5 6C10.5 5.90054 10.4605 5.80516 10.3902 5.73484C10.3198 5.66451 10.2245 5.625 10.125 5.625ZM10.125 8.625H4.5C4.40054 8.625 4.30516 8.66451 4.23484 8.73483C4.16451 8.80516 4.125 8.90054 4.125 9C4.125 9.09946 4.16451 9.19484 4.23484 9.26517C4.30516 9.33549 4.40054 9.375 4.5 9.375H10.125C10.2245 9.375 10.3198 9.33549 10.3902 9.26517C10.4605 9.19484 10.5 9.09946 10.5 9C10.5 8.90054 10.4605 8.80516 10.3902 8.73483C10.3198 8.66451 10.2245 8.625 10.125 8.625ZM2.625 2.625H1.875C1.77554 2.625 1.68016 2.66451 1.60984 2.73484C1.53951 2.80516 1.5 2.90054 1.5 3C1.5 3.09946 1.53951 3.19484 1.60984 3.26516C1.68016 3.33549 1.77554 3.375 1.875 3.375H2.625C2.72446 3.375 2.81984 3.33549 2.89016 3.26516C2.96049 3.19484 3 3.09946 3 3C3 2.90054 2.96049 2.80516 2.89016 2.73484C2.81984 2.66451 2.72446 2.625 2.625 2.625ZM2.625 5.625H1.875C1.77554 5.625 1.68016 5.66451 1.60984 5.73484C1.53951 5.80516 1.5 5.90054 1.5 6C1.5 6.09946 1.53951 6.19484 1.60984 6.26517C1.68016 6.33549 1.77554 6.375 1.875 6.375H2.625C2.72446 6.375 2.81984 6.33549 2.89016 6.26517C2.96049 6.19484 3 6.09946 3 6C3 5.90054 2.96049 5.80516 2.89016 5.73484C2.81984 5.66451 2.72446 5.625 2.625 5.625ZM2.625 8.625H1.875C1.77554 8.625 1.68016 8.66451 1.60984 8.73483C1.53951 8.80516 1.5 8.90054 1.5 9C1.5 9.09946 1.53951 9.19484 1.60984 9.26517C1.68016 9.33549 1.77554 9.375 1.875 9.375H2.625C2.72446 9.375 2.81984 9.33549 2.89016 9.26517C2.96049 9.19484 3 9.09946 3 9C3 8.90054 2.96049 8.80516 2.89016 8.73483C2.81984 8.66451 2.72446 8.625 2.625 8.625Z" fill="currentColor"/>
</svg>