<svg width="12" height="12" viewBox="0 0 12 12" fill="none" xmlns="http://www.w3.org/2000/svg">
  <path fill-rule="evenodd" clip-rule="evenodd" d="M3.48082 6.8101L1.17662 5.90307C0.942597 5.81056 0.940566 5.4621 1.17393 5.36718L10.6304 1.51971C10.8309 1.43793 11.0378 1.62318 10.9941 1.84521L9.29708 10.4546C9.25708 10.6579 9.0311 10.75 8.87161 10.6278L6.555 8.85391C6.4143 8.74617 6.22252 8.75194 6.08789 8.86765L4.8035 9.97197C4.6544 10.1005 4.42977 10.0289 4.3727 9.83517L3.48082 6.8101ZM8.73188 3.40182L4.22862 6.32703C4.05602 6.43939 3.97475 6.65921 4.03051 6.86504L4.51741 8.66942C4.55198 8.79728 4.72795 8.78418 4.74471 8.65206L4.87131 7.66255C4.89518 7.47626 4.97946 7.30462 5.11008 7.17637L8.82659 3.53281C8.89608 3.46481 8.81282 3.34939 8.73188 3.40182Z" fill="#C4C7CF"/>
</svg>