<svg width="14" height="14" viewBox="0 0 14 14" fill="inherit" xmlns="http://www.w3.org/2000/svg">
  <path d="M12.714 4.40178L5.71403 11.4018C5.65306 11.463 5.58061 11.5115 5.50085 11.5446C5.42108 11.5777 5.33556 11.5948 5.24918 11.5948C5.16281 11.5948 5.07729 11.5777 4.99752 11.5446C4.91775 11.5115 4.84531 11.463 4.78434 11.4018L1.72184 8.33928C1.6608 8.27823 1.61237 8.20576 1.57934 8.12601C1.5463 8.04625 1.5293 7.96076 1.5293 7.87443C1.5293 7.78811 1.5463 7.70262 1.57934 7.62286C1.61237 7.5431 1.6608 7.47063 1.72184 7.40959C1.78289 7.34855 1.85536 7.30012 1.93511 7.26709C2.01487 7.23405 2.10036 7.21705 2.18668 7.21705C2.27301 7.21705 2.3585 7.23405 2.43826 7.26709C2.51801 7.30012 2.59048 7.34855 2.65153 7.40959L5.24973 10.0078L11.7854 3.47319C11.9087 3.3499 12.0759 3.28064 12.2503 3.28064C12.4246 3.28064 12.5918 3.3499 12.7151 3.47319C12.8384 3.59647 12.9077 3.76368 12.9077 3.93803C12.9077 4.11238 12.8384 4.27959 12.7151 4.40287L12.714 4.40178Z" fill="inherit"/>
</svg>