<svg xmlns="http://www.w3.org/2000/svg" width="21" height="20" viewBox="0 0 21 20" fill="currentColor">
  <path d="M4.50973 9.46111L15.3903 9.49345C15.5875 9.49345 15.7766 9.41512 15.916 9.2757C16.0555 9.13627 16.1338 8.94718 16.1338 8.75C16.1338 8.55282 16.0555 8.36373 15.916 8.2243C15.7766 8.08488 15.5875 8.00655 15.3903 8.00655L4.50973 7.97421L6.21502 6.26985C6.35452 6.13035 6.43289 5.94115 6.43289 5.74386C6.43289 5.54658 6.35452 5.35737 6.21501 5.21787C6.07551 5.07837 5.88631 5 5.68902 5C5.49174 5 5.30253 5.07837 5.16303 5.21787L2.18924 8.19167C2.12011 8.26072 2.06528 8.34271 2.02786 8.43297C1.99045 8.52322 1.97119 8.61996 1.97119 8.71766C1.97119 8.81536 1.99045 8.91211 2.02786 9.00236C2.06528 9.09261 2.12011 9.17461 2.18924 9.24365C2.32846 9.38289 2.51729 9.46111 2.71419 9.46111H4.50973Z" fill="currentColor"/>
  <path d="M16.0471 10.8333L5.30046 10.8333C5.09954 10.8333 4.90685 10.9065 4.76479 11.0367C4.62272 11.1669 4.54291 11.3436 4.54291 11.5277C4.54291 11.7119 4.62272 11.8885 4.76479 12.0187C4.90685 12.1489 5.09954 12.2221 5.30046 12.2221L16.0471 12.2221L14.3095 13.814C14.1673 13.9443 14.0875 14.121 14.0875 14.3052C14.0875 14.4895 14.1673 14.6662 14.3095 14.7965C14.4516 14.9268 14.6444 15 14.8454 15C15.0465 15 15.2393 14.9268 15.3814 14.7965L18.4116 12.019C18.482 11.9545 18.5379 11.8779 18.576 11.7936C18.6142 11.7093 18.6338 11.619 18.6338 11.5277C18.6338 11.4365 18.6142 11.3461 18.576 11.2618C18.5379 11.1775 18.482 11.1009 18.4116 11.0364C18.2691 10.9058 18.0828 10.8333 17.8895 10.8333L16.0471 10.8333Z" fill="currentColor"/>
</svg>