<svg width="12" height="12" viewBox="0 0 12 12" fill="none" xmlns="http://www.w3.org/2000/svg">
  <path d="M5.45217 11.5L5.70229 0.5H6.38041L6.13029 11.5H5.45217ZM7.65808 4.01914C7.61949 3.64388 7.45685 3.35169 7.17017 3.14258C6.88624 2.93346 6.51686 2.82891 6.06202 2.82891C5.74226 2.82891 5.46798 2.87904 5.23919 2.9793C5.01039 3.07956 4.83535 3.21562 4.71406 3.3875C4.59277 3.55938 4.53075 3.7556 4.52799 3.97617C4.52799 4.15951 4.56796 4.31849 4.6479 4.45312C4.7306 4.58776 4.84224 4.70234 4.98282 4.79688C5.12341 4.88854 5.27916 4.96588 5.45006 5.02891C5.62097 5.09193 5.79326 5.14492 5.96692 5.18789L6.76081 5.39414C7.08058 5.47148 7.38794 5.57604 7.68289 5.70781C7.9806 5.83958 8.24661 6.00573 8.48092 6.20625C8.71798 6.40677 8.90543 6.64883 9.04326 6.93242C9.18109 7.21602 9.25 7.5483 9.25 7.9293C9.25 8.44492 9.1232 8.89895 8.86959 9.2914C8.61599 9.68099 8.24936 9.98607 7.76972 10.2066C7.29283 10.4243 6.71533 10.5332 6.03721 10.5332C5.37839 10.5332 4.8064 10.4272 4.32125 10.2152C3.83885 10.0033 3.4612 9.69388 3.1883 9.28711C2.91815 8.88034 2.77205 8.38477 2.75 7.80039H4.25922C4.28128 8.1069 4.37224 8.36185 4.53212 8.56523C4.69201 8.76862 4.90013 8.92044 5.15649 9.0207C5.41561 9.12096 5.70505 9.17109 6.02481 9.17109C6.35835 9.17109 6.65055 9.11953 6.9014 9.01641C7.155 8.91042 7.35348 8.76432 7.49682 8.57812C7.64016 8.38906 7.71321 8.16849 7.71597 7.91641C7.71321 7.68724 7.64843 7.49818 7.52163 7.34922C7.39483 7.19739 7.21703 7.07135 6.98823 6.97109C6.76219 6.86797 6.49756 6.7763 6.19434 6.69609L5.23092 6.43828C4.5335 6.25208 3.98219 5.96992 3.57697 5.5918C3.17451 5.2108 2.97328 4.70521 2.97328 4.075C2.97328 3.55651 3.10835 3.10248 3.3785 2.71289C3.6514 2.32331 4.02216 2.0211 4.49078 1.80625C4.95939 1.58854 5.49003 1.47969 6.0827 1.47969C6.68363 1.47969 7.21014 1.58854 7.66221 1.80625C8.11705 2.0211 8.47402 2.32044 8.73314 2.7043C8.99226 3.08529 9.12595 3.52356 9.13422 4.01914H7.65808Z" fill="#222835"/>
</svg>