<svg xmlns="http://www.w3.org/2000/svg" width="24" height="24" viewBox="0 0 24 24" fill="currentColor">
  <path d="M4.70711 3.29289C4.31658 2.90237 3.68342 2.90237 3.29289 3.29289C2.90237 3.68342 2.90237 4.31658 3.29289 4.70711L6.58579 8H3.66667C3.22464 8 2.80072 8.17559 2.48816 8.48816C2.17559 8.80072 2 9.22464 2 9.66667V14.3333C2 14.7754 2.17559 15.1993 2.48816 15.5118C2.80072 15.8244 3.22464 16 3.66667 16H6L12 21V14.4142L17.2929 19.7071C17.6834 20.0976 18.3166 20.0976 18.7071 19.7071C19.0976 19.3166 19.0976 18.6834 18.7071 18.2929L4.70711 3.29289ZM13.6667 4.50285H14.5C16.4891 4.50285 18.3968 5.29302 19.8033 6.69955C21.2098 8.10607 22 10.0137 22 12.0028C22 13.0033 21.7808 13.9573 21.3844 14.8081C21.1222 15.3672 20.4552 15.6107 19.8961 15.3485C19.337 15.0863 19.0935 14.4193 19.3557 13.8602C19.7183 13.0781 19.9167 12.2876 19.9167 12.0028C19.9167 10.4558 19.3022 8.97202 18.2082 7.87806C17.1142 6.7841 15.6305 6.16951 14.0833 6.16951H13.6667V4.50285ZM13.6667 9.83539H14.0833C14.9822 9.83539 15.8444 10.1915 16.4918 10.8388C17.1391 11.4862 17.5 12.3533 17.5 13.2522C17.5 13.8547 17.3354 14.4413 17.0299 14.9522C16.7252 15.4608 15.9959 15.6064 15.4873 15.3017C14.9786 14.997 14.833 14.2678 15.1377 13.7591C15.2876 13.5095 15.375 13.1726 15.375 13.2522C15.375 12.801 15.1976 12.3679 14.8836 12.0539C14.5696 11.7399 14.1365 11.5625 13.6853 11.5625H13.6667V9.83539Z" fill="currentColor"/>
</svg>
