<svg xmlns="http://www.w3.org/2000/svg" width="24" height="24" viewBox="0 0 24 24" fill="currentColor">
  <path fill-rule="evenodd" clip-rule="evenodd" d="M3.66667 7.00292C3.22464 7.00292 2.80072 7.17852 2.48816 7.49108C2.17559 7.80364 2 8.22756 2 8.66959V15.3363C2 15.7783 2.17559 16.2022 2.48816 16.5148C2.80072 16.8273 3.22464 17.0029 3.66667 17.0029H6L12 21.9838V2.01709L6 7.00292H3.66667ZM18.6667 12.0028C18.6653 10.8982 18.2259 9.83915 17.4448 9.05803C16.6637 8.27692 15.6047 7.8375 14.5 7.83618H13.6667V9.50285H14.5C15.163 9.50285 15.7989 9.76624 16.2678 10.2351C16.7366 10.7039 17 11.3398 17 12.0028C17 12.6659 16.7366 13.3018 16.2678 13.7706C15.7989 14.2395 15.163 14.5028 14.5 14.5028H13.6667V16.1695H14.5C15.6047 16.1682 16.6637 15.7288 17.4448 14.9477C18.2259 14.1665 18.6653 13.1075 18.6667 12.0028ZM13.6667 4.50285H14.5C16.4891 4.50285 18.3968 5.29302 19.8033 6.69955C21.2098 8.10607 22 10.0137 22 12.0028C22 13.992 21.2098 15.8996 19.8033 17.3061C18.3968 18.7127 16.4891 19.5028 14.5 19.5028H13.6667V17.8362H14.5C16.0471 17.8362 17.5308 17.2216 18.6248 16.1276C19.7188 15.0337 20.3333 13.5499 20.3333 12.0028C20.3333 10.4558 19.7188 8.97202 18.6248 7.87806C17.5308 6.7841 16.0471 6.16951 14.5 6.16951H13.6667V4.50285Z" fill="currentColor"/>
</svg>