<svg xmlns="http://www.w3.org/2000/svg" width="20" height="20" viewBox="0 0 20 20" fill="#34D399">
  <path d="M12.4364 7.22301C12.4364 7.22301 11.6427 7.22301 11.5962 7.2244C11.5962 7.2244 11.5955 7.2244 11.5948 7.2244C8.64767 7.30079 5.62418 9.73679 4.44437 10.943V9.01182C4.89991 8.60073 5.43947 8.17714 6.04014 7.77715C6.06306 7.61883 6.08736 7.46119 6.11375 7.30356L6.43735 5.3835C8.08589 4.95644 9.30459 3.44747 9.30459 1.66699C6.40679 1.66699 5.4853 3.59469 5.4853 3.59469C5.4853 3.59469 4.5284 1.66699 1.66602 1.66699C1.66602 3.24887 2.62778 4.61617 3.99786 5.20087L3.64857 5.72446C2.3521 7.66952 1.66671 9.93331 1.66671 12.2728V14.1665C1.66671 16.4643 3.53538 18.333 5.8332 18.333H14.8606C16.7751 18.333 18.3327 16.7754 18.3327 14.8609V13.1255C18.3327 9.87359 15.687 7.22579 12.4364 7.22301ZM12.4302 14.8609C11.8552 14.8609 11.3885 14.3942 11.3885 13.8193C11.3885 13.2443 11.8552 12.7776 12.4302 12.7776C13.0051 12.7776 13.4718 13.2443 13.4718 13.8193C13.4718 14.3942 13.0051 14.8609 12.4302 14.8609Z" fill="#34D399"/>
</svg>