<svg width="10" height="8" viewBox="0 0 10 8" fill="none" xmlns="http://www.w3.org/2000/svg">
  <path d="M9.79083 1.6C9.67583 1.16708 9.33708 0.825833 8.90667 0.71C8.12708 0.5 5 0.5 5 0.5C5 0.5 1.87292 0.5 1.09292 0.71C0.662917 0.825833 0.324167 1.16667 0.209167 1.6C0 2.385 0 4.0225 0 4.0225C0 4.0225 0 5.66 0.209167 6.445C0.324167 6.87792 0.662917 7.21917 1.09333 7.335C1.87292 7.545 5 7.545 5 7.545C5 7.545 8.12708 7.545 8.90708 7.335C9.33708 7.21917 9.67583 6.87833 9.79125 6.445C10 5.66 10 4.0225 10 4.0225C10 4.0225 10 2.385 9.79083 1.6ZM3.9775 5.50958V2.53542L6.59083 4.0225L3.9775 5.50958Z" fill="#C3C7CF"/>
</svg>